<?xml version="1.0" standalone="no"?>
<!DOCTYPE svg PUBLIC "-//W3C//DTD SVG 1.1//EN" "http://www.w3.org/Graphics/SVG/1.1/DTD/svg11.dtd" >
<svg>
<metadata>
Created by FontForge 20090914 at Sun Aug  5 14:07:39 2012
 By www-data
Digitized data copyright &#194;&#169; 1997 The Monotype Corporation, Inc. All rights reserved. Gill Sans&#194;&#174; is a trademark of The Monotype Corporation, Inc. which may be registered in certain jurisdictions.
</metadata>
<defs>
<font id="GillSansMT-Condensed" horiz-adv-x="725" >
  <font-face 
    font-family="Gill Sans MT Condensed"
    font-weight="400"
    font-stretch="condensed"
    units-per-em="2048"
    panose-1="2 11 5 6 2 1 4 2 2 3"
    ascent="1638"
    descent="-410"
    x-height="907"
    cap-height="1368"
    bbox="-238 -553 2060 1878"
    underline-thickness="102"
    underline-position="-103"
    unicode-range="U+0020-U+F002"
  />
<missing-glyph horiz-adv-x="2048" 
d="M256 0v1536h1536v-1536h-1536zM384 128h1280v1280h-1280v-1280z" />
    <glyph glyph-name=".notdef" horiz-adv-x="2048" 
d="M256 0v1536h1536v-1536h-1536zM384 128h1280v1280h-1280v-1280z" />
    <glyph glyph-name="space" unicode=" " horiz-adv-x="682" 
 />
    <glyph glyph-name="exclam" unicode="!" horiz-adv-x="362" 
d="M78 1133c0 164.667 34.667 247 104 247c70 0 105 -82.333 105 -247c0 -133.333 -12.5 -290.333 -37.5 -471s-47.5 -271 -67.5 -271c-19.333 0 -41.5 90.333 -66.5 271s-37.5 337.667 -37.5 471zM182 -18c-30.667 0 -57 11 -79 33s-33 48.333 -33 79s11 56.834 33 78.501
s48.333 32.5 79 32.5s56.834 -10.833 78.501 -32.5s32.5 -47.834 32.5 -78.501s-10.833 -57 -32.5 -79s-47.834 -33 -78.501 -33z" />
    <glyph glyph-name="quotedbl" unicode="&#x22;" horiz-adv-x="727" 
d="M428 1466h205v-245l-47 -275h-111l-47 275v245zM96 1466h205v-245l-47 -275h-111l-47 275v245z" />
    <glyph glyph-name="numbersign" unicode="#" horiz-adv-x="1368" 
d="M141 1059h301l88 432h150l-88 -432h315l88 432h150l-88 -432h170v-150h-201l-70 -352h271v-149h-301l-88 -433h-150l88 433h-315l-88 -433h-150l88 433h-170v149h201l70 352h-271v150zM561 909l-69 -352h315l70 352h-316z" />
    <glyph glyph-name="dollar" unicode="$" horiz-adv-x="768" 
d="M53 59v176.997c96.667 -59.333 187.667 -89 273 -89v482c-93.333 72 -161.833 139 -205.5 201s-65.5 128.667 -65.5 200c0 72.667 24.167 137.834 72.5 195.501s114.5 92.834 198.5 105.501v66h118v-56c72.667 0 152 -21.667 238 -65v-170
c-86.667 50.667 -166 76.667 -238 78v-412c179.333 -133.333 269 -278.666 269 -435.999c0 -81.333 -23.833 -153 -71.5 -215s-113.5 -104.333 -197.5 -127v-205h-118v193c-108.667 10 -199.667 35.667 -273 77zM326 867.997v301c-71.333 -28 -107 -72.333 -107 -133
c0 -56.667 35.667 -112.667 107 -168zM444 531.997v-361.999c72.667 35.333 109 88.666 109 159.999c0 76.667 -36.333 144 -109 202z" />
    <glyph glyph-name="percent" unicode="%" horiz-adv-x="1237" 
d="M201 -61l700 1447h127l-698 -1447h-129zM223 657c-125.333 0 -188 121 -188 363c0 241.333 62.667 362 188 362c126 0 189 -120 189 -360c0 -243.333 -63 -365 -189 -365zM223 768c37.333 0 56 81.332 56 243.999c0 104 -4 173.667 -12 209s-22.667 53 -44 53
s-35.833 -20.667 -43.5 -62s-11.5 -108.666 -11.5 -201.999c0 -161.333 18.333 -242 55 -242zM1014 -14.001c-126 0 -189 120.667 -189 362c0 242 63 363 189 363c125.333 0 188 -120.333 188 -361c0 -242.667 -62.667 -364 -188 -364zM1014 95.999
c36.667 0 55 81.332 55 243.999c0 104 -4 173.667 -12 209s-22.333 53 -43 53c-22 0 -36.833 -20.667 -44.5 -62s-11.5 -108.666 -11.5 -201.999c0 -161.333 18.667 -242 56 -242z" />
    <glyph glyph-name="ampersand" unicode="&#x26;" horiz-adv-x="854" 
d="M633 -18l-50.998 120c-70 -80 -144 -120 -222 -120c-84 0 -155.833 38.833 -215.5 116.5s-89.5 172.5 -89.5 284.5c0 162 68.333 303.333 205 424c-50.667 112 -76 206.333 -76 283c0 80 24.833 148.667 74.5 206s108.834 86 177.501 86
c65.333 0 120.666 -24.5 165.999 -73.5s68 -109.167 68 -180.5c0 -116 -67 -232.667 -201 -350l133 -313h4c21.333 86.667 35.666 161 42.999 223h156c-12.667 -143.333 -50.334 -283.333 -113.001 -420l131 -286h-190zM399.002 924c40.667 40 70.666 74.333 89.999 103
s29 63 29 103c0 33.333 -8 60.833 -24 82.5s-36 32.5 -60 32.5c-25.333 0 -46.666 -12 -63.999 -36s-26 -53.667 -26 -89c0 -58.667 18.333 -124 55 -196zM510.001 264l-174.002 385c-37.333 -45.333 -64.166 -85.333 -80.499 -120s-24.5 -78.667 -24.5 -132
c0 -69.333 13.833 -126.5 41.5 -171.5s61.834 -67.5 102.501 -67.5c48 0 93 35.333 135 106z" />
    <glyph glyph-name="quotesingle" unicode="'" horiz-adv-x="391" 
d="M94 1466h205v-245l-47 -275h-111l-47 275v245z" />
    <glyph glyph-name="parenleft" unicode="(" horiz-adv-x="469" 
d="M453 1380c-70.667 -115.333 -121.5 -242.834 -152.5 -382.501s-46.5 -326.167 -46.5 -559.5s15.5 -419.666 46.5 -558.999s81.833 -267 152.5 -383h-93c-98.667 156.667 -169.334 304.667 -212.001 444s-64 305.333 -64 498c0 193.333 21.333 359.5 64 498.5
s113.334 286.833 212.001 443.5h93z" />
    <glyph glyph-name="parenright" unicode=")" horiz-adv-x="469" 
d="M16 -504c70.667 116 121.5 243.668 152.5 383.001s46.5 325.666 46.5 558.999s-15.5 419.833 -46.5 559.5s-81.833 267.167 -152.5 382.5h93c98.667 -156.667 169.334 -304.5 212.001 -443.5s64 -305.167 64 -498.5c0 -192.667 -21.333 -358.667 -64 -498
s-113.334 -287.333 -212.001 -444h-93z" />
    <glyph glyph-name="asterisk" unicode="*" 
d="M399 1038c69.333 -41.333 116 -73.5 140 -96.5s36 -46.167 36 -69.5c0 -16.667 -7.33301 -32 -22 -46s-31 -21 -49 -21c-56 0 -96.333 73 -121 219c-9.33301 -3.33301 -15.666 -5 -18.999 -5c-4 0 -10.667 1.66699 -20 5c-27.333 -146 -67.666 -219 -120.999 -219
c-19.333 0 -36 6.66699 -50 20s-21 29 -21 47c0 41.333 58 96.666 174 165.999c-10 11.333 -14.333 22.333 -13 33c-24 -4 -56 -6 -96 -6c-102.667 0 -154 26.667 -154 80c0 17.333 6.5 32.5 19.5 45.5s28.5 19.5 46.5 19.5c42.667 0 107 -38 193 -114
c5.33301 12 14.666 19.333 27.999 22c-36.667 85.333 -55 147 -55 185c0 23.333 6.33301 42.333 19 57s28.667 22 48 22c20 0 36.333 -7.33301 49 -22s19 -33 19 -55c0 -39.333 -18.333 -101.666 -55 -186.999c14 -2.66699 24.333 -10 31 -22
c83.333 76 146.666 114 189.999 114c18.667 0 34.667 -6.33301 48 -19s20 -28 20 -46c0 -53.333 -52 -80 -156 -80c-40 0 -72 2 -96 6c0 -13.333 -4.33301 -24.333 -13 -33z" />
    <glyph glyph-name="plus" unicode="+" horiz-adv-x="1366" 
d="M199 807h399v399h170v-399h399v-170h-399v-399h-170v399h-399v170z" />
    <glyph glyph-name="comma" unicode="," horiz-adv-x="362" 
d="M76 -266l-1.99902 18.002c45.333 67.333 64.333 144.666 57 231.999c-57.333 14 -86 50 -86 108c0 33.333 10.667 61.166 32 83.499s47.666 33.5 78.999 33.5c38.667 0 70.167 -16.833 94.5 -50.5s36.5 -77.5 36.5 -131.5c0 -135.333 -70.333 -233 -211 -293z" />
    <glyph glyph-name="hyphen" unicode="-" horiz-adv-x="492" 
d="M59 373v172h371v-172h-371z" />
    <glyph glyph-name="period" unicode="." horiz-adv-x="362" 
d="M70 94c0 30.667 11 56.834 33 78.501s48.333 32.5 79 32.5s56.834 -10.833 78.501 -32.5s32.5 -47.834 32.5 -78.501s-10.833 -57 -32.5 -79s-47.834 -33 -78.501 -33s-57 11 -79 33s-33 48.333 -33 79z" />
    <glyph glyph-name="slash" unicode="/" horiz-adv-x="575" 
d="M20 -18l390 1386h145l-389 -1386h-146z" />
    <glyph glyph-name="zero" unicode="0" horiz-adv-x="748" 
d="M371 -25c-102 0 -176.667 57.667 -224 173s-71 292 -71 530c0 469.333 98.333 704 295 704c101.333 0 176.5 -56.167 225.5 -168.5s73.5 -290.833 73.5 -535.5c0 -234.667 -23.333 -410.5 -70 -527.5s-123 -175.5 -229 -175.5zM489 678
c0 211.333 -9.16797 355 -27.501 431s-47.833 114 -88.5 114c-39.333 0 -68.666 -33.333 -87.999 -100s-29 -215 -29 -445c0 -360.667 39 -541 117 -541c77.333 0 116 180.333 116 541z" />
    <glyph glyph-name="one" unicode="1" horiz-adv-x="748" 
d="M285 0v1368h176v-1368h-176z" />
    <glyph glyph-name="two" unicode="2" horiz-adv-x="748" 
d="M70 0v27.002c240 397.333 360 710.666 360 939.999c0 69.333 -16.167 124.833 -48.5 166.5s-75.5 62.5 -129.5 62.5c-38 0 -89.333 -15 -154 -45v182c70.667 32.667 137 49 199 49c96.667 0 173 -34.167 229 -102.5s84 -161.833 84 -280.5
c0 -102.667 -22 -214.334 -66 -335.001s-119 -284 -225 -490h320v-174h-569z" />
    <glyph glyph-name="three" unicode="3" horiz-adv-x="748" 
d="M94 16l-0.00292969 174c56.667 -28.667 107.334 -43 152.001 -43c54 0 97.5 22.5 130.5 67.5s49.5 105.167 49.5 180.5c0 144 -59.333 225.333 -178 244v174c108 16.667 162 83.667 162 201c0 61.333 -14.833 110 -44.5 146s-69.5 54 -119.5 54
c-37.333 0 -77.666 -12.667 -120.999 -38v172c48 22.667 100.667 34 158 34c87.333 0 160.333 -32.333 219 -97s88 -145.667 88 -243c0 -138 -69 -241.667 -207 -311c148.667 -54.667 223 -172 223 -352c0 -112 -32.667 -207.333 -98 -286s-144.666 -118 -237.999 -118
c-48 0 -106.667 13.667 -176 41z" />
    <glyph glyph-name="four" unicode="4" horiz-adv-x="748" 
d="M414 0v375h-359v157l371 850h164v-884h76v-123h-76v-375h-176zM414 498v549h-4l-234 -549h238z" />
    <glyph glyph-name="five" unicode="5" horiz-adv-x="748" 
d="M106 12v166c54.667 -20.667 100.667 -31 138 -31c64 0 114.833 23.333 152.5 70s56.5 110.334 56.5 191.001c0 78 -20 139 -60 183s-95.333 66 -166 66c-31.333 0 -55 -2.66699 -71 -8v719h434v-160h-262v-405c203.333 -28.667 305 -158.334 305 -389.001
c0 -125.333 -34.167 -229.833 -102.5 -313.5s-153.166 -125.5 -254.499 -125.5c-56.667 0 -113.334 12.333 -170.001 37z" />
    <glyph glyph-name="six" unicode="6" horiz-adv-x="748" 
d="M602 1368l-262 -539c28 7.33301 52.667 11 74 11c76 0 137.667 -38.333 185 -115s71 -177.667 71 -303c0 -128 -27.833 -234.5 -83.5 -319.5s-124.167 -127.5 -205.5 -127.5c-79.333 0 -146 38.5 -200 115.5s-81 188.167 -81 333.5c0 184 41.667 361.333 125 532l201 412
h176zM383 668c-68 0 -102 -86.667 -102 -260c0 -174 34.667 -261 104 -261s104 96.333 104 289c0 154.667 -35.333 232 -106 232z" />
    <glyph glyph-name="seven" unicode="7" horiz-adv-x="748" 
d="M201 12l243 1196h-350v160h559l-286 -1393z" />
    <glyph glyph-name="eight" unicode="8" horiz-adv-x="748" 
d="M510 711c105.333 -66.667 158 -175.334 158 -326.001c0 -124 -27 -223.333 -81 -298s-125.333 -112 -214 -112c-88 0 -158.833 36.833 -212.5 110.5s-80.5 171.5 -80.5 293.5c0 156.667 52.667 267.334 158 332.001c-94.667 70.667 -142 171 -142 301
c0 116 28.667 206.667 86 272s121 98 191 98c72.667 0 137.167 -33.5 193.5 -100.5s84.5 -156.833 84.5 -269.5c0 -130 -47 -230.333 -141 -301zM276 987c0 -62.667 8.66699 -112.167 26 -148.5s40.333 -54.5 69 -54.5s51.5 18 68.5 54s25.5 85 25.5 147
c0 150 -31.333 225 -94 225c-63.333 0 -95 -74.333 -95 -223zM260 385c0 -71.333 10.5 -128.833 31.5 -172.5s48.167 -65.5 81.5 -65.5c34 0 61.5 21.667 82.5 65s31.5 101 31.5 173c0 151.333 -38 227 -114 227c-75.333 0 -113 -75.667 -113 -227z" />
    <glyph glyph-name="nine" unicode="9" horiz-adv-x="748" 
d="M178 0l254.001 528.002c-30 -6.66699 -54.667 -10 -74 -10c-76.667 0 -138.834 38.5 -186.501 115.5s-71.5 178.5 -71.5 304.5c0 127.333 28 233.166 84 317.499s124.333 126.5 205 126.5c83.333 0 151 -40.333 203 -121s78 -190.334 78 -329.001
c0 -180 -41 -355.333 -123 -526l-195 -406h-174zM387.001 690.002c68 0 102 86.667 102 260s-34 260 -102 260c-70.667 0 -106 -95.333 -106 -286c0 -156 35.333 -234 106 -234z" />
    <glyph glyph-name="colon" unicode=":" horiz-adv-x="362" 
d="M70 821c0 30.667 11 56.834 33 78.501s48.333 32.5 79 32.5s56.834 -10.833 78.501 -32.5s32.5 -47.834 32.5 -78.501s-10.833 -57 -32.5 -79s-47.834 -33 -78.501 -33s-57 11 -79 33s-33 48.333 -33 79zM70 94c0 30.667 11 56.834 33 78.501s48.333 32.5 79 32.5
s56.834 -10.833 78.501 -32.5s32.5 -47.834 32.5 -78.501s-10.833 -57 -32.5 -79s-47.834 -33 -78.501 -33s-57 11 -79 33s-33 48.333 -33 79z" />
    <glyph glyph-name="semicolon" unicode=";" horiz-adv-x="362" 
d="M70 821c0 30.667 11 56.834 33 78.501s48.333 32.5 79 32.5s56.834 -10.833 78.501 -32.5s32.5 -47.834 32.5 -78.501s-10.833 -57 -32.5 -79s-47.834 -33 -78.501 -33s-57 11 -79 33s-33 48.333 -33 79zM76 -266l-1.99902 18.002
c45.333 67.333 64.333 144.666 57 231.999c-57.333 14 -86 50 -86 108c0 33.333 10.667 61.166 32 83.499s47.666 33.5 78.999 33.5c38.667 0 70.167 -16.833 94.5 -50.5s36.5 -77.5 36.5 -131.5c0 -135.333 -70.333 -233 -211 -293z" />
    <glyph glyph-name="less" unicode="&#x3c;" horiz-adv-x="1366" 
d="M199 641v168l970 410v-181l-770 -313l770 -313v-181z" />
    <glyph glyph-name="equal" unicode="=" horiz-adv-x="1366" 
d="M199 1030h968v-170h-968v170zM199 588h968v-170h-968v170z" />
    <glyph glyph-name="greater" unicode="&#x3e;" horiz-adv-x="1366" 
d="M1169 641l-970 -410v181l770 313l-770 313v181l970 -410v-168z" />
    <glyph glyph-name="question" unicode="?" horiz-adv-x="512" 
d="M66 1184l127.004 196c89.333 -6.66699 159.333 -36.667 210 -90s76 -121 76 -203c0 -37.333 -7.5 -79.166 -22.5 -125.499s-53.333 -120.5 -115 -222.5s-100.834 -180.667 -117.501 -236s-24.334 -106.333 -23.001 -153c-71.333 34 -107 94 -107 180
c0 38.667 6.66699 80.667 20 126s46.166 114.166 98.499 206.499s78.5 161.833 78.5 208.5c0 34.667 -12.333 64.5 -37 89.5s-54 37.5 -88 37.5c-24.667 0 -53.334 -9 -86.001 -27zM231.004 -18c-30 0 -56.167 11 -78.5 33s-33.5 48.333 -33.5 79s11 56.834 33 78.501
s48.333 32.5 79 32.5s56.834 -10.833 78.501 -32.5s32.5 -47.834 32.5 -78.501s-10.833 -57 -32.5 -79s-47.834 -33 -78.501 -33z" />
    <glyph glyph-name="at" unicode="@" horiz-adv-x="2079" 
d="M1417 1012l-125.002 -791c-2 -14.667 -3 -26.667 -3 -36c0 -28 12.667 -42 38 -42c58 0 122.667 44 194 132s107 208.667 107 362c0 174 -50.333 312.333 -151 415s-236 154 -406 154c-195.333 0 -354.666 -67.5 -477.999 -202.5s-185 -310.5 -185 -526.5
c0 -209.333 59.667 -378 179 -506s276 -192 470 -192c189.333 0 362 62 518 186h225c-84 -108 -193.833 -194 -329.5 -258s-272.167 -96 -409.5 -96c-234 0 -430 82.833 -588 248.5s-237 371.5 -237 617.5c0 244 73.5 454.833 220.5 632.5s351.833 266.5 614.5 266.5
c224.667 0 402.334 -70.167 533.001 -210.5s196 -316.5 196 -528.5c0 -197.333 -60.167 -357 -180.5 -479s-239.5 -183 -357.5 -183c-81.333 0 -133.333 39.667 -156 119c-79.333 -79.333 -159.333 -119 -240 -119c-95.333 0 -173.333 39.833 -234 119.5
s-91 183.5 -91 311.5c0 164.667 41.5 312.667 124.5 444s184.167 197 303.5 197c90.667 0 169 -49.333 235 -148l19 113h194zM1004 874c-70.667 0 -128.667 -50.833 -174 -152.5s-68 -225.5 -68 -371.5c0 -68.667 12 -122 36 -160s57.667 -57 101 -57
c72.667 0 130.167 54 172.5 162s63.5 239 63.5 393c0 124 -43.667 186 -131 186z" />
    <glyph glyph-name="A" unicode="A" 
d="M14 0l258 1376h183l256 -1376h-170l-49 303h-254l-54 -303h-170zM264 467h197l-96 573h-5z" />
    <glyph glyph-name="B" unicode="B" horiz-adv-x="788" 
d="M121 0l0.000976562 1368h209c103.333 0 189.166 -33.333 257.499 -100s102.5 -146 102.5 -238c0 -123.333 -59.333 -221.666 -178 -294.999c139.333 -65.333 209 -178.666 209 -339.999c0 -116.667 -37.667 -211.667 -113 -285s-182.333 -110 -321 -110h-166z
M297.001 787.998l16.001 -0.000976562c61.333 0 110.166 19.333 146.499 58s54.5 90.334 54.5 155.001s-17.5 114.667 -52.5 150s-84.5 53 -148.5 53h-16v-416zM297.002 163.997l31 -0.000976562c68 0 121.167 19.833 159.5 59.5s57.5 94.834 57.5 165.501
c0 70 -18.833 126.833 -56.5 170.5s-91.167 65.5 -160.5 65.5h-31v-461z" />
    <glyph glyph-name="C" unicode="C" horiz-adv-x="682" 
d="M643 244l0.00292969 -185c-66 -51.333 -135.667 -77 -209 -77c-117.333 0 -208 60 -272 180s-96 291.333 -96 514s32.167 396.667 96.5 522s156.166 188 275.499 188c57.333 0 120.333 -23.667 189 -71v-178c-58.667 57.333 -117.334 86 -176.001 86
c-70.667 0 -121.834 -41.5 -153.501 -124.5s-47.5 -221.167 -47.5 -414.5c0 -191.333 16 -329 48 -413s85 -126 159 -126c50.667 0 112.667 33 186 99z" />
    <glyph glyph-name="D" unicode="D" horiz-adv-x="854" 
d="M113 0l0.000976562 1368h194c312.667 0 469 -227.333 469 -682c0 -227.333 -38.833 -398.5 -116.5 -513.5s-186.834 -172.5 -327.501 -172.5h-219zM289.001 164h26c104 0 177.5 39.833 220.5 119.5s64.5 211.167 64.5 394.5c0 191.333 -20.333 326.833 -61 406.5
s-114 119.5 -220 119.5h-30v-1040z" />
    <glyph glyph-name="E" unicode="E" horiz-adv-x="745" 
d="M119 0v1368h487v-164h-311v-409h285v-164h-285v-467h328v-164h-504z" />
    <glyph glyph-name="F" unicode="F" horiz-adv-x="666" 
d="M119 0v1368h426v-164h-250v-407h233v-164h-233v-633h-176z" />
    <glyph glyph-name="G" unicode="G" horiz-adv-x="854" 
d="M762 735l0.00195312 -672c-82.667 -54 -163.334 -81 -242.001 -81c-138.667 0 -248.334 61.667 -329.001 185s-121 295 -121 515c0 216.667 39 388.167 117 514.5s182.333 189.5 313 189.5c78.667 0 166 -32.667 262 -98v-188c-98 88.667 -182.667 133 -254 133
c-174.667 0 -262 -183.667 -262 -551c0 -358 92.667 -537 278 -537c15.333 0 36 2.33301 62 7v419h-121v164h297z" />
    <glyph glyph-name="H" unicode="H" horiz-adv-x="854" 
d="M121 0v1368h176v-602h260v602h176v-1368h-176v602h-260v-602h-176z" />
    <glyph glyph-name="I" unicode="I" horiz-adv-x="406" 
d="M115 0v1368h176v-1368h-176z" />
    <glyph glyph-name="J" unicode="J" horiz-adv-x="426" 
d="M-49 -406l-19 160.001c33.333 -2.66699 59.333 -4 78 -4c50 0 82.333 11.667 97 35s22 69.666 22 138.999v1444h176v-1415c0 -244 -90.333 -366 -271 -366c-26 0 -53.667 2.33301 -83 7z" />
    <glyph glyph-name="K" unicode="K" 
d="M123 0v1368h176v-1368h-176zM549 0l-244 694l193 674h180l-215 -651l268 -717h-182z" />
    <glyph glyph-name="L" unicode="L" horiz-adv-x="641" 
d="M121 0v1368h176v-1204h338v-164h-514z" />
    <glyph glyph-name="M" unicode="M" horiz-adv-x="938" 
d="M469 866l203 502h151v-1368h-172l11 989l-5 4l-172 -450h-32l-172 450l-5 -4l11 -989h-172v1368h151z" />
    <glyph glyph-name="N" unicode="N" horiz-adv-x="854" 
d="M121 0v1368h143l303 -844h4v844h162v-1368h-143l-303 852h-4v-852h-162z" />
    <glyph glyph-name="O" unicode="O" horiz-adv-x="874" 
d="M438 -18c-108 0 -195.999 62.501 -263.999 187.501s-102 296.5 -102 514.5c0 206 32.167 374.5 96.5 505.5s154.166 196.5 269.499 196.5c112 0 201.167 -65.333 267.5 -196s99.5 -299.334 99.5 -506.001c0 -220 -35 -392 -105 -516s-157.333 -186 -262 -186z
M436.001 1223c-58 0 -102.5 -47.833 -133.5 -143.5s-46.5 -227.5 -46.5 -395.5c0 -174 16 -307.333 48 -400s77.333 -139 136 -139c56 0 100.167 47.333 132.5 142s48.5 227 48.5 397c0 172.667 -16.333 305.667 -49 399s-78 140 -136 140z" />
    <glyph glyph-name="P" unicode="P" horiz-adv-x="768" 
d="M127 0v1368h186c126 0 226.167 -33.667 300.5 -101s111.5 -160 111.5 -278c0 -120.667 -34.333 -215.667 -103 -285s-162.667 -104 -282 -104h-37v-600h-176zM303 764h31c143.333 0 215 78.333 215 235c0 140.667 -82 209 -246 205v-440z" />
    <glyph glyph-name="Q" unicode="Q" horiz-adv-x="874" 
d="M834 -96l-115 -175.998c-125.333 13.333 -244.333 102 -357 266c-193.333 80 -290 310 -290 690c0 207.333 32.667 376.166 98 506.499s155.333 195.5 270 195.5c106.667 0 194.167 -63.333 262.5 -190s102.5 -297.334 102.5 -512.001c0 -340 -81.333 -562 -244 -666
c66 -84.667 122.667 -127 170 -127c24.667 0 48.667 11 72 33zM436 1223c-58 0 -102.5 -48.167 -133.5 -144.5s-46.5 -227.833 -46.5 -394.5c0 -174 16 -307.333 48 -400s77.333 -139 136 -139c57.333 0 101.833 47.333 133.5 142s47.5 227 47.5 397
c0 172.667 -16.333 305.667 -49 399s-78 140 -136 140z" />
    <glyph glyph-name="R" unicode="R" horiz-adv-x="748" 
d="M121 0l0.000976562 1368h147c117.333 0 206.833 -34.5 268.5 -103.5s92.5 -160.833 92.5 -275.5c0 -130 -47.333 -227.667 -142 -293c73.333 -52 135.666 -190.333 186.999 -415l63 -281h-184l-53 236c-38 165.333 -71 270.5 -99 315.5s-62.667 65.167 -104 60.5v-612
h-176zM297.001 776l8 -0.000976562c98.667 0 148 69 148 207c0 146.667 -52 220.334 -156 221.001v-428z" />
    <glyph glyph-name="S" unicode="S" horiz-adv-x="575" 
d="M66 35l-0.000976562 181.999c52.667 -50.667 103.667 -76 153 -76c36.667 0 68 13 94 39s39 57.333 39 94c0 31.333 -7.33301 69.333 -22 114s-54.167 127.167 -118.5 247.5s-106.166 211.5 -125.499 273.5s-29 116.667 -29 164c0 92 26.167 167.167 78.5 225.5
s119.166 87.5 200.499 87.5c46 0 95 -12 147 -36v-166c-48 28.667 -89 43 -123 43c-88.667 0 -133 -43.667 -133 -131c0 -32 7.5 -70.5 22.5 -115.5s54.667 -127 119 -246s106 -209.667 125 -272s28.5 -117.5 28.5 -165.5c0 -93.333 -26.167 -169.166 -78.5 -227.499
s-120.166 -87.5 -203.499 -87.5c-60 0 -118 17.667 -174 53z" />
    <glyph glyph-name="T" unicode="T" horiz-adv-x="641" 
d="M231 0v1204h-211v164h598v-164h-210v-1204h-177z" />
    <glyph glyph-name="U" unicode="U" horiz-adv-x="831" 
d="M111 1368h176v-1028c0 -130 43 -195 129 -195c38 0 69 16.333 93 49s36 78.667 36 138v1036h176v-1016c0 -120 -30.333 -211.667 -91 -275s-132 -95 -214 -95c-87.333 0 -160 33 -218 99s-87 151.667 -87 257v1030z" />
    <glyph glyph-name="V" unicode="V" horiz-adv-x="662" 
d="M270 -18l-252 1386h185l129 -922l127 922h184l-252 -1386h-121z" />
    <glyph glyph-name="W" unicode="W" horiz-adv-x="1237" 
d="M313 -18l-293 1386h185l162 -919h4l184 919h127l174 -940h4l172 940h185l-293 -1386h-121l-185 915h-4l-180 -915h-121z" />
    <glyph glyph-name="X" unicode="X" 
d="M16 0l240 727l-207 641h189l120 -453h4l123 453h189l-207 -641l242 -727h-189l-158 508h-4l-153 -508h-189z" />
    <glyph glyph-name="Y" unicode="Y" horiz-adv-x="641" 
d="M229 0v625l-215 743h181l118 -537h4l125 537h183l-219 -743v-625h-177z" />
    <glyph glyph-name="Z" unicode="Z" horiz-adv-x="598" 
d="M33 0l315 1204h-278v164h495l-315 -1204h315v-164h-532z" />
    <glyph glyph-name="bracketleft" unicode="[" horiz-adv-x="532" 
d="M164 -483v1851h354v-151h-194v-1549h194v-151h-354z" />
    <glyph glyph-name="backslash" unicode="\" horiz-adv-x="575" 
d="M555 -18h-145l-390 1386h146z" />
    <glyph glyph-name="bracketright" unicode="]" horiz-adv-x="532" 
d="M369 -483h-355v151h195v1549h-195v151h355v-1851z" />
    <glyph glyph-name="asciicircum" unicode="^" horiz-adv-x="961" 
d="M53 690l355 801h145l352 -801h-184l-242 598l-239 -598h-187z" />
    <glyph glyph-name="underscore" unicode="_" horiz-adv-x="1024" 
d="M-12 -154h1048v-102h-1048v102z" />
    <glyph glyph-name="grave" unicode="`" horiz-adv-x="682" 
d="M410 1055h-93l-145 299h195z" />
    <glyph glyph-name="a" unicode="a" horiz-adv-x="682" 
d="M659 168v-121c-50 -44.667 -91.333 -67 -124 -67c-59.333 0 -98.333 38 -117 114c-58.667 -79.333 -116.667 -119 -174 -119c-47.333 0 -88.833 22.833 -124.5 68.5s-53.5 99.5 -53.5 161.5c0 71.333 25 132 75 182s140.333 112.667 271 188v87
c0 78.667 -31.667 118 -95 118c-64.667 0 -141 -49.667 -229 -149v184c81.333 78 162 117 242 117c66.667 0 123.5 -22 170.5 -66s70.5 -103.333 70.5 -178v-512c0 -35.333 8.33301 -53 25 -53c10 0 31 15 63 45zM412 231l-0.000976562 234
c-126 -76 -189 -154.667 -189 -236c0 -30 7.33301 -54.5 22 -73.5s33.334 -28.5 56.001 -28.5c28 0 53.5 15.167 76.5 45.5s34.5 49.833 34.5 58.5z" />
    <glyph glyph-name="b" unicode="b" 
d="M94 0l-0.000976562 1368h160v-508h4c28.667 48 75 72 139 72c72.667 0 133.834 -40 183.501 -120s74.5 -196.333 74.5 -349c0 -151.333 -24.667 -268.666 -74 -351.999s-112 -125 -188 -125c-54 0 -100.333 22.333 -139 67v-53h-160zM253.999 695.999v-471.001
c28 -58.667 64 -88 108 -88c86.667 0 130 109.333 130 328c0 100.667 -12.333 178.334 -37 233.001s-59 82 -103 82c-27.333 0 -50.5 -12.5 -69.5 -37.5s-28.5 -40.5 -28.5 -46.5z" />
    <glyph glyph-name="c" unicode="c" horiz-adv-x="575" 
d="M555 178l0.000976562 -153.003c-51.333 -33.333 -104 -50 -158 -50c-92.667 0 -170 44.333 -232 133s-93 201.334 -93 338.001c0 142.667 30.667 259.334 92 350.001s139 136 233 136c44.667 0 92.667 -11 144 -33v-164c-48 30 -87.667 45 -119 45
c-56.667 0 -101.834 -29.5 -135.501 -88.5s-50.5 -139.167 -50.5 -240.5c0 -99.333 18.333 -178.166 55 -236.499s85.667 -87.5 147 -87.5c36 0 75 17 117 51z" />
    <glyph glyph-name="d" unicode="d" 
d="M631 0h-159.999v70h-4c-38 -56 -86.333 -84 -145 -84c-71.333 0 -131.833 42 -181.5 126s-74.5 197 -74.5 339c0 142.667 24.667 258.5 74 347.5s112.666 133.5 189.999 133.5c54 0 101 -24.667 141 -74v510h160v-1368zM471.001 231l0.000976562 459
c-21.333 60 -56 90 -104 90c-42.667 0 -76.334 -29.167 -101.001 -87.5s-37 -140.5 -37 -246.5c0 -200.667 43 -301 129 -301c32 0 58.833 12.667 80.5 38s32.5 41.333 32.5 48z" />
    <glyph glyph-name="e" unicode="e" horiz-adv-x="641" 
d="M547 213l0.000976562 -158.002c-56.667 -53.333 -119 -80 -187 -80c-92 0 -163.333 41.333 -214 124s-76 201.334 -76 356.001c0 150.667 22.167 267.834 66.5 351.501s106.166 125.5 185.499 125.5c165.333 0 246.333 -171.333 243 -514h-336
c0 -196.667 54 -295 162 -295c58.667 0 110.667 30 156 90zM227.001 536.998h179c0 170.667 -31 256 -93 256c-57.333 0 -86 -85.333 -86 -256z" />
    <glyph glyph-name="f" unicode="f" horiz-adv-x="385" 
d="M117 0v768h-72v139h72v144c0 223.333 106.333 335 319 335v-133c-56 0 -96.667 -16.667 -122 -50s-38 -87 -38 -161v-135h89v-139h-89v-768h-159z" />
    <glyph glyph-name="g" unicode="g" horiz-adv-x="682" 
d="M659 768h-120c34 -56 51 -129.667 51 -221c0 -196 -84.667 -307.667 -254 -335c-30.667 -5.33301 -52.334 -11.833 -65.001 -19.5s-19 -23.5 -19 -47.5c0 -18 6.33301 -33.5 19 -46.5s62.167 -28.167 148.5 -45.5s147.5 -50.666 183.5 -99.999s54 -107.333 54 -174
c0 -82.667 -29.167 -150.167 -87.5 -202.5s-134.166 -78.5 -227.499 -78.5c-86 0 -157.667 24.167 -215 72.5s-86 108.166 -86 179.499c0 104 52 178.333 156 223c-68.667 30.667 -103 75 -103 133c0 64 42.333 112.667 127 146c-92.667 64 -139 167.667 -139 311
c0 104.667 23.833 188.167 71.5 250.5s113.167 93.5 196.5 93.5h309v-139zM338 786c-33.333 0 -60.168 -19.833 -80.501 -59.5s-30.5 -94.167 -30.5 -163.5c0 -71.333 9.83301 -127 29.5 -167s46.834 -60 81.501 -60c32.667 0 58.5 19.167 77.5 57.5s28.5 91.5 28.5 159.5
c0 72 -9.66699 128.833 -29 170.5s-45 62.5 -77 62.5zM337.998 -86c-44.667 0 -81.167 -13.335 -109.5 -40.002s-42.5 -61 -42.5 -103c0 -41.333 14.667 -74.666 44 -99.999s68 -38 116 -38c47.333 0 86.833 13.333 118.5 40s47.5 59.334 47.5 98.001
c0 39.333 -17 73 -51 101s-75 42 -123 42z" />
    <glyph glyph-name="h" unicode="h" 
d="M104 0v1368h160v-551h4c43.333 76.667 99.333 115 168 115c56 0 103.167 -22.333 141.5 -67s57.5 -107.667 57.5 -189v-676h-160v657c0 87.333 -28 131 -84 131c-32 0 -61.167 -16 -87.5 -48s-39.5 -51.333 -39.5 -58v-682h-160z" />
    <glyph glyph-name="i" unicode="i" horiz-adv-x="362" 
d="M182 1202c-25.333 0 -47 9 -65 27s-27 39.667 -27 65c0 26 9 47.833 27 65.5s39.667 26.5 65 26.5s47 -8.83301 65 -26.5s27 -39.5 27 -65.5c0 -25.333 -9 -47 -27 -65s-39.667 -27 -65 -27zM102 0v907h160v-907h-160z" />
    <glyph glyph-name="j" unicode="j" horiz-adv-x="342" 
d="M164 1202c-25.333 0 -47 9 -65 27s-27 39.667 -27 65c0 26 9 47.833 27 65.5s39.667 26.5 65 26.5s47 -8.83301 65 -26.5s27 -39.5 27 -65.5c0 -25.333 -9 -47 -27 -65s-39.667 -27 -65 -27zM-10 -489v153c36.667 6 62.5 22.667 77.5 50s22.5 78.333 22.5 153v1040h160
v-973c0 -107.333 -6 -184.333 -18 -231s-38.333 -88.667 -79 -126s-95 -59.333 -163 -66z" />
    <glyph glyph-name="k" unicode="k" horiz-adv-x="705" 
d="M98 0v1368h160v-1368h-160zM522 0l-248 467l228 440h168l-242 -430l272 -477h-178z" />
    <glyph glyph-name="l" unicode="l" horiz-adv-x="342" 
d="M90 0v1368h160v-1368h-160z" />
    <glyph glyph-name="m" unicode="m" horiz-adv-x="1087" 
d="M1004 0l-159.999 -0.000976562v645c0 90 -28.667 135 -86 135c-44 0 -86.333 -35.333 -127 -106v-674h-160v643c0 91.333 -29.333 137 -88 137c-40 0 -81.667 -36 -125 -108v-672h-160v907h160v-98h4c44 75.333 100 113 168 113c78 0 140 -45.333 186 -136
c32 46.667 60.833 81 86.5 103s59.167 33 100.5 33c59.333 0 107.666 -23.167 144.999 -69.5s56 -112.166 56 -197.499v-655z" />
    <glyph glyph-name="n" unicode="n" 
d="M100 0v907h160v-98h4c44.667 75.333 100.667 113 168 113c60 0 108.167 -23.667 144.5 -71s54.5 -113.333 54.5 -198v-653h-160v649c0 87.333 -28.667 131 -86 131c-32 0 -60.833 -16.5 -86.5 -49.5s-38.5 -52.5 -38.5 -58.5v-672h-160z" />
    <glyph glyph-name="o" unicode="o" horiz-adv-x="705" 
d="M352 -25c-87.333 0 -156.5 42.5 -207.5 127.5s-76.5 201.833 -76.5 350.5s25.5 265.667 76.5 351s120.167 128 207.5 128s156.666 -42.667 207.999 -128s77 -202.333 77 -351s-25.667 -265.5 -77 -350.5s-120.666 -127.5 -207.999 -127.5zM350 780
c-79.333 0 -119 -109 -119 -327c0 -217.333 41 -326 123 -326c79.333 0 119 108.667 119 326c0 218 -41 327 -123 327z" />
    <glyph glyph-name="p" unicode="p" 
d="M100 -489v1396h160v-65h4c34.667 53.333 80.334 80 137.001 80c73.333 0 135.166 -45.667 185.499 -137s75.5 -206.333 75.5 -345c0 -137.333 -24.5 -249.166 -73.5 -335.499s-111.5 -129.5 -187.5 -129.5c-52 0 -97.667 26.667 -137 80h-4v-544h-160zM260 689.999
l0.000976562 -481c36.667 -54.667 73.667 -82 111 -82c84.667 0 127 105 127 315c0 218.667 -47.333 328 -142 328c-26.667 0 -49.334 -11.5 -68.001 -34.5s-28 -38.167 -28 -45.5z" />
    <glyph glyph-name="q" unicode="q" 
d="M471 -489v541.999h-4c-34 -52 -80.333 -78 -139 -78c-75.333 0 -137.833 43 -187.5 129s-74.5 201.667 -74.5 347c0 144.667 24 259.334 72 344.001s110.667 127 188 127c59.333 0 106.333 -27.333 141 -82h4v67h160v-1396h-160zM471 216.999v460.999
c-28 61.333 -65 92 -111 92c-87.333 0 -131 -109.333 -131 -328c0 -99.333 12.667 -176.666 38 -231.999s60 -83 104 -83c29.333 0 53.333 13.5 72 40.5s28 43.5 28 49.5z" />
    <glyph glyph-name="r" unicode="r" horiz-adv-x="512" 
d="M104 0l0.000976562 907h160v-245h4c32 108 58.5 178.333 79.5 211s50.5 49 88.5 49c29.333 0 56.666 -9 81.999 -27l-12 -164c-22 15.333 -45.333 23 -70 23c-50 0 -91.167 -45 -123.5 -135s-48.5 -176.333 -48.5 -259v-360h-160z" />
    <glyph glyph-name="s" unicode="s" horiz-adv-x="512" 
d="M57 49v175.999c59.333 -65.333 112 -98 158 -98c22.667 0 41.667 7.33301 57 22s23 33.334 23 56.001c0 41.333 -30.167 107 -90.5 197s-98.166 156.5 -113.499 199.5s-23 82.167 -23 117.5c0 61.333 18.5 112.166 55.5 152.499s83.833 60.5 140.5 60.5
c51.333 0 102 -19.333 152 -58v-151c-52 42 -97.667 63 -137 63c-42.667 0 -64 -22.333 -64 -67c0 -38 31.167 -100.5 93.5 -187.5s102 -153 119 -198s25.5 -86.5 25.5 -124.5c0 -67.333 -20.667 -123.166 -62 -167.499s-93 -66.5 -155 -66.5
c-58.667 0 -118.334 24.667 -179.001 74z" />
    <glyph glyph-name="t" unicode="t" horiz-adv-x="469" 
d="M446 152v-142.001c-54 -23.333 -101 -35 -141 -35c-112 0 -168 67.667 -168 203v590h-104v14c76 92.667 159.333 212.334 250 359.001h14v-234h149v-139h-149v-518c0 -48 4.5 -80.5 13.5 -97.5s25.5 -25.5 49.5 -25.5c22 0 50.667 8.33301 86 25z" />
    <glyph glyph-name="u" unicode="u" 
d="M618 907v-907h-159v98h-4c-42.667 -74.667 -96.667 -112 -162 -112c-60.667 0 -110 23 -148 69s-57 109.667 -57 191v661h160v-649c0 -86 28.667 -129 86 -129c33.333 0 62.5 15.167 87.5 45.5s37.5 50.833 37.5 61.5v671h159z" />
    <glyph glyph-name="v" unicode="v" horiz-adv-x="618" 
d="M287 -20l-273 927h160l133 -518h4l133 518h160l-272 -927h-45z" />
    <glyph glyph-name="w" unicode="w" horiz-adv-x="918" 
d="M258 -20l-246 927h162l115 -487h4l135 487h61l136 -487h4l114 487h162l-246 -927h-45l-153 544h-4l-154 -544h-45z" />
    <glyph glyph-name="x" unicode="x" horiz-adv-x="662" 
d="M31 0l209 463l-209 444h168l125 -289l118 289h164l-196 -444l219 -463h-168l-137 313l-125 -313h-168z" />
    <glyph glyph-name="y" unicode="y" horiz-adv-x="641" 
d="M72 -500l184 660l-240 747h166l148 -473h4l131 473h160l-394 -1407h-159z" />
    <glyph glyph-name="z" unicode="z" horiz-adv-x="575" 
d="M29 0l282 768h-256v139h477l-286 -768h293v-139h-510z" />
    <glyph glyph-name="braceleft" unicode="{" horiz-adv-x="684" 
d="M59 360v164c74 2 127 26 159 72s48 131.333 48 256v154c0 142.667 22.333 244.5 67 305.5s124 91.5 238 91.5h68v-152h-31c-72 0 -118.667 -13.167 -140 -39.5s-32 -83.5 -32 -171.5v-145c0 -141.333 -16.167 -244.5 -48.5 -309.5s-86.5 -112.833 -162.5 -143.5
c76 -30 130.167 -77.5 162.5 -142.5s48.5 -168.167 48.5 -309.5v-146c0 -87.333 10.667 -144.333 32 -171s68 -40 140 -40h31v-151h-68c-114 0 -193.333 30.5 -238 91.5s-67 162.833 -67 305.5v154c0 124.667 -16 210 -48 256s-85 69.667 -159 71z" />
    <glyph glyph-name="bar" unicode="|" horiz-adv-x="1079" 
d="M461 1368h160v-1921h-160v1921z" />
    <glyph glyph-name="braceright" unicode="}" horiz-adv-x="684" 
d="M627 524l-0.000976562 -164c-74 -1.33301 -127 -25 -159 -71s-48 -131.333 -48 -256v-154c0 -142.667 -22.333 -244.5 -67 -305.5s-124 -91.5 -238 -91.5h-68v151h29c72.667 0 119.834 13.667 141.501 41s32.5 84 32.5 170v146c0 141.333 16.167 244.5 48.5 309.5
s86.5 112.5 162.5 142.5c-76 30.667 -130.167 78.5 -162.5 143.5s-48.5 168.167 -48.5 309.5v145c0 88 -10.667 145.167 -32 171.5s-68 39.5 -140 39.5h-31v152h68c114 0 193.333 -30.5 238 -91.5s67 -162.833 67 -305.5v-154c0 -124.667 16 -210 48 -256s85 -70 159 -72z
" />
    <glyph glyph-name="asciitilde" unicode="~" horiz-adv-x="1343" 
d="M1212 846l0.000976562 -146c-101.333 -84.667 -195.333 -127 -282 -127c-67.333 0 -156.833 27 -268.5 81s-190.834 81 -237.501 81c-86.667 0 -184.334 -45.667 -293.001 -137v143c106.667 83.333 204.334 125 293.001 125c66.667 0 154.5 -26.833 263.5 -80.5
s187.833 -80.5 236.5 -80.5c86.667 0 182.667 47 288 141z" />
    <glyph glyph-name="uni00A0" unicode="&#xa0;" horiz-adv-x="682" 
 />
    <glyph glyph-name="exclamdown" unicode="&#xa1;" horiz-adv-x="362" 
d="M293 819c0 -30 -11.167 -55.833 -33.5 -77.5s-48.833 -32.5 -79.5 -32.5s-56.667 10.667 -78 32s-32 47.333 -32 78s10.833 57.167 32.5 79.5s47.5 33.5 77.5 33.5c30.667 0 57.167 -11.167 79.5 -33.5s33.5 -48.833 33.5 -79.5zM285 -219c0 -165.333 -35 -248 -105 -248
c-69.333 0 -104 82.667 -104 248c0 132.667 12.5 289.334 37.5 470.001s47.167 271 66.5 271c20 0 42.5 -90.333 67.5 -271s37.5 -337.334 37.5 -470.001z" />
    <glyph glyph-name="cent" unicode="&#xa2;" horiz-adv-x="575" 
d="M326 -221l-0.000976562 204.998c-80.667 22.667 -144.167 76.334 -190.5 161.001s-69.5 185 -69.5 301c0 122 23 226.333 69 313s109.667 141.667 191 165v157h116v-153c36.667 -8 67.667 -17.667 93 -29v-164c-46 28.667 -85.667 43 -119 43
c-58 0 -103.667 -29 -137 -87s-50 -138 -50 -240c0 -98 18.333 -175.5 55 -232.5s85.334 -85.5 146.001 -85.5c40.667 0 80.334 15 119.001 45v-153c-34.667 -23.333 -70.334 -37.666 -107.001 -42.999v-203h-116z" />
    <glyph glyph-name="sterling" unicode="&#xa3;" horiz-adv-x="748" 
d="M129 -23l74 615h-86v160h106c32.667 236 78.667 400.5 138 493.5s157.333 139.833 294 140.5l47 -157c-98.667 7.33301 -167 -21.5 -205 -86.5s-70.667 -195.167 -98 -390.5h117v-160h-143l-47 -426c8 1.33301 18.667 2 32 2c38 0 79.833 -6.16699 125.5 -18.5
s79.167 -18.5 100.5 -18.5c37.333 0 80.333 10.333 129 31v-158c-46.667 -19.333 -94.667 -29 -144 -29c-29.333 0 -76 8 -140 24s-110.667 24 -140 24c-52.667 0 -102 -15.333 -148 -46h-12z" />
    <glyph glyph-name="currency" unicode="&#xa4;" horiz-adv-x="1366" 
d="M414 1026c83.333 58.667 173.333 87.999 270 87.999c98 0 188 -29.333 270 -88l127 127l93 -92l-130 -129c60.667 -75.333 91 -164.666 91 -267.999c0 -104.667 -30.333 -194.334 -91 -269.001l130 -129l-93 -92l-129 129c-72.667 -60 -162 -90 -268 -90
c-102.667 0 -192 30 -268 90l-129 -129l-92 92l129 129c-60.667 72.667 -91 162.334 -91 269.001c0 102 29.667 192 89 270l-127 127l92 92zM1010 663.999c0 89.333 -31.833 165.833 -95.5 229.5s-140.5 95.5 -230.5 95.5c-89.333 0 -166 -31.833 -230 -95.5
s-96 -140.167 -96 -229.5c0 -90 32 -166.833 96 -230.5s140.667 -95.5 230 -95.5c90 0 166.833 31.833 230.5 95.5s95.5 140.5 95.5 230.5z" />
    <glyph glyph-name="yen" unicode="&#xa5;" horiz-adv-x="641" 
d="M233 299h-251v119h251v141h-251v119h235l-201 690h183l125 -539l122 539h181l-201 -690h233v-119h-249v-141h249v-119h-249v-299h-177v299z" />
    <glyph glyph-name="brokenbar" unicode="&#xa6;" horiz-adv-x="1079" 
d="M461 1368h160v-790h-160v790zM461 238h160v-791h-160v791z" />
    <glyph glyph-name="section" unicode="&#xa7;" horiz-adv-x="705" 
d="M528 76c48 -86.667 72.002 -166.669 72.002 -240.002c0 -92.667 -28.833 -172.167 -86.5 -238.5s-126.5 -99.5 -206.5 -99.5c-61.333 0 -113.833 18.333 -157.5 55s-65.5 80.667 -65.5 132c0 29.333 9.5 54 28.5 74s42.167 30 69.5 30c28 0 50.667 -8.33301 68 -25
s26 -37.667 26 -63c0 -5.33301 -1.33301 -13.666 -4 -24.999s-4 -19.333 -4 -24c0 -20.667 17 -31 51 -31c34.667 0 65.667 17.5 93 52.5s41 74.833 41 119.5c0 43.333 -11 89.5 -33 138.5s-76.167 122.667 -162.5 221s-141 173.666 -164 225.999s-34.5 101.5 -34.5 147.5
c0 110 37.667 203 113 279c-49.333 85.333 -74 166 -74 242c0 92 28.5 170.833 85.5 236.5s124.833 98.5 203.5 98.5c62.667 0 116.167 -18 160.5 -54s66.5 -79.333 66.5 -130c0 -31.333 -9.83301 -57.166 -29.5 -77.499s-44.5 -30.5 -74.5 -30.5
c-25.333 0 -46.333 8.16699 -63 24.5s-25 36.833 -25 61.5c0 6 1.66699 15.833 5 29.5s5 22.834 5 27.501c0 18 -15 27 -45 27c-38.667 0 -71.5 -17.167 -98.5 -51.5s-40.5 -76.166 -40.5 -125.499c0 -42.667 11.167 -88.834 33.5 -138.501s76.666 -123.5 162.999 -221.5
s140.666 -172.167 162.999 -222.5s33.5 -97.166 33.5 -140.499c0 -100.667 -37.667 -195.334 -113 -284.001zM248.002 689.998c-31.333 -43.333 -46.999 -87 -46.999 -131c0 -28.667 7.83301 -59.834 23.5 -93.501s51.667 -81.5 108 -143.5s95.166 -106 116.499 -132
c32.667 47.333 49 92 49 134c0 26.667 -6.83301 54.834 -20.5 84.501s-49 76 -106 139s-98.167 110.5 -123.5 142.5z" />
    <glyph glyph-name="dieresis" unicode="&#xa8;" horiz-adv-x="682" 
d="M373 1206c0 25.333 9.16699 47 27.5 65s40.5 27 66.5 27c25.333 0 47 -9 65 -27s27 -39.667 27 -65s-9 -47.333 -27 -66s-39.667 -28 -65 -28s-47.333 9.33301 -66 28s-28 40.667 -28 66zM125 1206c0 25.333 9.33301 47 28 65s40.667 27 66 27s47 -9 65 -27
s27 -39.667 27 -65s-9 -47.333 -27 -66s-39.667 -28 -65 -28s-47.333 9.33301 -66 28s-28 40.667 -28 66z" />
    <glyph glyph-name="copyright" unicode="&#xa9;" horiz-adv-x="1511" 
d="M0 737c0 208 73.999 385.667 221.999 533s326 221 534 221s385.5 -73.667 532.5 -221s220.5 -325 220.5 -533s-73.667 -385.833 -221 -533.5s-324.666 -221.5 -531.999 -221.5c-208 0 -386 73.833 -534 221.5s-222 325.5 -222 533.5zM1386 737
c0 173.333 -61.667 321.5 -185 444.5s-271.666 184.5 -444.999 184.5s-321.5 -61.5 -444.5 -184.5s-184.5 -271.167 -184.5 -444.5s61.5 -321.833 184.5 -445.5s271.167 -185.5 444.5 -185.5s321.666 61.833 444.999 185.5s185 272.167 185 445.5zM996.999 614
l122.999 -36.001c-21.333 -87.333 -64.5 -155 -129.5 -203s-143.167 -72 -234.5 -72c-120 0 -216 39 -288 117s-108 182.333 -108 313c0 132 36.167 236 108.5 312s170.833 114 295.5 114c179.333 0 293.333 -78.333 342 -235l-119 -29c-42 102.667 -117.667 154 -227 154
c-79.333 0 -143.166 -29 -191.499 -87s-72.5 -135 -72.5 -231c0 -95.333 22.667 -170.666 68 -225.999s107.333 -83 186 -83c128.667 0 211 64 247 192z" />
    <glyph glyph-name="ordfeminine" unicode="&#xaa;" horiz-adv-x="426" 
d="M428 950v-105.997c-36 -31.333 -66 -47 -90 -47c-34.667 0 -61.334 18.333 -80.001 55c-37.333 -38 -72.666 -57 -105.999 -57c-34.667 0 -64.5 14.667 -89.5 44s-37.5 64.333 -37.5 105c0 49.333 18.333 90.666 55 123.999s92 67.666 166 102.999v41
c0 38.667 -15.667 58 -47 58c-41.333 0 -94.666 -35.667 -159.999 -107v148c58 50 113.333 75 166 75c49.333 0 89.666 -14.333 120.999 -43s47 -67.334 47 -116.001v-295c0 -14.667 3.66699 -22 11 -22c10 0 24.667 13.333 44 40zM246 961.003v114
c-64 -42 -96 -81 -96 -117c0 -32.667 12.667 -49 38 -49c18.667 0 38 17.333 58 52z" />
    <glyph glyph-name="guillemotleft" unicode="&#xab;" horiz-adv-x="748" 
d="M524 453l156 -478h-141l-160 478l160 477h141zM209 453l156 -478h-142l-160 478l160 477h142z" />
    <glyph glyph-name="logicalnot" unicode="&#xac;" horiz-adv-x="1366" 
d="M199 1030h968v-612h-170v442h-798v170z" />
    <glyph glyph-name="uni00AD" unicode="&#xad;" horiz-adv-x="618" 
d="M59 373v172h371v-172h-371z" />
    <glyph glyph-name="registered" unicode="&#xae;" horiz-adv-x="1511" 
d="M0 737c0 208 73.999 385.667 221.999 533s326 221 534 221s385.5 -73.667 532.5 -221s220.5 -325 220.5 -533s-73.667 -385.833 -221 -533.5s-324.666 -221.5 -531.999 -221.5c-208 0 -386 73.833 -534 221.5s-222 325.5 -222 533.5zM1386 737
c0 173.333 -61.667 321.5 -185 444.5s-271.666 184.5 -444.999 184.5s-321.5 -61.5 -444.5 -184.5s-184.5 -271.167 -184.5 -444.5s61.5 -321.833 184.5 -445.5s271.167 -185.5 444.5 -185.5s321.666 61.833 444.999 185.5s185 272.167 185 445.5zM423.999 319v811h344
c91.333 0 161.333 -20.5 210 -61.5s73 -94.167 73 -159.5c0 -58.667 -21.167 -109.5 -63.5 -152.5s-98.5 -67.167 -168.5 -72.5v-4c48.667 -12 111.667 -79.667 189 -203l98 -158h-160l-72 127c-46 82 -83.667 138.833 -113 170.5s-72 47.5 -128 47.5h-78v-345h-131z
M554.999 776h197c106 0 159 41 159 123c0 80.667 -52.333 121 -157 121h-199v-244z" />
    <glyph glyph-name="uni00AF" unicode="&#xaf;" horiz-adv-x="1024" 
d="M-12 1632h1048v-102h-1048v102z" />
    <glyph glyph-name="degree" unicode="&#xb0;" horiz-adv-x="819" 
d="M131 1214c0 76.667 27.333 142 82 196s120.334 81 197.001 81c76 0 141 -27 195 -81s81 -119.333 81 -196c0 -76 -27 -141.333 -81 -196s-119 -82 -195 -82c-76.667 0 -142.334 27.333 -197.001 82s-82 120 -82 196zM580 1214c0 46.667 -16.6689 86.332 -50.002 118.999
s-73.333 49 -120 49c-47.333 0 -87.166 -16.167 -119.499 -48.5s-48.5 -72.166 -48.5 -119.499c0 -46.667 16.333 -86.667 49 -120s72.334 -50 119.001 -50s86.667 16.667 120 50s50 73.333 50 120z" />
    <glyph glyph-name="plusminus" unicode="&#xb1;" horiz-adv-x="1366" 
d="M199 829h399v400h170v-400h399v-170h-399v-399h-170v399h-399v170zM199 168h968v-170h-968v170z" />
    <glyph glyph-name="twosuperior" unicode="&#xb2;" horiz-adv-x="449" 
d="M10 672v30.001c140.667 192 211 345.667 211 461c0 67.333 -30.667 101 -92 101c-20.667 0 -54.667 -9.66699 -102 -29v119c50 18.667 93 28 129 28c60 0 107.667 -18.333 143 -55s53 -86.334 53 -149.001c0 -57.333 -13.167 -115.333 -39.5 -174s-65.5 -132 -117.5 -220
h176v-112h-361z" />
    <glyph glyph-name="threesuperior" unicode="&#xb3;" horiz-adv-x="449" 
d="M33 682l-0.00195312 117c42 -18 75.333 -27 100 -27c62.667 0 94 35.667 94 107c0 66 -34.667 102 -104 108v113c64 5.33301 96 34 96 86c0 57.333 -28 86 -84 86c-21.333 0 -49.333 -9 -84 -27v117c38 13.333 73 20 105 20c54.667 0 100.334 -17.333 137.001 -52
s55 -78 55 -130c0 -64.667 -32.667 -115 -98 -151c73.333 -38 110 -97.667 110 -179c0 -58 -20.667 -108 -62 -150s-90.666 -63 -147.999 -63c-33.333 0 -72.333 8.33301 -117 25z" />
    <glyph glyph-name="acute" unicode="&#xb4;" horiz-adv-x="682" 
d="M272 1055l43 299h195l-145 -299h-93z" />
    <glyph glyph-name="uni00B5" unicode="&#xb5;" horiz-adv-x="1139" 
d="M305 907h160v-602c0 -96.667 34.667 -145 104 -145c70 0 105 48.333 105 145v602h160v-907h-160v82h-4c-11.333 -65.333 -45 -98 -101 -98c-17.333 0 -37.333 8 -60 24s-36 40 -40 72h-4v-420h-160v1247z" />
    <glyph glyph-name="paragraph" unicode="&#xb6;" horiz-adv-x="1102" 
d="M569 -408h-170.001v1045c-127.333 8 -226.333 49 -297 123s-106 169.667 -106 287c0 124 39.833 224.833 119.5 302.5s183.834 116.5 312.501 116.5h674v-174h-144v-1700h-170v1700h-219v-1700z" />
    <glyph glyph-name="uni00B7" unicode="&#xb7;" horiz-adv-x="362" 
d="M70 682c0 30.667 11 56.834 33 78.501s48.333 32.5 79 32.5s56.834 -10.833 78.501 -32.5s32.5 -47.834 32.5 -78.501s-10.833 -57.167 -32.5 -79.5s-47.834 -33.5 -78.501 -33.5s-57 11.167 -79 33.5s-33 48.833 -33 79.5z" />
    <glyph glyph-name="uni00B7" unicode="&#x2219;" horiz-adv-x="362" 
d="M70 682c0 30.667 11 56.834 33 78.501s48.333 32.5 79 32.5s56.834 -10.833 78.501 -32.5s32.5 -47.834 32.5 -78.501s-10.833 -57.167 -32.5 -79.5s-47.834 -33.5 -78.501 -33.5s-57 11.167 -79 33.5s-33 48.833 -33 79.5z" />
    <glyph glyph-name="cedilla" unicode="&#xb8;" horiz-adv-x="682" 
d="M168 -500v113.001c146 0 219 39.667 219 119c0 56 -39 87.333 -117 94l78 182h137l-49 -114c76.667 -20.667 115 -71.334 115 -152.001c0 -76 -33.167 -135.333 -99.5 -178s-160.833 -64 -283.5 -64z" />
    <glyph glyph-name="onesuperior" unicode="&#xb9;" horiz-adv-x="449" 
d="M160 672v704h129v-704h-129z" />
    <glyph glyph-name="ordmasculine" unicode="&#xba;" horiz-adv-x="449" 
d="M223 795c-57.333 0 -103.999 26.5 -139.999 79.5s-54 123.167 -54 210.5c0 93.333 17.667 166.833 53 220.5s83 80.5 143 80.5c59.333 0 106.333 -26.667 141 -80s52 -126.333 52 -219c0 -89.333 -17.833 -160.333 -53.5 -213s-82.834 -79 -141.501 -79zM225.001 1266
c-44.667 0 -67 -58 -67 -174c0 -119.333 21.667 -179 65 -179c44 0 66 59.667 66 179c0 116 -21.333 174 -64 174z" />
    <glyph glyph-name="guillemotright" unicode="&#xbb;" horiz-adv-x="748" 
d="M539 453l-156 477h141l160 -477l-160 -478h-141zM223 453l-155 477h141l160 -477l-160 -478h-141z" />
    <glyph glyph-name="onequarter" unicode="&#xbc;" horiz-adv-x="1237" 
d="M201 -61l702 1447h125l-698 -1447h-129zM209 672v704h129v-704h-129zM969 0v186h-209v95l221 432h117v-439h43v-88h-43v-186h-129zM969 274v207h-4l-103 -207h107z" />
    <glyph glyph-name="onehalf" unicode="&#xbd;" horiz-adv-x="1237" 
d="M152 -61l702 1447h125l-698 -1447h-129zM217 672v704h129v-704h-129zM743 0v31c140.667 191.333 211 345 211 461c0 66.667 -30.667 100 -92 100c-20.667 0 -54.667 -9.66699 -102 -29v119c50 19.333 93 29 129 29c60.667 0 108.5 -18.333 143.5 -55
s52.5 -86.667 52.5 -150c0 -57.333 -13.167 -115.333 -39.5 -174s-65.5 -131.667 -117.5 -219h176v-113h-361z" />
    <glyph glyph-name="threequarters" unicode="&#xbe;" horiz-adv-x="1237" 
d="M201 -61l702 1447h125l-698 -1447h-129zM90 682v117c42 -18 75.333 -27 100 -27c63.333 0 95 35.667 95 107c0 66 -35 102 -105 108v113c64 5.33301 96 34 96 86c0 57.333 -27.667 86 -83 86c-22 0 -50 -9 -84 -27v117c37.333 13.333 72 20 104 20
c55.333 0 101.333 -17.333 138 -52s55 -78 55 -130c0 -64.667 -33 -115 -99 -151c74 -38 111 -97.667 111 -179c0 -58 -20.667 -108 -62 -150s-91 -63 -149 -63c-32.667 0 -71.667 8.33301 -117 25zM969 0v186h-211v95l223 432h117v-439h43v-88h-43v-186h-129zM969 274v207
h-4l-103 -207h107z" />
    <glyph glyph-name="questiondown" unicode="&#xbf;" horiz-adv-x="512" 
d="M393 819c0 -30 -11 -55.833 -33 -77.5s-48.333 -32.5 -79 -32.5s-56.834 10.667 -78.501 32s-32.5 47.333 -32.5 78s10.833 57.167 32.5 79.5s47.834 33.5 78.501 33.5c30 0 56.167 -11.167 78.5 -33.5s33.5 -48.833 33.5 -79.5zM446 -270l-127.004 -196.998
c-89.333 7.33301 -159.333 37.666 -210 90.999s-76 120.666 -76 201.999c0 38 7.5 80.167 22.5 126.5s53.333 120.5 115 222.5s100.834 180.667 117.501 236s24.334 106 23.001 152c71.333 -34 107 -94 107 -180c0 -38 -6.66699 -79.833 -20 -125.5
s-46.166 -114.5 -98.499 -206.5s-78.5 -161.667 -78.5 -209c0 -34 12.333 -63.667 37 -89s54 -38 88 -38c24.667 0 53.334 9 86.001 27z" />
    <glyph glyph-name="Agrave" unicode="&#xc0;" 
d="M14 0l258 1376h183l256 -1376h-170l-49 303h-254l-54 -303h-170zM264 467h197l-96 573h-5zM433 1464h-93l-145 299h195z" />
    <glyph glyph-name="Aacute" unicode="&#xc1;" 
d="M14 0l258 1376h183l256 -1376h-170l-49 303h-254l-54 -303h-170zM264 467h197l-96 573h-5zM295 1464l43 299h195l-145 -299h-93z" />
    <glyph glyph-name="Acircumflex" unicode="&#xc2;" 
d="M14 0l258 1376h183l256 -1376h-170l-49 303h-254l-54 -303h-170zM264 467h197l-96 573h-5zM152 1460l113 307h198l113 -307h-92l-119 198l-121 -198h-92z" />
    <glyph glyph-name="Atilde" unicode="&#xc3;" 
d="M14 0l258 1376h183l256 -1376h-170l-49 303h-254l-54 -303h-170zM264 467h197l-96 573h-5zM73 1505c-6 68 5.33105 121.5 33.998 160.5s71.334 58.5 128.001 58.5c34 0 80.333 -9.16699 139 -27.5s98.334 -27.5 119.001 -27.5c34.667 0 58.667 18.333 72 55h88
c2 -14 3 -27.667 3 -41c0 -53.333 -15.5 -96.333 -46.5 -129s-69.167 -49 -114.5 -49c-28.667 0 -70.5 9.83301 -125.5 29.5s-92.167 29.5 -111.5 29.5c-46 0 -77 -19.667 -93 -59h-92z" />
    <glyph glyph-name="Adieresis" unicode="&#xc4;" 
d="M14 0l258 1376h183l256 -1376h-170l-49 303h-254l-54 -303h-170zM264 467h197l-96 573h-5zM395 1616c0 25.333 9.16699 47 27.5 65s40.5 27 66.5 27c25.333 0 47 -9 65 -27s27 -39.667 27 -65s-9 -47.333 -27 -66s-39.667 -28 -65 -28s-47.333 9.33301 -66 28
s-28 40.667 -28 66zM147 1616c0 25.333 9.33301 47 28 65s40.667 27 66 27s47 -9 65 -27s27 -39.667 27 -65s-9 -47.333 -27 -66s-39.667 -28 -65 -28s-47.333 9.33301 -66 28s-28 40.667 -28 66z" />
    <glyph glyph-name="Aring" unicode="&#xc5;" 
d="M14 0l258 1376h183l256 -1376h-170l-49 303h-254l-54 -303h-170zM264 467h197l-96 573h-5zM205 1619c0 44 15.667 81.334 47 112.001s69 46 113 46s81.333 -15.333 112 -46s46 -68 46 -112s-15.5 -81.5 -46.5 -112.5s-68.167 -46.5 -111.5 -46.5
c-44 0 -81.667 15.667 -113 47s-47 68.666 -47 111.999zM463 1619c0 28 -9.5 51.5 -28.5 70.5s-42.167 28.5 -69.5 28.5s-50.5 -9.5 -69.5 -28.5s-28.5 -42.5 -28.5 -70.5c0 -27.333 9.5 -50.5 28.5 -69.5s42.167 -28.5 69.5 -28.5s50.5 9.5 69.5 28.5
s28.5 42.167 28.5 69.5z" />
    <glyph glyph-name="AE" unicode="&#xc6;" horiz-adv-x="1024" 
d="M12 0l289 1368h660v-164h-310v-405h287v-164h-287v-471h328v-164h-504v541h-190l-115 -541h-158zM315 705h160v583h-41z" />
    <glyph glyph-name="Ccedilla" unicode="&#xc7;" horiz-adv-x="682" 
d="M250 -174l76.0039 176.001c-173.333 73.333 -260 298 -260 674c0 222.667 32.167 396.667 96.5 522s156.166 188 275.499 188c57.333 0 120.333 -23.667 189 -71v-178c-58.667 57.333 -117.334 86 -176.001 86c-70.667 0 -121.834 -41.5 -153.501 -124.5
s-47.5 -221.167 -47.5 -414.5c0 -191.333 16 -329 48 -413s85 -126 159 -126c50.667 0 112.667 33 186 99v-185c-64.667 -49.333 -127.334 -74.333 -188.001 -75l-39 -90c76 -20.667 114 -71.334 114 -152.001c0 -76 -33 -135.333 -99 -178s-160.667 -64 -284 -64v113
c146.667 0 220 39.667 220 119c0 56 -39 87.333 -117 94z" />
    <glyph glyph-name="Egrave" unicode="&#xc8;" horiz-adv-x="745" 
d="M119 0v1368h487v-164h-311v-409h285v-164h-285v-467h328v-164h-504zM443 1464h-93l-145 299h195z" />
    <glyph glyph-name="Eacute" unicode="&#xc9;" horiz-adv-x="745" 
d="M119 0v1368h487v-164h-311v-409h285v-164h-285v-467h328v-164h-504zM305 1464l43 299h195l-145 -299h-93z" />
    <glyph glyph-name="Ecircumflex" unicode="&#xca;" horiz-adv-x="745" 
d="M119 0v1368h487v-164h-311v-409h285v-164h-285v-467h328v-164h-504zM162 1460l113 307h198l113 -307h-92l-119 198l-121 -198h-92z" />
    <glyph glyph-name="Edieresis" unicode="&#xcb;" horiz-adv-x="745" 
d="M119 0v1368h487v-164h-311v-409h285v-164h-285v-467h328v-164h-504zM406 1616c0 25.333 9.16699 47 27.5 65s40.5 27 66.5 27c25.333 0 47 -9 65 -27s27 -39.667 27 -65s-9 -47.333 -27 -66s-39.667 -28 -65 -28s-47.333 9.33301 -66 28s-28 40.667 -28 66zM158 1616
c0 25.333 9.33301 47 28 65s40.667 27 66 27s47 -9 65 -27s27 -39.667 27 -65s-9 -47.333 -27 -66s-39.667 -28 -65 -28s-47.333 9.33301 -66 28s-28 40.667 -28 66z" />
    <glyph glyph-name="Igrave" unicode="&#xcc;" horiz-adv-x="406" 
d="M115 0v1368h176v-1368h-176zM273 1464h-93l-145 299h195z" />
    <glyph glyph-name="Iacute" unicode="&#xcd;" horiz-adv-x="406" 
d="M115 0v1368h176v-1368h-176zM135 1464l43 299h195l-145 -299h-93z" />
    <glyph glyph-name="Icircumflex" unicode="&#xce;" horiz-adv-x="406" 
d="M115 0v1368h176v-1368h-176zM-8 1460l113 307h198l113 -307h-92l-119 198l-121 -198h-92z" />
    <glyph glyph-name="Idieresis" unicode="&#xcf;" horiz-adv-x="406" 
d="M115 0v1368h176v-1368h-176zM236 1616c0 25.333 9.16699 47 27.5 65s40.5 27 66.5 27c25.333 0 47 -9 65 -27s27 -39.667 27 -65s-9 -47.333 -27 -66s-39.667 -28 -65 -28s-47.333 9.33301 -66 28s-28 40.667 -28 66zM-12 1616c0 25.333 9.33301 47 28 65
s40.667 27 66 27s47 -9 65 -27s27 -39.667 27 -65s-9 -47.333 -27 -66s-39.667 -28 -65 -28s-47.333 9.33301 -66 28s-28 40.667 -28 66z" />
    <glyph glyph-name="Eth" unicode="&#xd0;" horiz-adv-x="854" 
d="M113 0l0.000976562 625h-113v123h113v620h194c312.667 0 469 -227.333 469 -682c0 -227.333 -38.833 -398.5 -116.5 -513.5s-186.834 -172.5 -327.501 -172.5h-219zM289.001 164h26c104 0 177.5 39.833 220.5 119.5s64.5 211.167 64.5 394.5
c0 191.333 -20.333 326.833 -61 406.5s-114 119.5 -220 119.5h-30v-456h170v-123h-170v-461z" />
    <glyph glyph-name="Ntilde" unicode="&#xd1;" horiz-adv-x="854" 
d="M121 0v1368h143l303 -844h4v844h162v-1368h-143l-303 852h-4v-852h-162zM137 1505c-6 68 5.33105 121.5 33.998 160.5s71.334 58.5 128.001 58.5c34 0 80.333 -9.16699 139 -27.5s98.334 -27.5 119.001 -27.5c34.667 0 58.667 18.333 72 55h88c2 -14 3 -27.667 3 -41
c0 -53.333 -15.5 -96.333 -46.5 -129s-69.167 -49 -114.5 -49c-28.667 0 -70.5 9.83301 -125.5 29.5s-92.167 29.5 -111.5 29.5c-46 0 -77 -19.667 -93 -59h-92z" />
    <glyph glyph-name="Ograve" unicode="&#xd2;" horiz-adv-x="874" 
d="M438 -18c-108 0 -195.999 62.501 -263.999 187.501s-102 296.5 -102 514.5c0 206 32.167 374.5 96.5 505.5s154.166 196.5 269.499 196.5c112 0 201.167 -65.333 267.5 -196s99.5 -299.334 99.5 -506.001c0 -220 -35 -392 -105 -516s-157.333 -186 -262 -186z
M436.001 1223c-58 0 -102.5 -47.833 -133.5 -143.5s-46.5 -227.5 -46.5 -395.5c0 -174 16 -307.333 48 -400s77.333 -139 136 -139c56 0 100.167 47.333 132.5 142s48.5 227 48.5 397c0 172.667 -16.333 305.667 -49 399s-78 140 -136 140zM506.001 1464h-93l-145 299h195z
" />
    <glyph glyph-name="Oacute" unicode="&#xd3;" horiz-adv-x="874" 
d="M438 -18c-108 0 -195.999 62.501 -263.999 187.501s-102 296.5 -102 514.5c0 206 32.167 374.5 96.5 505.5s154.166 196.5 269.499 196.5c112 0 201.167 -65.333 267.5 -196s99.5 -299.334 99.5 -506.001c0 -220 -35 -392 -105 -516s-157.333 -186 -262 -186z
M436.001 1223c-58 0 -102.5 -47.833 -133.5 -143.5s-46.5 -227.5 -46.5 -395.5c0 -174 16 -307.333 48 -400s77.333 -139 136 -139c56 0 100.167 47.333 132.5 142s48.5 227 48.5 397c0 172.667 -16.333 305.667 -49 399s-78 140 -136 140zM369.001 1464l43 299h195
l-145 -299h-93z" />
    <glyph glyph-name="Ocircumflex" unicode="&#xd4;" horiz-adv-x="874" 
d="M438 -18c-108 0 -195.999 62.501 -263.999 187.501s-102 296.5 -102 514.5c0 206 32.167 374.5 96.5 505.5s154.166 196.5 269.499 196.5c112 0 201.167 -65.333 267.5 -196s99.5 -299.334 99.5 -506.001c0 -220 -35 -392 -105 -516s-157.333 -186 -262 -186z
M436.001 1223c-58 0 -102.5 -47.833 -133.5 -143.5s-46.5 -227.5 -46.5 -395.5c0 -174 16 -307.333 48 -400s77.333 -139 136 -139c56 0 100.167 47.333 132.5 142s48.5 227 48.5 397c0 172.667 -16.333 305.667 -49 399s-78 140 -136 140zM225.001 1460l113 307h198
l113 -307h-92l-119 198l-121 -198h-92z" />
    <glyph glyph-name="Otilde" unicode="&#xd5;" horiz-adv-x="874" 
d="M438 -18c-108 0 -195.999 62.501 -263.999 187.501s-102 296.5 -102 514.5c0 206 32.167 374.5 96.5 505.5s154.166 196.5 269.499 196.5c112 0 201.167 -65.333 267.5 -196s99.5 -299.334 99.5 -506.001c0 -220 -35 -392 -105 -516s-157.333 -186 -262 -186z
M436.001 1223c-58 0 -102.5 -47.833 -133.5 -143.5s-46.5 -227.5 -46.5 -395.5c0 -174 16 -307.333 48 -400s77.333 -139 136 -139c56 0 100.167 47.333 132.5 142s48.5 227 48.5 397c0 172.667 -16.333 305.667 -49 399s-78 140 -136 140zM147.001 1505
c-6 68 5.33105 121.5 33.998 160.5s71.334 58.5 128.001 58.5c34 0 80.333 -9.16699 139 -27.5s98.334 -27.5 119.001 -27.5c34.667 0 58.667 18.333 72 55h88c2 -14 3 -27.667 3 -41c0 -53.333 -15.5 -96.333 -46.5 -129s-69.167 -49 -114.5 -49
c-28.667 0 -70.5 9.83301 -125.5 29.5s-92.167 29.5 -111.5 29.5c-46 0 -77 -19.667 -93 -59h-92z" />
    <glyph glyph-name="Odieresis" unicode="&#xd6;" horiz-adv-x="874" 
d="M438 -18c-108 0 -195.999 62.501 -263.999 187.501s-102 296.5 -102 514.5c0 206 32.167 374.5 96.5 505.5s154.166 196.5 269.499 196.5c112 0 201.167 -65.333 267.5 -196s99.5 -299.334 99.5 -506.001c0 -220 -35 -392 -105 -516s-157.333 -186 -262 -186z
M436.001 1223c-58 0 -102.5 -47.833 -133.5 -143.5s-46.5 -227.5 -46.5 -395.5c0 -174 16 -307.333 48 -400s77.333 -139 136 -139c56 0 100.167 47.333 132.5 142s48.5 227 48.5 397c0 172.667 -16.333 305.667 -49 399s-78 140 -136 140zM469.001 1616
c0 25.333 9.16699 47 27.5 65s40.5 27 66.5 27c25.333 0 47 -9 65 -27s27 -39.667 27 -65s-9 -47.333 -27 -66s-39.667 -28 -65 -28s-47.333 9.33301 -66 28s-28 40.667 -28 66zM221.001 1616c0 25.333 9.33301 47 28 65s40.667 27 66 27s47 -9 65 -27s27 -39.667 27 -65
s-9 -47.333 -27 -66s-39.667 -28 -65 -28s-47.333 9.33301 -66 28s-28 40.667 -28 66z" />
    <glyph glyph-name="multiply" unicode="&#xd7;" horiz-adv-x="1368" 
d="M256 1051l104 104l324 -324l324 324l104 -104l-324 -324l324 -324l-104 -104l-324 324l-324 -324l-104 104l324 324z" />
    <glyph glyph-name="Oslash" unicode="&#xd8;" horiz-adv-x="874" 
d="M203 121l-72 -138.999l-98 53l108 207c-46 107.333 -69 254.666 -69 441.999c0 206 32.167 374.5 96.5 505.5s154.166 196.5 269.499 196.5c90.667 0 168 -45.667 232 -137l71 137l97 -51l-107 -205c49.333 -115.333 74 -264 74 -446c0 -220 -35 -392 -105 -516
s-157.333 -186 -262 -186c-91.333 0 -169.666 46.333 -234.999 139zM266 477.001l309 592c-28.667 102.667 -75 154 -139 154c-58 0 -102.5 -48 -133.5 -144s-46.5 -227.667 -46.5 -395l6 -207h4zM606 897.001l-307 -594c30 -105.333 77 -158 141 -158
c56 0 100.167 47.333 132.5 142s48.5 227 48.5 397c0 103.333 -3.66699 174.333 -11 213h-4z" />
    <glyph glyph-name="Ugrave" unicode="&#xd9;" horiz-adv-x="831" 
d="M111 1368h176v-1028c0 -130 43 -195 129 -195c38 0 69 16.333 93 49s36 78.667 36 138v1036h176v-1016c0 -120 -30.333 -211.667 -91 -275s-132 -95 -214 -95c-87.333 0 -160 33 -218 99s-87 151.667 -87 257v1030zM486 1464h-93l-145 299h195z" />
    <glyph glyph-name="Uacute" unicode="&#xda;" horiz-adv-x="831" 
d="M111 1368h176v-1028c0 -130 43 -195 129 -195c38 0 69 16.333 93 49s36 78.667 36 138v1036h176v-1016c0 -120 -30.333 -211.667 -91 -275s-132 -95 -214 -95c-87.333 0 -160 33 -218 99s-87 151.667 -87 257v1030zM348 1464l43 299h195l-145 -299h-93z" />
    <glyph glyph-name="Ucircumflex" unicode="&#xdb;" horiz-adv-x="831" 
d="M111 1368h176v-1028c0 -130 43 -195 129 -195c38 0 69 16.333 93 49s36 78.667 36 138v1036h176v-1016c0 -120 -30.333 -211.667 -91 -275s-132 -95 -214 -95c-87.333 0 -160 33 -218 99s-87 151.667 -87 257v1030zM205 1460l113 307h198l113 -307h-92l-119 198
l-121 -198h-92z" />
    <glyph glyph-name="Udieresis" unicode="&#xdc;" horiz-adv-x="831" 
d="M111 1368h176v-1028c0 -130 43 -195 129 -195c38 0 69 16.333 93 49s36 78.667 36 138v1036h176v-1016c0 -120 -30.333 -211.667 -91 -275s-132 -95 -214 -95c-87.333 0 -160 33 -218 99s-87 151.667 -87 257v1030zM449 1616c0 25.333 9.16699 47 27.5 65
s40.5 27 66.5 27c25.333 0 47 -9 65 -27s27 -39.667 27 -65s-9 -47.333 -27 -66s-39.667 -28 -65 -28s-47.333 9.33301 -66 28s-28 40.667 -28 66zM201 1616c0 25.333 9.33301 47 28 65s40.667 27 66 27s47 -9 65 -27s27 -39.667 27 -65s-9 -47.333 -27 -66
s-39.667 -28 -65 -28s-47.333 9.33301 -66 28s-28 40.667 -28 66z" />
    <glyph glyph-name="Yacute" unicode="&#xdd;" horiz-adv-x="641" 
d="M229 0v625l-215 743h181l118 -537h4l125 537h183l-219 -743v-625h-177zM252 1464l43 299h195l-145 -299h-93z" />
    <glyph glyph-name="Thorn" unicode="&#xde;" horiz-adv-x="768" 
d="M127 0v1368h176v-299h10c126 0 226.167 -33.833 300.5 -101.5s111.5 -160.834 111.5 -279.501c0 -120.667 -34.333 -215.667 -103 -285s-162.667 -104 -282 -104h-37v-299h-176zM303 463.001h31c143.333 0 215 78.333 215 235c0 142 -82 211 -246 207v-442z" />
    <glyph glyph-name="germandbls" unicode="&#xdf;" 
d="M94 0l-0.000976562 996.998c0 99.333 6.66699 172.833 20 220.5s41 87.667 83 120s92.333 48.5 151 48.5c80 0 144 -29.333 192 -88s72 -137 72 -235c0 -124.667 -43 -214 -129 -268c117.333 -40 176 -169.667 176 -389c0 -149.333 -24.5 -256.333 -73.5 -321
s-105.5 -97 -169.5 -97c-32 0 -59.333 6 -82 18v135c8.66699 -2.66699 20.334 -4 35.001 -4c45.333 0 77.833 23.667 97.5 71s29.5 123.333 29.5 228c0 100.667 -11.667 170.334 -35 209.001s-62.333 59.334 -117 62.001v145c79.333 3.33301 119 72.333 119 207
c0 132 -37.667 198 -113 198c-64 0 -96 -47 -96 -141v-1116h-160z" />
    <glyph glyph-name="agrave" unicode="&#xe0;" horiz-adv-x="682" 
d="M659 168v-121c-50 -44.667 -91.333 -67 -124 -67c-59.333 0 -98.333 38 -117 114c-58.667 -79.333 -116.667 -119 -174 -119c-47.333 0 -88.833 22.833 -124.5 68.5s-53.5 99.5 -53.5 161.5c0 71.333 25 132 75 182s140.333 112.667 271 188v87
c0 78.667 -31.667 118 -95 118c-64.667 0 -141 -49.667 -229 -149v184c81.333 78 162 117 242 117c66.667 0 123.5 -22 170.5 -66s70.5 -103.333 70.5 -178v-512c0 -35.333 8.33301 -53 25 -53c10 0 31 15 63 45zM412 231l-0.000976562 234
c-126 -76 -189 -154.667 -189 -236c0 -30 7.33301 -54.5 22 -73.5s33.334 -28.5 56.001 -28.5c28 0 53.5 15.167 76.5 45.5s34.5 49.833 34.5 58.5zM409.999 1055h-93l-145 299h195z" />
    <glyph glyph-name="aacute" unicode="&#xe1;" horiz-adv-x="682" 
d="M659 168v-121c-50 -44.667 -91.333 -67 -124 -67c-59.333 0 -98.333 38 -117 114c-58.667 -79.333 -116.667 -119 -174 -119c-47.333 0 -88.833 22.833 -124.5 68.5s-53.5 99.5 -53.5 161.5c0 71.333 25 132 75 182s140.333 112.667 271 188v87
c0 78.667 -31.667 118 -95 118c-64.667 0 -141 -49.667 -229 -149v184c81.333 78 162 117 242 117c66.667 0 123.5 -22 170.5 -66s70.5 -103.333 70.5 -178v-512c0 -35.333 8.33301 -53 25 -53c10 0 31 15 63 45zM412 231l-0.000976562 234
c-126 -76 -189 -154.667 -189 -236c0 -30 7.33301 -54.5 22 -73.5s33.334 -28.5 56.001 -28.5c28 0 53.5 15.167 76.5 45.5s34.5 49.833 34.5 58.5zM271.999 1055l43 299h195l-145 -299h-93z" />
    <glyph glyph-name="acircumflex" unicode="&#xe2;" horiz-adv-x="682" 
d="M659 168v-121c-50 -44.667 -91.333 -67 -124 -67c-59.333 0 -98.333 38 -117 114c-58.667 -79.333 -116.667 -119 -174 -119c-47.333 0 -88.833 22.833 -124.5 68.5s-53.5 99.5 -53.5 161.5c0 71.333 25 132 75 182s140.333 112.667 271 188v87
c0 78.667 -31.667 118 -95 118c-64.667 0 -141 -49.667 -229 -149v184c81.333 78 162 117 242 117c66.667 0 123.5 -22 170.5 -66s70.5 -103.333 70.5 -178v-512c0 -35.333 8.33301 -53 25 -53c10 0 31 15 63 45zM412 231l-0.000976562 234
c-126 -76 -189 -154.667 -189 -236c0 -30 7.33301 -54.5 22 -73.5s33.334 -28.5 56.001 -28.5c28 0 53.5 15.167 76.5 45.5s34.5 49.833 34.5 58.5zM128.999 1051l113 307h198l113 -307h-92l-119 198l-121 -198h-92z" />
    <glyph glyph-name="atilde" unicode="&#xe3;" horiz-adv-x="682" 
d="M668 168v-121c-50 -44.667 -91.333 -67 -124 -67c-59.333 0 -98.333 38 -117 114c-58.667 -79.333 -116.667 -119 -174 -119c-47.333 0 -88.833 22.833 -124.5 68.5s-53.5 99.5 -53.5 161.5c0 71.333 25 132 75 182s140.333 112.667 271 188v87
c0 78.667 -31.667 118 -95 118c-64.667 0 -141 -49.667 -229 -149v184c81.333 78 162 117 242 117c66.667 0 123.5 -22 170.5 -66s70.5 -103.333 70.5 -178v-512c0 -35.333 8.33301 -53 25 -53c10 0 31 15 63 45zM421 231l-0.000976562 234
c-126 -76 -189 -154.667 -189 -236c0 -30 7.33301 -54.5 22 -73.5s33.334 -28.5 56.001 -28.5c28 0 53.5 15.167 76.5 45.5s34.5 49.833 34.5 58.5zM59.999 1096c-6 68 5.33105 121.5 33.998 160.5s71.334 58.5 128.001 58.5c34 0 80.333 -9.16699 139 -27.5
s98.334 -27.5 119.001 -27.5c34.667 0 58.667 18.333 72 55h88c2 -14 3 -27.667 3 -41c0 -53.333 -15.5 -96.333 -46.5 -129s-69.167 -49 -114.5 -49c-28.667 0 -70.5 9.83301 -125.5 29.5s-92.167 29.5 -111.5 29.5c-46 0 -77 -19.667 -93 -59h-92z" />
    <glyph glyph-name="adieresis" unicode="&#xe4;" horiz-adv-x="682" 
d="M659 168v-121c-50 -44.667 -91.333 -67 -124 -67c-59.333 0 -98.333 38 -117 114c-58.667 -79.333 -116.667 -119 -174 -119c-47.333 0 -88.833 22.833 -124.5 68.5s-53.5 99.5 -53.5 161.5c0 71.333 25 132 75 182s140.333 112.667 271 188v87
c0 78.667 -31.667 118 -95 118c-64.667 0 -141 -49.667 -229 -149v184c81.333 78 162 117 242 117c66.667 0 123.5 -22 170.5 -66s70.5 -103.333 70.5 -178v-512c0 -35.333 8.33301 -53 25 -53c10 0 31 15 63 45zM412 231l-0.000976562 234
c-126 -76 -189 -154.667 -189 -236c0 -30 7.33301 -54.5 22 -73.5s33.334 -28.5 56.001 -28.5c28 0 53.5 15.167 76.5 45.5s34.5 49.833 34.5 58.5zM372.999 1206c0 25.333 9.16699 47 27.5 65s40.5 27 66.5 27c25.333 0 47 -9 65 -27s27 -39.667 27 -65s-9 -47.333 -27 -66
s-39.667 -28 -65 -28s-47.333 9.33301 -66 28s-28 40.667 -28 66zM124.999 1206c0 25.333 9.33301 47 28 65s40.667 27 66 27s47 -9 65 -27s27 -39.667 27 -65s-9 -47.333 -27 -66s-39.667 -28 -65 -28s-47.333 9.33301 -66 28s-28 40.667 -28 66z" />
    <glyph glyph-name="aring" unicode="&#xe5;" horiz-adv-x="682" 
d="M659 168v-121c-50 -44.667 -91.333 -67 -124 -67c-59.333 0 -98.333 38 -117 114c-58.667 -79.333 -116.667 -119 -174 -119c-47.333 0 -88.833 22.833 -124.5 68.5s-53.5 99.5 -53.5 161.5c0 71.333 25 132 75 182s140.333 112.667 271 188v87
c0 78.667 -31.667 118 -95 118c-64.667 0 -141 -49.667 -229 -149v184c81.333 78 162 117 242 117c66.667 0 123.5 -22 170.5 -66s70.5 -103.333 70.5 -178v-512c0 -35.333 8.33301 -53 25 -53c10 0 31 15 63 45zM412 231l-0.000976562 234
c-126 -76 -189 -154.667 -189 -236c0 -30 7.33301 -54.5 22 -73.5s33.334 -28.5 56.001 -28.5c28 0 53.5 15.167 76.5 45.5s34.5 49.833 34.5 58.5zM181.999 1210c0 44 15.667 81.334 47 112.001s69 46 113 46s81.333 -15.333 112 -46s46 -68 46 -112
s-15.5 -81.5 -46.5 -112.5s-68.167 -46.5 -111.5 -46.5c-44 0 -81.667 15.667 -113 47s-47 68.666 -47 111.999zM439.999 1210c0 28 -9.5 51.5 -28.5 70.5s-42.167 28.5 -69.5 28.5s-50.5 -9.5 -69.5 -28.5s-28.5 -42.5 -28.5 -70.5c0 -27.333 9.5 -50.5 28.5 -69.5
s42.167 -28.5 69.5 -28.5s50.5 9.5 69.5 28.5s28.5 42.167 28.5 69.5z" />
    <glyph glyph-name="ae" unicode="&#xe6;" horiz-adv-x="981" 
d="M92 643l0.000976562 177.999c74.667 74 155.334 111 242.001 111c77.333 0 138.666 -30 183.999 -90c41.333 60 93.333 90 156 90c85.333 0 149.5 -44.667 192.5 -134s60.833 -216 53.5 -380h-340c-12 -199.333 42.333 -299 163 -299c54.667 0 108 27.333 160 82v-148
c-54 -52 -116 -78 -186 -78c-108 0 -192 48.667 -252 146c-66.667 -97.333 -138.334 -146 -215.001 -146c-52.667 0 -96.5 21.5 -131.5 64.5s-52.5 97.5 -52.5 163.5c0 82.667 30 148.334 90 197.001s147.333 107 262 175c2.66699 22 4 42.333 4 61
c0 96 -34.333 144 -103 144c-74 0 -149.667 -45.667 -227 -137zM578.001 536.999h186c-1.33301 86 -9 150.167 -23 192.5s-38.333 63.5 -73 63.5c-66.667 0 -96.667 -85.333 -90 -256zM420.001 200.999l-0.000976562 264c-73.333 -43.333 -125.166 -81.5 -155.499 -114.5
s-45.5 -72.833 -45.5 -119.5c0 -74.667 29.333 -112 88 -112c40 0 77.667 27.333 113 82z" />
    <glyph glyph-name="ccedilla" unicode="&#xe7;" horiz-adv-x="575" 
d="M217 -174l74.001 173.999c-68 30.667 -121.5 86.5 -160.5 167.5s-58.5 173.833 -58.5 278.5c0 142.667 30.667 259.334 92 350.001s139 136 233 136c44.667 0 92.667 -11 144 -33v-164c-48 30 -87.667 45 -119 45c-56.667 0 -101.834 -29.5 -135.501 -88.5
s-50.5 -139.167 -50.5 -240.5c0 -99.333 18.333 -178.166 55 -236.499s85.667 -87.5 147 -87.5c36 0 75 17 117 51v-153c-47.333 -30 -92.333 -46 -135 -48l-37 -83c76.667 -20.667 115 -71.334 115 -152.001c0 -76 -33.167 -135.333 -99.5 -178s-160.833 -64 -283.5 -64
v113c146 0 219 39.667 219 119c0 56 -39 87.333 -117 94z" />
    <glyph glyph-name="egrave" unicode="&#xe8;" horiz-adv-x="641" 
d="M567 213l0.000976562 -158.002c-56.667 -53.333 -119 -80 -187 -80c-92 0 -163.333 41.333 -214 124s-76 201.334 -76 356.001c0 150.667 22.167 267.834 66.5 351.501s106.166 125.5 185.499 125.5c165.333 0 246.333 -171.333 243 -514h-336
c0 -196.667 54 -295 162 -295c58.667 0 110.667 30 156 90zM247.001 536.998h179c0 170.667 -31 256 -93 256c-57.333 0 -86 -85.333 -86 -256zM410.001 1055h-93l-145 299h195z" />
    <glyph glyph-name="eacute" unicode="&#xe9;" horiz-adv-x="641" 
d="M567 213l0.000976562 -158.002c-56.667 -53.333 -119 -80 -187 -80c-92 0 -163.333 41.333 -214 124s-76 201.334 -76 356.001c0 150.667 22.167 267.834 66.5 351.501s106.166 125.5 185.499 125.5c165.333 0 246.333 -171.333 243 -514h-336
c0 -196.667 54 -295 162 -295c58.667 0 110.667 30 156 90zM247.001 536.998h179c0 170.667 -31 256 -93 256c-57.333 0 -86 -85.333 -86 -256zM272.001 1055l43 299h195l-145 -299h-93z" />
    <glyph glyph-name="ecircumflex" unicode="&#xea;" horiz-adv-x="641" 
d="M567 213l0.000976562 -158.002c-56.667 -53.333 -119 -80 -187 -80c-92 0 -163.333 41.333 -214 124s-76 201.334 -76 356.001c0 150.667 22.167 267.834 66.5 351.501s106.166 125.5 185.499 125.5c165.333 0 246.333 -171.333 243 -514h-336
c0 -196.667 54 -295 162 -295c58.667 0 110.667 30 156 90zM247.001 536.998h179c0 170.667 -31 256 -93 256c-57.333 0 -86 -85.333 -86 -256zM129.001 1051l113 307h198l113 -307h-92l-119 198l-121 -198h-92z" />
    <glyph glyph-name="edieresis" unicode="&#xeb;" horiz-adv-x="641" 
d="M568 213l0.000976562 -158.002c-56.667 -53.333 -119 -80 -187 -80c-92 0 -163.333 41.333 -214 124s-76 201.334 -76 356.001c0 150.667 22.167 267.834 66.5 351.501s106.166 125.5 185.499 125.5c165.333 0 246.333 -171.333 243 -514h-336
c0 -196.667 54 -295 162 -295c58.667 0 110.667 30 156 90zM248.001 536.998h179c0 170.667 -31 256 -93 256c-57.333 0 -86 -85.333 -86 -256zM373.001 1206c0 25.333 9.16699 47 27.5 65s40.5 27 66.5 27c25.333 0 47 -9 65 -27s27 -39.667 27 -65s-9 -47.333 -27 -66
s-39.667 -28 -65 -28s-47.333 9.33301 -66 28s-28 40.667 -28 66zM125.001 1206c0 25.333 9.33301 47 28 65s40.667 27 66 27s47 -9 65 -27s27 -39.667 27 -65s-9 -47.333 -27 -66s-39.667 -28 -65 -28s-47.333 9.33301 -66 28s-28 40.667 -28 66z" />
    <glyph glyph-name="igrave" unicode="&#xec;" horiz-adv-x="362" 
d="M102 0v907h160v-907h-160zM250 1055h-93l-145 299h195z" />
    <glyph glyph-name="iacute" unicode="&#xed;" horiz-adv-x="362" 
d="M102 0v907h160v-907h-160zM113 1055l43 299h195l-145 -299h-93z" />
    <glyph glyph-name="icircumflex" unicode="&#xee;" horiz-adv-x="362" 
d="M102 0v907h160v-907h-160zM-31 1051l113 307h198l113 -307h-92l-119 198l-121 -198h-92z" />
    <glyph glyph-name="idieresis" unicode="&#xef;" horiz-adv-x="362" 
d="M102 0v907h160v-907h-160zM213 1206c0 25.333 9.16699 47 27.5 65s40.5 27 66.5 27c25.333 0 47 -9 65 -27s27 -39.667 27 -65s-9 -47.333 -27 -66s-39.667 -28 -65 -28s-47.333 9.33301 -66 28s-28 40.667 -28 66zM-35 1206c0 25.333 9.33301 47 28 65s40.667 27 66 27
s47 -9 65 -27s27 -39.667 27 -65s-9 -47.333 -27 -66s-39.667 -28 -65 -28s-47.333 9.33301 -66 28s-28 40.667 -28 66z" />
    <glyph glyph-name="eth" unicode="&#xf0;" horiz-adv-x="655" 
d="M178 1288l137 -0.00195312c14 -13.333 38 -41.333 72 -84l158 66l45 -72l-150 -63c113.333 -151.333 170 -376.666 170 -675.999c0 -146.667 -26.167 -264 -78.5 -352s-120.833 -132 -205.5 -132c-85.333 0 -154.166 42.333 -206.499 127s-78.5 201 -78.5 349
c0 146.667 24.833 263.5 74.5 350.5s112.167 130.5 187.5 130.5c48 0 87.667 -16.333 119 -49l4 4c-14.667 70.667 -43.334 137.334 -86.001 200.001l-145 -59l-45 72l145 57c-36.667 47.333 -75.667 91 -117 131zM324 779.998c-79.333 0 -119 -107.667 -119 -323
c0 -220 41 -330 123 -330c78.667 0 118 110 118 330c0 215.333 -40.667 323 -122 323z" />
    <glyph glyph-name="ntilde" unicode="&#xf1;" 
d="M100 0v907h160v-98h4c44.667 75.333 100.667 113 168 113c60 0 108.167 -23.667 144.5 -71s54.5 -113.333 54.5 -198v-653h-160v649c0 87.333 -28.667 131 -86 131c-32 0 -60.833 -16.5 -86.5 -49.5s-38.5 -52.5 -38.5 -58.5v-672h-160zM73 1096
c-6 68 5.33105 121.5 33.998 160.5s71.334 58.5 128.001 58.5c34 0 80.333 -9.16699 139 -27.5s98.334 -27.5 119.001 -27.5c34.667 0 58.667 18.333 72 55h88c2 -14 3 -27.667 3 -41c0 -53.333 -15.5 -96.333 -46.5 -129s-69.167 -49 -114.5 -49
c-28.667 0 -70.5 9.83301 -125.5 29.5s-92.167 29.5 -111.5 29.5c-46 0 -77 -19.667 -93 -59h-92z" />
    <glyph glyph-name="ograve" unicode="&#xf2;" horiz-adv-x="705" 
d="M352 -25c-87.333 0 -156.5 42.5 -207.5 127.5s-76.5 201.833 -76.5 350.5s25.5 265.667 76.5 351s120.167 128 207.5 128s156.666 -42.667 207.999 -128s77 -202.333 77 -351s-25.667 -265.5 -77 -350.5s-120.666 -127.5 -207.999 -127.5zM350 780
c-79.333 0 -119 -109 -119 -327c0 -217.333 41 -326 123 -326c79.333 0 119 108.667 119 326c0 218 -41 327 -123 327zM422 1055h-93l-145 299h195z" />
    <glyph glyph-name="oacute" unicode="&#xf3;" horiz-adv-x="705" 
d="M352 -25c-87.333 0 -156.5 42.5 -207.5 127.5s-76.5 201.833 -76.5 350.5s25.5 265.667 76.5 351s120.167 128 207.5 128s156.666 -42.667 207.999 -128s77 -202.333 77 -351s-25.667 -265.5 -77 -350.5s-120.666 -127.5 -207.999 -127.5zM350 780
c-79.333 0 -119 -109 -119 -327c0 -217.333 41 -326 123 -326c79.333 0 119 108.667 119 326c0 218 -41 327 -123 327zM285 1055l43 299h195l-145 -299h-93z" />
    <glyph glyph-name="ocircumflex" unicode="&#xf4;" horiz-adv-x="705" 
d="M352 -25c-87.333 0 -156.5 42.5 -207.5 127.5s-76.5 201.833 -76.5 350.5s25.5 265.667 76.5 351s120.167 128 207.5 128s156.666 -42.667 207.999 -128s77 -202.333 77 -351s-25.667 -265.5 -77 -350.5s-120.666 -127.5 -207.999 -127.5zM350 780
c-79.333 0 -119 -109 -119 -327c0 -217.333 41 -326 123 -326c79.333 0 119 108.667 119 326c0 218 -41 327 -123 327zM141 1051l113 307h198l113 -307h-92l-119 198l-121 -198h-92z" />
    <glyph glyph-name="otilde" unicode="&#xf5;" horiz-adv-x="705" 
d="M352 -25c-87.333 0 -156.5 42.5 -207.5 127.5s-76.5 201.833 -76.5 350.5s25.5 265.667 76.5 351s120.167 128 207.5 128s156.666 -42.667 207.999 -128s77 -202.333 77 -351s-25.667 -265.5 -77 -350.5s-120.666 -127.5 -207.999 -127.5zM350 780
c-79.333 0 -119 -109 -119 -327c0 -217.333 41 -326 123 -326c79.333 0 119 108.667 119 326c0 218 -41 327 -123 327zM63 1096c-6 68 5.33105 121.5 33.998 160.5s71.334 58.5 128.001 58.5c34 0 80.333 -9.16699 139 -27.5s98.334 -27.5 119.001 -27.5
c34.667 0 58.667 18.333 72 55h88c2 -14 3 -27.667 3 -41c0 -53.333 -15.5 -96.333 -46.5 -129s-69.167 -49 -114.5 -49c-28.667 0 -70.5 9.83301 -125.5 29.5s-92.167 29.5 -111.5 29.5c-46 0 -77 -19.667 -93 -59h-92z" />
    <glyph glyph-name="odieresis" unicode="&#xf6;" horiz-adv-x="705" 
d="M352 -25c-87.333 0 -156.5 42.5 -207.5 127.5s-76.5 201.833 -76.5 350.5s25.5 265.667 76.5 351s120.167 128 207.5 128s156.666 -42.667 207.999 -128s77 -202.333 77 -351s-25.667 -265.5 -77 -350.5s-120.666 -127.5 -207.999 -127.5zM350 780
c-79.333 0 -119 -109 -119 -327c0 -217.333 41 -326 123 -326c79.333 0 119 108.667 119 326c0 218 -41 327 -123 327zM385 1206c0 25.333 9.16699 47 27.5 65s40.5 27 66.5 27c25.333 0 47 -9 65 -27s27 -39.667 27 -65s-9 -47.333 -27 -66s-39.667 -28 -65 -28
s-47.333 9.33301 -66 28s-28 40.667 -28 66zM137 1206c0 25.333 9.33301 47 28 65s40.667 27 66 27s47 -9 65 -27s27 -39.667 27 -65s-9 -47.333 -27 -66s-39.667 -28 -65 -28s-47.333 9.33301 -66 28s-28 40.667 -28 66z" />
    <glyph glyph-name="divide" unicode="&#xf7;" horiz-adv-x="1368" 
d="M584 1104c0 27.333 9.83203 50.833 29.499 70.5s43.167 29.5 70.5 29.5c28 0 52 -9.83301 72 -29.5s30 -43.167 30 -70.5s-10.167 -51.333 -30.5 -72s-44.166 -31 -71.499 -31s-50.833 10.167 -70.5 30.5s-29.5 44.5 -29.5 72.5zM200.999 807h968v-170h-968v170z
M583.999 342c0 27.333 9.83203 50.832 29.499 70.499s43.167 29.5 70.5 29.5c28 0 52 -9.83301 72 -29.5s30 -43.167 30 -70.5s-10.167 -51.166 -30.5 -71.499s-44.166 -30.5 -71.499 -30.5s-50.833 10 -70.5 30s-29.5 44 -29.5 72z" />
    <glyph glyph-name="oslash" unicode="&#xf8;" horiz-adv-x="705" 
d="M176 61l-43 -73l-84 51l68 115c-32.667 94 -49 193.667 -49 299c0 148.667 25.5 265.667 76.5 351s120.167 128 207.5 128c70 0 128 -28 174 -84l45 76l84 -47l-69 -119c34 -88 51 -189.667 51 -305c0 -148.667 -25.667 -265.5 -77 -350.5
s-120.666 -127.5 -207.999 -127.5c-72.667 0 -131.334 28.667 -176.001 86zM236 350l204 352c-21.333 52 -51.333 78 -90 78c-79.333 0 -119 -109 -119 -327v-103h5zM469 563l-205 -352c21.333 -56 51.333 -84 90 -84c79.333 0 119 108.667 119 326v110h-4z" />
    <glyph glyph-name="ugrave" unicode="&#xf9;" 
d="M618 907v-907h-159v98h-4c-42.667 -74.667 -96.667 -112 -162 -112c-60.667 0 -110 23 -148 69s-57 109.667 -57 191v661h160v-649c0 -86 28.667 -129 86 -129c33.333 0 62.5 15.167 87.5 45.5s37.5 50.833 37.5 61.5v671h159zM433 1055h-93l-145 299h195z" />
    <glyph glyph-name="uacute" unicode="&#xfa;" 
d="M618 907v-907h-159v98h-4c-42.667 -74.667 -96.667 -112 -162 -112c-60.667 0 -110 23 -148 69s-57 109.667 -57 191v661h160v-649c0 -86 28.667 -129 86 -129c33.333 0 62.5 15.167 87.5 45.5s37.5 50.833 37.5 61.5v671h159zM295 1055l43 299h195l-145 -299h-93z" />
    <glyph glyph-name="ucircumflex" unicode="&#xfb;" 
d="M618 907v-907h-159v98h-4c-42.667 -74.667 -96.667 -112 -162 -112c-60.667 0 -110 23 -148 69s-57 109.667 -57 191v661h160v-649c0 -86 28.667 -129 86 -129c33.333 0 62.5 15.167 87.5 45.5s37.5 50.833 37.5 61.5v671h159zM152 1051l113 307h198l113 -307h-92
l-119 198l-121 -198h-92z" />
    <glyph glyph-name="udieresis" unicode="&#xfc;" 
d="M618 907v-907h-159v98h-4c-42.667 -74.667 -96.667 -112 -162 -112c-60.667 0 -110 23 -148 69s-57 109.667 -57 191v661h160v-649c0 -86 28.667 -129 86 -129c33.333 0 62.5 15.167 87.5 45.5s37.5 50.833 37.5 61.5v671h159zM395 1206c0 25.333 9.16699 47 27.5 65
s40.5 27 66.5 27c25.333 0 47 -9 65 -27s27 -39.667 27 -65s-9 -47.333 -27 -66s-39.667 -28 -65 -28s-47.333 9.33301 -66 28s-28 40.667 -28 66zM147 1206c0 25.333 9.33301 47 28 65s40.667 27 66 27s47 -9 65 -27s27 -39.667 27 -65s-9 -47.333 -27 -66
s-39.667 -28 -65 -28s-47.333 9.33301 -66 28s-28 40.667 -28 66z" />
    <glyph glyph-name="yacute" unicode="&#xfd;" horiz-adv-x="641" 
d="M72 -500l184 660l-240 747h166l148 -473h4l131 473h160l-394 -1407h-159zM252 1055l43 299h195l-145 -299h-93z" />
    <glyph glyph-name="thorn" unicode="&#xfe;" 
d="M100 -489v1843h160v-512h4c34.667 53.333 80.334 80 137.001 80c73.333 0 135.166 -45.667 185.499 -137s75.5 -206.333 75.5 -345c0 -137.333 -24.5 -249.166 -73.5 -335.499s-111.5 -129.5 -187.5 -129.5c-52 0 -97.667 26.667 -137 80h-4v-544h-160zM260 689.999v-481
c36.667 -54.667 73.667 -82 111 -82c84.667 0 127 105 127 315c0 218.667 -47.333 328 -142 328c-26 0 -48.5 -11.667 -67.5 -35s-28.5 -38.333 -28.5 -45z" />
    <glyph glyph-name="ydieresis" unicode="&#xff;" horiz-adv-x="641" 
d="M93 -500l184 660l-240 747h166l148 -473h4l131 473h160l-394 -1407h-159zM373 1206c0 25.333 9.16699 47 27.5 65s40.5 27 66.5 27c25.333 0 47 -9 65 -27s27 -39.667 27 -65s-9 -47.333 -27 -66s-39.667 -28 -65 -28s-47.333 9.33301 -66 28s-28 40.667 -28 66z
M125 1206c0 25.333 9.33301 47 28 65s40.667 27 66 27s47 -9 65 -27s27 -39.667 27 -65s-9 -47.333 -27 -66s-39.667 -28 -65 -28s-47.333 9.33301 -66 28s-28 40.667 -28 66z" />
    <glyph glyph-name="Abreve" unicode="&#x102;" 
d="M14 0l258 1376h183l256 -1376h-170l-49 303h-254l-54 -303h-170zM264 467h197l-96 573h-5zM150 1732h101.999c7.33301 -102 44.333 -153 111 -153c64.667 0 101 51 109 153h104v-14c0 -76.667 -19.667 -138.5 -59 -185.5s-90.666 -70.5 -153.999 -70.5
c-65.333 0 -117.333 24 -156 72s-57.667 114 -57 198z" />
    <glyph glyph-name="abreve" unicode="&#x103;" horiz-adv-x="682" 
d="M659 168v-121c-50 -44.667 -91.333 -67 -124 -67c-59.333 0 -98.333 38 -117 114c-58.667 -79.333 -116.667 -119 -174 -119c-47.333 0 -88.833 22.833 -124.5 68.5s-53.5 99.5 -53.5 161.5c0 71.333 25 132 75 182s140.333 112.667 271 188v87
c0 78.667 -31.667 118 -95 118c-64.667 0 -141 -49.667 -229 -149v184c81.333 78 162 117 242 117c66.667 0 123.5 -22 170.5 -66s70.5 -103.333 70.5 -178v-512c0 -35.333 8.33301 -53 25 -53c10 0 31 15 63 45zM412 231l-0.000976562 234
c-126 -76 -189 -154.667 -189 -236c0 -30 7.33301 -54.5 22 -73.5s33.334 -28.5 56.001 -28.5c28 0 53.5 15.167 76.5 45.5s34.5 49.833 34.5 58.5zM121.999 1339h101.999c7.33301 -102 44.333 -153 111 -153c64.667 0 101 51 109 153h104v-14
c0 -76.667 -19.667 -138.5 -59 -185.5s-90.666 -70.5 -153.999 -70.5c-65.333 0 -117.333 24 -156 72s-57.667 114 -57 198z" />
    <glyph glyph-name="Aogonek" unicode="&#x104;" 
d="M14 0l258.001 1376h183l256 -1376h-43c-7.33301 -39.333 -11 -78.333 -11 -117c0 -108 33.667 -162 101 -162c27.333 0 58.666 9 93.999 27v-160c-58.667 -31.333 -110.667 -47 -156 -47c-58 0 -103.167 22.167 -135.5 66.5s-48.5 103.5 -48.5 177.5
c0 24.667 3 56.334 9 95.001l20 120l-49 303h-254l-54 -303h-170zM461.001 466.999l-96 573h-5l-96 -573h197z" />
    <glyph glyph-name="aogonek" unicode="&#x105;" horiz-adv-x="682" 
d="M762 -252v-159.999c-58.667 -31.333 -110.667 -47 -156 -47c-58 0 -103.167 22.167 -135.5 66.5s-48.5 103.5 -48.5 177.5c0 56.667 11 133.667 33 231c-16.667 18.667 -29 44.667 -37 78c-58.667 -79.333 -116.667 -119 -174 -119c-51.333 0 -93.833 23.667 -127.5 71
s-50.5 100.333 -50.5 159c0 80 30.833 146.333 92.5 199s146.167 109.667 253.5 171v87c0 78.667 -31.667 118 -95 118c-65.333 0 -141.666 -49.667 -228.999 -149v184c82 78 162.667 117 242 117c67.333 0 124.333 -22.5 171 -67.5s70 -103.833 70 -176.5v-512
c0 -35.333 8.33301 -53 25 -53c10 0 31 15 63 45v-121c-28.667 -26.667 -56.667 -45.667 -84 -57c-5.33301 -38.667 -8 -74.334 -8 -107.001c0 -108 33.667 -162 101 -162c27.333 0 58.666 9 93.999 27zM412 231.001l0.00195312 234.001c-126 -76 -189 -154.667 -189 -236
c0 -32.667 8.16699 -57.834 24.5 -75.501s34.166 -26.5 53.499 -26.5c27.333 0 52.666 15 75.999 45s35 49.667 35 59z" />
    <glyph glyph-name="Cacute" unicode="&#x106;" horiz-adv-x="682" 
d="M643 244l0.00292969 -185c-66 -51.333 -135.667 -77 -209 -77c-117.333 0 -208 60 -272 180s-96 291.333 -96 514s32.167 396.667 96.5 522s156.166 188 275.499 188c57.333 0 120.333 -23.667 189 -71v-178c-58.667 57.333 -117.334 86 -176.001 86
c-70.667 0 -121.834 -41.5 -153.501 -124.5s-47.5 -221.167 -47.5 -414.5c0 -191.333 16 -329 48 -413s85 -126 159 -126c50.667 0 112.667 33 186 99zM334.003 1464l43 299h195l-145 -299h-93z" />
    <glyph glyph-name="cacute" unicode="&#x107;" horiz-adv-x="575" 
d="M555 178l0.000976562 -153.003c-51.333 -33.333 -104 -50 -158 -50c-92.667 0 -170 44.333 -232 133s-93 201.334 -93 338.001c0 142.667 30.667 259.334 92 350.001s139 136 233 136c44.667 0 92.667 -11 144 -33v-164c-48 30 -87.667 45 -119 45
c-56.667 0 -101.834 -29.5 -135.501 -88.5s-50.5 -139.167 -50.5 -240.5c0 -99.333 18.333 -178.166 55 -236.499s85.667 -87.5 147 -87.5c36 0 75 17 117 51zM272.001 1055l43 299h195l-145 -299h-93z" />
    <glyph glyph-name="Ccaron" unicode="&#x10c;" horiz-adv-x="682" 
d="M643 244l0.00292969 -185c-66 -51.333 -135.667 -77 -209 -77c-117.333 0 -208 60 -272 180s-96 291.333 -96 514s32.167 396.667 96.5 522s156.166 188 275.499 188c57.333 0 120.333 -23.667 189 -71v-178c-58.667 57.333 -117.334 86 -176.001 86
c-70.667 0 -121.834 -41.5 -153.501 -124.5s-47.5 -221.167 -47.5 -414.5c0 -191.333 16 -329 48 -413s85 -126 159 -126c50.667 0 112.667 33 186 99zM188.003 1771h92l121 -199l119 199h92l-113 -307h-198z" />
    <glyph glyph-name="ccaron" unicode="&#x10d;" horiz-adv-x="575" 
d="M555 178l0.000976562 -153.003c-51.333 -33.333 -104 -50 -158 -50c-92.667 0 -170 44.333 -232 133s-93 201.334 -93 338.001c0 142.667 30.667 259.334 92 350.001s139 136 233 136c44.667 0 92.667 -11 144 -33v-164c-48 30 -87.667 45 -119 45
c-56.667 0 -101.834 -29.5 -135.501 -88.5s-50.5 -139.167 -50.5 -240.5c0 -99.333 18.333 -178.166 55 -236.499s85.667 -87.5 147 -87.5c36 0 75 17 117 51zM139.001 1358h92l121 -199l119 199h92l-113 -307h-198z" />
    <glyph glyph-name="Dcaron" unicode="&#x10e;" horiz-adv-x="854" 
d="M113 0l0.000976562 1368h194c312.667 0 469 -227.333 469 -682c0 -227.333 -38.833 -398.5 -116.5 -513.5s-186.834 -172.5 -327.501 -172.5h-219zM289.001 164h26c104 0 177.5 39.833 220.5 119.5s64.5 211.167 64.5 394.5c0 191.333 -20.333 326.833 -61 406.5
s-114 119.5 -220 119.5h-30v-1040zM195.001 1771h92l121 -199l119 199h92l-113 -307h-198z" />
    <glyph glyph-name="dcaron" unicode="&#x10f;" horiz-adv-x="973" 
d="M631 0h-159.999v70h-4c-38 -56 -86.333 -84 -145 -84c-71.333 0 -131.833 42 -181.5 126s-74.5 197 -74.5 339c0 142.667 24.667 258.5 74 347.5s112.666 133.5 189.999 133.5c54 0 101 -24.667 141 -74v510h160v-1368zM471.001 231l0.000976562 459
c-21.333 60 -56 90 -104 90c-42.667 0 -76.334 -29.167 -101.001 -87.5s-37 -140.5 -37 -246.5c0 -200.667 43 -301 129 -301c32 0 58.833 12.667 80.5 38s32.5 41.333 32.5 48zM751.002 963l-2 14c20 30 33.167 58.333 39.5 85s9.5 64.667 9.5 114
c-48.667 10.667 -73 40.667 -73 90c0 28.667 9.5 52.667 28.5 72s40.833 29 65.5 29c30.667 0 57 -13.167 79 -39.5s33 -65.166 33 -116.499c0 -114.667 -60 -197.334 -180 -248.001z" />
    <glyph glyph-name="Dcroat" unicode="&#x110;" horiz-adv-x="854" 
d="M113 0l0.000976562 625h-113v123h113v620h194c312.667 0 469 -227.333 469 -682c0 -227.333 -38.833 -398.5 -116.5 -513.5s-186.834 -172.5 -327.501 -172.5h-219zM289.001 164h26c104 0 177.5 39.833 220.5 119.5s64.5 211.167 64.5 394.5
c0 191.333 -20.333 326.833 -61 406.5s-114 119.5 -220 119.5h-30v-456h170v-123h-170v-461z" />
    <glyph glyph-name="dcroat" unicode="&#x111;" 
d="M631 0l-160.001 -0.000976562v70h-4c-39.333 -56 -87.666 -84 -144.999 -84c-70.667 0 -131 42.333 -181 127s-75 197.334 -75 338.001c0 143.333 24.5 259.333 73.5 348s112.5 133 190.5 133c53.333 0 100.333 -24.667 141 -74v225h-207v123h207v162h160v-162h92v-123
h-92v-1083zM470.999 230.999v459c-20.667 60 -55.334 90 -104.001 90c-43.333 0 -77.166 -29.333 -101.499 -88s-36.5 -140.667 -36.5 -246c0 -200.667 43 -301 129 -301c32.667 0 59.667 12.667 81 38s32 41.333 32 48z" />
    <glyph glyph-name="Eogonek" unicode="&#x118;" horiz-adv-x="745" 
d="M119 0l0.000976562 1368h487v-164h-311v-409h285v-164h-285v-467h328v-164h-39c-7.33301 -39.333 -11 -78.333 -11 -117c0 -108 33.667 -162 101 -162c27.333 0 58.666 9 93.999 27v-160c-58.667 -31.333 -110.667 -47 -156 -47c-58 0 -103.167 22.167 -135.5 66.5
s-48.5 103.5 -48.5 177.5c0 48 9.66699 119.667 29 215h-338z" />
    <glyph glyph-name="eogonek" unicode="&#x119;" horiz-adv-x="641" 
d="M547 213l0.00195312 -157.997c-53.333 -49.333 -110.666 -76 -171.999 -80c-4 -36.667 -6 -67.334 -6 -92.001c0 -108 33.333 -162 100 -162c27.333 0 58.666 9 93.999 27v-160c-58.667 -31.333 -110.334 -47 -155.001 -47c-58.667 0 -104.167 22.167 -136.5 66.5
s-48.5 103.5 -48.5 177.5c0 48.667 9.66699 119.667 29 213c-121.333 61.333 -182 213.666 -182 456.999c0 102.667 10.167 189.167 30.5 259.5s48.666 124.166 84.999 161.499s81.833 56 136.5 56c78 0 138 -39.333 180 -118s63 -210.667 63 -396h-336
c0 -196.667 54 -295 162 -295c58.667 0 110.667 30 156 90zM406.002 537.003c0 170.667 -31 256 -93 256c-57.333 0 -86 -85.333 -86 -256h179z" />
    <glyph glyph-name="Ecaron" unicode="&#x11a;" horiz-adv-x="745" 
d="M119 0v1368h487v-164h-311v-409h285v-164h-285v-467h328v-164h-504zM154 1771h92l121 -199l119 199h92l-113 -307h-198z" />
    <glyph glyph-name="ecaron" unicode="&#x11b;" horiz-adv-x="641" 
d="M547 213l0.000976562 -158.002c-56.667 -53.333 -119 -80 -187 -80c-92 0 -163.333 41.333 -214 124s-76 201.334 -76 356.001c0 150.667 22.167 267.834 66.5 351.501s106.166 125.5 185.499 125.5c165.333 0 246.333 -171.333 243 -514h-336
c0 -196.667 54 -295 162 -295c58.667 0 110.667 30 156 90zM227.001 536.998h179c0 170.667 -31 256 -93 256c-57.333 0 -86 -85.333 -86 -256zM111.001 1358h92l121 -199l119 199h92l-113 -307h-198z" />
    <glyph glyph-name="dotlessi" unicode="&#x131;" horiz-adv-x="362" 
d="M102 0v907h160v-907h-160z" />
    <glyph glyph-name="Lacute" unicode="&#x139;" horiz-adv-x="641" 
d="M121 0v1368h176v-1204h338v-164h-514zM369 1464l43 299h195l-145 -299h-93z" />
    <glyph glyph-name="lacute" unicode="&#x13a;" horiz-adv-x="342" 
d="M90 0v1368h160v-1368h-160zM80 1464l43 299h195l-145 -299h-93z" />
    <glyph glyph-name="Lcaron" unicode="&#x13d;" horiz-adv-x="641" 
d="M121 0v1368h176v-1204h338v-164h-514zM170 1771h92l121 -199l119 199h92l-113 -307h-198z" />
    <glyph glyph-name="lcaron" unicode="&#x13e;" horiz-adv-x="594" 
d="M90 0v1368h160v-1368h-160zM368 963l-2 14c20 30 33.167 58.333 39.5 85s9.5 64.667 9.5 114c-48.667 10.667 -73 40.667 -73 90c0 28.667 9.5 52.667 28.5 72s40.833 29 65.5 29c30.667 0 57 -13.167 79 -39.5s33 -65.166 33 -116.499
c0 -114.667 -60 -197.334 -180 -248.001z" />
    <glyph glyph-name="Lslash" unicode="&#x141;" horiz-adv-x="641" 
d="M121 0v549l-121 -170v166l121 164v659h176v-457l145 203v-166l-145 -196v-588h338v-164h-514z" />
    <glyph glyph-name="lslash" unicode="&#x142;" horiz-adv-x="532" 
d="M485 930l-139 -174v-756h-160v588l-139 -174v147l139 176v631h160v-463l139 176v-151z" />
    <glyph glyph-name="Nacute" unicode="&#x143;" horiz-adv-x="854" 
d="M121 0v1368h143l303 -844h4v844h162v-1368h-143l-303 852h-4v-852h-162zM349 1464l43 299h195l-145 -299h-93z" />
    <glyph glyph-name="nacute" unicode="&#x144;" 
d="M100 0v907h160v-98h4c44.667 75.333 100.667 113 168 113c60 0 108.167 -23.667 144.5 -71s54.5 -113.333 54.5 -198v-653h-160v649c0 87.333 -28.667 131 -86 131c-32 0 -60.833 -16.5 -86.5 -49.5s-38.5 -52.5 -38.5 -58.5v-672h-160zM293 1055l43 299h195l-145 -299
h-93z" />
    <glyph glyph-name="Ncaron" unicode="&#x147;" horiz-adv-x="854" 
d="M121 0v1368h143l303 -844h4v844h162v-1368h-143l-303 852h-4v-852h-162zM215 1771h92l121 -199l119 199h92l-113 -307h-198z" />
    <glyph glyph-name="ncaron" unicode="&#x148;" 
d="M100 0v907h160v-98h4c44.667 75.333 100.667 113 168 113c60 0 108.167 -23.667 144.5 -71s54.5 -113.333 54.5 -198v-653h-160v649c0 87.333 -28.667 131 -86 131c-32 0 -60.833 -16.5 -86.5 -49.5s-38.5 -52.5 -38.5 -58.5v-672h-160zM161 1358h92l121 -199l119 199h92
l-113 -307h-198z" />
    <glyph glyph-name="Ohungarumlaut" unicode="&#x150;" horiz-adv-x="874" 
d="M438 -18c-108 0 -195.999 62.501 -263.999 187.501s-102 296.5 -102 514.5c0 206 32.167 374.5 96.5 505.5s154.166 196.5 269.499 196.5c112 0 201.167 -65.333 267.5 -196s99.5 -299.334 99.5 -506.001c0 -220 -35 -392 -105 -516s-157.333 -186 -262 -186z
M436.001 1223c-58 0 -102.5 -47.833 -133.5 -143.5s-46.5 -227.5 -46.5 -395.5c0 -174 16 -307.333 48 -400s77.333 -139 136 -139c56 0 100.167 47.333 132.5 142s48.5 227 48.5 397c0 172.667 -16.333 305.667 -49 399s-78 140 -136 140zM508.001 1464l43 299h194
l-145 -299h-92zM231.001 1464l43 299h195l-146 -299h-92z" />
    <glyph glyph-name="ohungarumlaut" unicode="&#x151;" horiz-adv-x="705" 
d="M352 -25c-87.333 0 -156.5 42.5 -207.5 127.5s-76.5 201.833 -76.5 350.5s25.5 265.667 76.5 351s120.167 128 207.5 128s156.666 -42.667 207.999 -128s77 -202.333 77 -351s-25.667 -265.5 -77 -350.5s-120.666 -127.5 -207.999 -127.5zM350 780
c-79.333 0 -119 -109 -119 -327c0 -217.333 41 -326 123 -326c79.333 0 119 108.667 119 326c0 218 -41 327 -123 327zM420 1014l43 299h194l-145 -299h-92zM143 1014l43 299h195l-146 -299h-92z" />
    <glyph glyph-name="OE" unicode="&#x152;" horiz-adv-x="1067" 
d="M1028 0h-491c-150 0 -265.333 56.667 -346 170s-121 276.333 -121 489c0 472.667 158.333 709 475 709h471v-164h-283v-405h271v-164h-271v-471h295v-164zM557 162v1042h-12c-199.333 0 -299 -176 -299 -528c0 -168.667 26.667 -296.5 80 -383.5
s130.333 -130.5 231 -130.5z" />
    <glyph glyph-name="oe" unicode="&#x153;" horiz-adv-x="1067" 
d="M975 213l0.000976562 -158c-58 -53.333 -121.667 -80 -191 -80c-95.333 0 -168.333 41.667 -219 125c-54.667 -83.333 -124.334 -125 -209.001 -125c-87.333 0 -157.166 43 -209.499 129s-78.5 202.333 -78.5 349c0 148.667 26 265.667 78 351s122 128 210 128
c81.333 0 148.333 -37 201 -111c45.333 74 106.666 111 183.999 111c172 0 256.667 -171.333 254 -514h-348c0 -196.667 56.667 -295 170 -295c56 0 108.667 30 158 90zM647.001 537h187.001c0 98 -8.33301 165.167 -25 201.5s-41.334 54.5 -74.001 54.5
c-31.333 0 -53.833 -18 -67.5 -54s-20.5 -103.333 -20.5 -202zM358.002 780c-84.667 0 -127 -107.667 -127 -323c0 -220 43 -330 129 -330c82 0 123 107.333 123 322c0 220.667 -41.667 331 -125 331z" />
    <glyph glyph-name="Racute" unicode="&#x154;" horiz-adv-x="748" 
d="M121 0l0.000976562 1368h147c117.333 0 206.833 -34.5 268.5 -103.5s92.5 -160.833 92.5 -275.5c0 -130 -47.333 -227.667 -142 -293c73.333 -52 135.666 -190.333 186.999 -415l63 -281h-184l-53 236c-38 165.333 -71 270.5 -99 315.5s-62.667 65.167 -104 60.5v-612
h-176zM297.001 776l8 -0.000976562c98.667 0 148 69 148 207c0 146.667 -52 220.334 -156 221.001v-428zM311.001 1464l43 299h195l-145 -299h-93z" />
    <glyph glyph-name="racute" unicode="&#x155;" horiz-adv-x="512" 
d="M104 0l0.000976562 907h160v-245h4c32 108 58.5 178.333 79.5 211s50.5 49 88.5 49c29.333 0 56.666 -9 81.999 -27l-12 -164c-22 15.333 -45.333 23 -70 23c-50 0 -91.167 -45 -123.5 -135s-48.5 -176.333 -48.5 -259v-360h-160zM236.001 1055l43 299h195l-145 -299h-93
z" />
    <glyph glyph-name="Rcaron" unicode="&#x158;" horiz-adv-x="748" 
d="M121 0l0.000976562 1368h147c117.333 0 206.833 -34.5 268.5 -103.5s92.5 -160.833 92.5 -275.5c0 -130 -47.333 -227.667 -142 -293c73.333 -52 135.666 -190.333 186.999 -415l63 -281h-184l-53 236c-38 165.333 -71 270.5 -99 315.5s-62.667 65.167 -104 60.5v-612
h-176zM297.001 776l8 -0.000976562c98.667 0 148 69 148 207c0 146.667 -52 220.334 -156 221.001v-428zM160.001 1771h92l121 -199l119 199h92l-113 -307h-198z" />
    <glyph glyph-name="rcaron" unicode="&#x159;" horiz-adv-x="512" 
d="M104 0l0.000976562 907h160v-245h4c32 108 58.5 178.333 79.5 211s50.5 49 88.5 49c29.333 0 56.666 -9 81.999 -27l-12 -164c-22 15.333 -45.333 23 -70 23c-50 0 -91.167 -45 -123.5 -135s-48.5 -176.333 -48.5 -259v-360h-160zM98.001 1358h92l121 -199l119 199h92
l-113 -307h-198z" />
    <glyph glyph-name="Sacute" unicode="&#x15a;" horiz-adv-x="575" 
d="M66 35l-0.000976562 181.999c52.667 -50.667 103.667 -76 153 -76c36.667 0 68 13 94 39s39 57.333 39 94c0 31.333 -7.33301 69.333 -22 114s-54.167 127.167 -118.5 247.5s-106.166 211.5 -125.499 273.5s-29 116.667 -29 164c0 92 26.167 167.167 78.5 225.5
s119.166 87.5 200.499 87.5c46 0 95 -12 147 -36v-166c-48 28.667 -89 43 -123 43c-88.667 0 -133 -43.667 -133 -131c0 -32 7.5 -70.5 22.5 -115.5s54.667 -127 119 -246s106 -209.667 125 -272s28.5 -117.5 28.5 -165.5c0 -93.333 -26.167 -169.166 -78.5 -227.499
s-120.166 -87.5 -203.499 -87.5c-60 0 -118 17.667 -174 53zM204.999 1464l43 299h195l-145 -299h-93z" />
    <glyph glyph-name="sacute" unicode="&#x15b;" horiz-adv-x="512" 
d="M57 49v175.999c59.333 -65.333 112 -98 158 -98c22.667 0 41.667 7.33301 57 22s23 33.334 23 56.001c0 41.333 -30.167 107 -90.5 197s-98.166 156.5 -113.499 199.5s-23 82.167 -23 117.5c0 61.333 18.5 112.166 55.5 152.499s83.833 60.5 140.5 60.5
c51.333 0 102 -19.333 152 -58v-151c-52 42 -97.667 63 -137 63c-42.667 0 -64 -22.333 -64 -67c0 -38 31.167 -100.5 93.5 -187.5s102 -153 119 -198s25.5 -86.5 25.5 -124.5c0 -67.333 -20.667 -123.166 -62 -167.499s-93 -66.5 -155 -66.5
c-58.667 0 -118.334 24.667 -179.001 74zM174 1055l43 299h195l-145 -299h-93z" />
    <glyph glyph-name="Scedilla" unicode="&#x15e;" horiz-adv-x="575" 
d="M66 35l-0.000976562 181.999c52.667 -50.667 103.667 -76 153 -76c36.667 0 68 13 94 39s39 57.333 39 94c0 31.333 -7.33301 69.333 -22 114s-54.167 127.167 -118.5 247.5s-106.166 211.5 -125.499 273.5s-29 116.667 -29 164c0 92 26.167 167.167 78.5 225.5
s119.166 87.5 200.499 87.5c46 0 95 -12 147 -36v-166c-48 28.667 -89 43 -123 43c-88.667 0 -133 -43.667 -133 -131c0 -32 7.5 -70.5 22.5 -115.5s54.667 -127 119 -246s106 -209.667 125 -272s28.5 -117.5 28.5 -165.5c0 -93.333 -26.167 -169.166 -78.5 -227.499
s-120.166 -87.5 -203.499 -87.5c-60 0 -118 17.667 -174 53zM203.999 -506.001l-2 14c20 30 33.167 58.333 39.5 85s9.5 64.667 9.5 114c-48.667 10.667 -73 40.667 -73 90c0 28.667 9.5 52.667 28.5 72s40.833 29 65.5 29c30.667 0 57 -13.167 79 -39.5
s33 -65.166 33 -116.499c0 -114.667 -60 -197.334 -180 -248.001z" />
    <glyph glyph-name="scedilla" unicode="&#x15f;" horiz-adv-x="512" 
d="M57 49v175.999c59.333 -65.333 112 -98 158 -98c22.667 0 41.667 7.33301 57 22s23 33.334 23 56.001c0 41.333 -30.167 107 -90.5 197s-98.166 156.5 -113.499 199.5s-23 82.167 -23 117.5c0 61.333 18.5 112.166 55.5 152.499s83.833 60.5 140.5 60.5
c51.333 0 102 -19.333 152 -58v-151c-52 42 -97.667 63 -137 63c-42.667 0 -64 -22.333 -64 -67c0 -38 31.167 -100.5 93.5 -187.5s102 -153 119 -198s25.5 -86.5 25.5 -124.5c0 -67.333 -20.667 -123.166 -62 -167.499s-93 -66.5 -155 -66.5
c-58.667 0 -118.334 24.667 -179.001 74zM175 -506.001l-2 14c20 30 33.167 58.333 39.5 85s9.5 64.667 9.5 114c-48.667 10.667 -73 40.667 -73 90c0 28.667 9.5 52.667 28.5 72s40.833 29 65.5 29c30.667 0 57 -13.167 79 -39.5s33 -65.166 33 -116.499
c0 -114.667 -60 -197.334 -180 -248.001z" />
    <glyph glyph-name="Scaron" unicode="&#x160;" horiz-adv-x="575" 
d="M66 35l-0.000976562 181.999c52.667 -50.667 103.667 -76 153 -76c36.667 0 68 13 94 39s39 57.333 39 94c0 31.333 -7.33301 69.333 -22 114s-54.167 127.167 -118.5 247.5s-106.166 211.5 -125.499 273.5s-29 116.667 -29 164c0 92 26.167 167.167 78.5 225.5
s119.166 87.5 200.499 87.5c46 0 95 -12 147 -36v-166c-48 28.667 -89 43 -123 43c-88.667 0 -133 -43.667 -133 -131c0 -32 7.5 -70.5 22.5 -115.5s54.667 -127 119 -246s106 -209.667 125 -272s28.5 -117.5 28.5 -165.5c0 -93.333 -26.167 -169.166 -78.5 -227.499
s-120.166 -87.5 -203.499 -87.5c-60 0 -118 17.667 -174 53zM75.999 1767h92l121 -199l119 199h92l-113 -307h-198z" />
    <glyph glyph-name="scaron" unicode="&#x161;" horiz-adv-x="512" 
d="M57 49v175.999c59.333 -65.333 112 -98 158 -98c22.667 0 41.667 7.33301 57 22s23 33.334 23 56.001c0 41.333 -30.167 107 -90.5 197s-98.166 156.5 -113.499 199.5s-23 82.167 -23 117.5c0 61.333 18.5 112.166 55.5 152.499s83.833 60.5 140.5 60.5
c51.333 0 102 -19.333 152 -58v-151c-52 42 -97.667 63 -137 63c-42.667 0 -64 -22.333 -64 -67c0 -38 31.167 -100.5 93.5 -187.5s102 -153 119 -198s25.5 -86.5 25.5 -124.5c0 -67.333 -20.667 -123.166 -62 -167.499s-93 -66.5 -155 -66.5
c-58.667 0 -118.334 24.667 -179.001 74zM45 1358h92l121 -199l119 199h92l-113 -307h-198z" />
    <glyph glyph-name="Tcommaaccent" unicode="&#x162;" horiz-adv-x="641" 
d="M231 0v1204h-211v164h598v-164h-210v-1204h-177zM243 -506l-2 14c20 30 33.167 58.333 39.5 85s9.5 64.667 9.5 114c-48.667 10.667 -73 40.667 -73 90c0 28.667 9.5 52.667 28.5 72s40.833 29 65.5 29c30.667 0 57 -13.167 79 -39.5s33 -65.166 33 -116.499
c0 -114.667 -60 -197.334 -180 -248.001z" />
    <glyph glyph-name="tcommaaccent" unicode="&#x163;" horiz-adv-x="469" 
d="M446 152v-142.001c-54 -23.333 -101 -35 -141 -35c-112 0 -168 67.667 -168 203v590h-104v14c76 92.667 159.333 212.334 250 359.001h14v-234h149v-139h-149v-518c0 -48 4.5 -80.5 13.5 -97.5s25.5 -25.5 49.5 -25.5c22 0 50.667 8.33301 86 25zM219 -506.001l-2 14
c20 30 33.167 58.333 39.5 85s9.5 64.667 9.5 114c-48.667 10.667 -73 40.667 -73 90c0 28.667 9.5 52.667 28.5 72s40.833 29 65.5 29c30.667 0 57 -13.167 79 -39.5s33 -65.166 33 -116.499c0 -114.667 -60 -197.334 -180 -248.001z" />
    <glyph glyph-name="Tcaron" unicode="&#x164;" horiz-adv-x="641" 
d="M231 0v1204h-211v164h598v-164h-210v-1204h-177zM109 1771h92l121 -199l119 199h92l-113 -307h-198z" />
    <glyph glyph-name="tcaron" unicode="&#x165;" horiz-adv-x="717" 
d="M446 152v-142.001c-54 -23.333 -101 -35 -141 -35c-112 0 -168 67.667 -168 203v590h-104v14c76 92.667 159.333 212.334 250 359.001h14v-234h149v-139h-149v-518c0 -48 4.5 -80.5 13.5 -97.5s25.5 -25.5 49.5 -25.5c22 0 50.667 8.33301 86 25zM495 798.999l-2 14
c20 30 33.167 58.333 39.5 85s9.5 64.667 9.5 114c-48.667 10.667 -73 40.667 -73 90c0 28.667 9.5 52.667 28.5 72s40.833 29 65.5 29c30.667 0 57 -13.167 79 -39.5s33 -65.166 33 -116.499c0 -114.667 -60 -197.334 -180 -248.001z" />
    <glyph glyph-name="Uring" unicode="&#x16e;" horiz-adv-x="831" 
d="M111 1368h176v-1028c0 -130 43 -195 129 -195c38 0 69 16.333 93 49s36 78.667 36 138v1036h176v-1016c0 -120 -30.333 -211.667 -91 -275s-132 -95 -214 -95c-87.333 0 -160 33 -218 99s-87 151.667 -87 257v1030zM256 1619c0 44 15.667 81.334 47 112.001s69 46 113 46
s81.333 -15.333 112 -46s46 -68 46 -112s-15.5 -81.5 -46.5 -112.5s-68.167 -46.5 -111.5 -46.5c-44 0 -81.667 15.667 -113 47s-47 68.666 -47 111.999zM514 1619c0 28 -9.5 51.5 -28.5 70.5s-42.167 28.5 -69.5 28.5s-50.5 -9.5 -69.5 -28.5s-28.5 -42.5 -28.5 -70.5
c0 -27.333 9.5 -50.5 28.5 -69.5s42.167 -28.5 69.5 -28.5s50.5 9.5 69.5 28.5s28.5 42.167 28.5 69.5z" />
    <glyph glyph-name="uring" unicode="&#x16f;" 
d="M618 907v-907h-159v98h-4c-42.667 -74.667 -96.667 -112 -162 -112c-60.667 0 -110 23 -148 69s-57 109.667 -57 191v661h160v-649c0 -86 28.667 -129 86 -129c33.333 0 62.5 15.167 87.5 45.5s37.5 50.833 37.5 61.5v671h159zM195 1210c0 44 15.667 81.334 47 112.001
s69 46 113 46s81.333 -15.333 112 -46s46 -68 46 -112s-15.5 -81.5 -46.5 -112.5s-68.167 -46.5 -111.5 -46.5c-44 0 -81.667 15.667 -113 47s-47 68.666 -47 111.999zM453 1210c0 28 -9.5 51.5 -28.5 70.5s-42.167 28.5 -69.5 28.5s-50.5 -9.5 -69.5 -28.5
s-28.5 -42.5 -28.5 -70.5c0 -27.333 9.5 -50.5 28.5 -69.5s42.167 -28.5 69.5 -28.5s50.5 9.5 69.5 28.5s28.5 42.167 28.5 69.5z" />
    <glyph glyph-name="Uhungarumlaut" unicode="&#x170;" horiz-adv-x="831" 
d="M111 1368h176v-1028c0 -130 43 -195 129 -195c38 0 69 16.333 93 49s36 78.667 36 138v1036h176v-1016c0 -120 -30.333 -211.667 -91 -275s-132 -95 -214 -95c-87.333 0 -160 33 -218 99s-87 151.667 -87 257v1030zM486 1462l43 299h194l-145 -299h-92zM209 1462l43 299
h195l-146 -299h-92z" />
    <glyph glyph-name="uhungarumlaut" unicode="&#x171;" 
d="M618 907v-907h-159v98h-4c-42.667 -74.667 -96.667 -112 -162 -112c-60.667 0 -110 23 -148 69s-57 109.667 -57 191v661h160v-649c0 -86 28.667 -129 86 -129c33.333 0 62.5 15.167 87.5 45.5s37.5 50.833 37.5 61.5v671h159zM420 1014l43 299h194l-145 -299h-92z
M143 1014l43 299h195l-146 -299h-92z" />
    <glyph glyph-name="Ydieresis" unicode="&#x178;" horiz-adv-x="641" 
d="M250 0v625l-215 743h181l118 -537h4l125 537h183l-219 -743v-625h-177zM373 1616c0 25.333 9.16699 47 27.5 65s40.5 27 66.5 27c25.333 0 47 -9 65 -27s27 -39.667 27 -65s-9 -47.333 -27 -66s-39.667 -28 -65 -28s-47.333 9.33301 -66 28s-28 40.667 -28 66zM125 1616
c0 25.333 9.33301 47 28 65s40.667 27 66 27s47 -9 65 -27s27 -39.667 27 -65s-9 -47.333 -27 -66s-39.667 -28 -65 -28s-47.333 9.33301 -66 28s-28 40.667 -28 66z" />
    <glyph glyph-name="Zacute" unicode="&#x179;" horiz-adv-x="598" 
d="M33 0l315 1204h-278v164h495l-315 -1204h315v-164h-532zM242 1464l43 299h195l-145 -299h-93z" />
    <glyph glyph-name="zacute" unicode="&#x17a;" horiz-adv-x="575" 
d="M29 0l282 768h-256v139h477l-286 -768h293v-139h-510zM227 1055l43 299h195l-145 -299h-93z" />
    <glyph glyph-name="Zdotaccent" unicode="&#x17b;" horiz-adv-x="598" 
d="M33 0l315 1204h-278v164h495l-315 -1204h315v-164h-532zM206 1616c0 25.333 9.33301 47 28 65s40.667 27 66 27s47 -9 65 -27s27 -39.667 27 -65s-9 -47.333 -27 -66s-39.667 -28 -65 -28s-47.333 9.33301 -66 28s-28 40.667 -28 66z" />
    <glyph glyph-name="zdotaccent" unicode="&#x17c;" horiz-adv-x="575" 
d="M29 0l282 768h-256v139h477l-286 -768h293v-139h-510zM195 1206c0 25.333 9.33301 47 28 65s40.667 27 66 27s47 -9 65 -27s27 -39.667 27 -65s-9 -47.333 -27 -66s-39.667 -28 -65 -28s-47.333 9.33301 -66 28s-28 40.667 -28 66z" />
    <glyph glyph-name="Zcaron" unicode="&#x17d;" horiz-adv-x="598" 
d="M33 0l315 1204h-278v164h495l-315 -1204h315v-164h-532zM88 1767h92l121 -199l119 199h92l-113 -307h-198z" />
    <glyph glyph-name="zcaron" unicode="&#x17e;" horiz-adv-x="575" 
d="M29 0l282 768h-256v139h477l-286 -768h293v-139h-510zM76 1358h92l121 -199l119 199h92l-113 -307h-198z" />
    <glyph glyph-name="florin" unicode="&#x192;" horiz-adv-x="1139" 
d="M748 907l170.001 -0.000976562l-25 -139h-172l-176 -1012c-16 -90.667 -44.667 -156.667 -86 -198s-101.333 -62 -180 -62c-70.667 0 -130.334 11 -179.001 33l35 154c52 -23.333 97.667 -35 137 -35c24.667 0 44.5 6.5 59.5 19.5s27.5 48.833 37.5 107.5l170 993h-166
l22 139h168l37 221c15.333 92.667 42.833 158.834 82.5 198.501s98.167 59.5 175.5 59.5c52 0 113.333 -12 184 -36l-34 -154c-51.333 18 -97.333 27 -138 27c-25.333 0 -44.5 -9.66699 -57.5 -29s-25.833 -64.333 -38.5 -135z" />
    <glyph glyph-name="circumflex" unicode="&#x2c6;" horiz-adv-x="682" 
d="M129 1051l113 307h198l113 -307h-92l-119 198l-121 -198h-92z" />
    <glyph glyph-name="caron" unicode="&#x2c7;" horiz-adv-x="682" 
d="M129 1358h92l121 -199l119 199h92l-113 -307h-198z" />
    <glyph glyph-name="macron" unicode="&#x2c9;" horiz-adv-x="682" 
d="M145 1141v133h392v-133h-392z" />
    <glyph glyph-name="breve" unicode="&#x2d8;" horiz-adv-x="682" 
d="M130 1339h101.999c7.33301 -102 44.333 -153 111 -153c64.667 0 101 51 109 153h104v-14c0 -76.667 -19.667 -138.5 -59 -185.5s-90.666 -70.5 -153.999 -70.5c-65.333 0 -117.333 24 -156 72s-57.667 114 -57 198z" />
    <glyph glyph-name="dotaccent" unicode="&#x2d9;" horiz-adv-x="682" 
d="M248 1206c0 25.333 9.33301 47 28 65s40.667 27 66 27s47 -9 65 -27s27 -39.667 27 -65s-9 -47.333 -27 -66s-39.667 -28 -65 -28s-47.333 9.33301 -66 28s-28 40.667 -28 66z" />
    <glyph glyph-name="ring" unicode="&#x2da;" horiz-adv-x="682" 
d="M182 1210c0 44 15.667 81.334 47 112.001s69 46 113 46s81.333 -15.333 112 -46s46 -68 46 -112s-15.5 -81.5 -46.5 -112.5s-68.167 -46.5 -111.5 -46.5c-44 0 -81.667 15.667 -113 47s-47 68.666 -47 111.999zM440 1210c0 28 -9.5 51.5 -28.5 70.5
s-42.167 28.5 -69.5 28.5s-50.5 -9.5 -69.5 -28.5s-28.5 -42.5 -28.5 -70.5c0 -27.333 9.5 -50.5 28.5 -69.5s42.167 -28.5 69.5 -28.5s50.5 9.5 69.5 28.5s28.5 42.167 28.5 69.5z" />
    <glyph glyph-name="ogonek" unicode="&#x2db;" horiz-adv-x="682" 
d="M238 27h124c-9.33301 -59.333 -14 -107.333 -14 -144c0 -108 33.667 -162 101 -162c26 0 57.333 9 94 27v-160c-58 -31.333 -110 -47 -156 -47c-56.667 0 -101.5 21.667 -134.5 65s-49.5 103 -49.5 179c0 56 11.667 136.667 35 242z" />
    <glyph glyph-name="tilde" unicode="&#x2dc;" horiz-adv-x="682" 
d="M60 1096c-6 68 5.33105 121.5 33.998 160.5s71.334 58.5 128.001 58.5c34 0 80.333 -9.16699 139 -27.5s98.334 -27.5 119.001 -27.5c34.667 0 58.667 18.333 72 55h88c2 -14 3 -27.667 3 -41c0 -53.333 -15.5 -96.333 -46.5 -129s-69.167 -49 -114.5 -49
c-28.667 0 -70.5 9.83301 -125.5 29.5s-92.167 29.5 -111.5 29.5c-46 0 -77 -19.667 -93 -59h-92z" />
    <glyph glyph-name="hungarumlaut" unicode="&#x2dd;" horiz-adv-x="682" 
d="M461 1014l43 299h194l-145 -299h-92zM184 1014l43 299h195l-146 -299h-92z" />
    <glyph glyph-name="pi" unicode="&#x3c0;" horiz-adv-x="1124" 
d="M1085 309c-3.33301 -103.333 -28.498 -186.167 -75.498 -248.5s-102.833 -93.5 -167.5 -93.5c-52.667 0 -98.834 30.5 -138.501 91.5s-59.5 154.833 -59.5 281.5c0 28 0.666992 54.667 2 80s3 49.333 5 72l35 329h-231c-40 -416 -72.833 -663.5 -98.5 -742.5
s-69.167 -118.5 -130.5 -118.5c-26 0 -50.667 10.333 -74 31s-35 48 -35 82c0 30.667 24.167 73.5 72.5 128.5s75.166 105.167 80.499 150.5l60 469h-97c-26.667 0 -52.834 -6.5 -78.501 -19.5s-44.5 -28.167 -56.5 -45.5l-43 -64h-35
c32.667 101.333 72.834 177.5 120.501 228.5s102.5 76.5 164.5 76.5h764v-176h-258c-8 -80 -14.167 -160 -18.5 -240s-6.5 -160.333 -6.5 -241c0 -54.667 12.667 -99 38 -133s57 -51 95 -51c23.333 0 47.833 9.5 73.5 28.5s40.167 43.833 43.5 74.5
c2 14.667 3.5 26.167 4.5 34.5s1.5 13.5 1.5 15.5h43z" />
    <glyph glyph-name="endash" unicode="&#x2013;" horiz-adv-x="1024" 
d="M1036 510v-92h-1048v92h1048z" />
    <glyph glyph-name="emdash" unicode="&#x2014;" horiz-adv-x="2048" 
d="M2060 510v-92h-2072v92h2072z" />
    <glyph glyph-name="quoteleft" unicode="&#x2018;" horiz-adv-x="362" 
d="M276 1386l3 -18c-46 -67.333 -65.333 -144.333 -58 -231c57.333 -14.667 86 -51 86 -109c0 -32.667 -10.5 -60.334 -31.5 -83.001s-47.167 -34 -78.5 -34c-38.667 0 -70.167 16.833 -94.5 50.5s-36.5 77.834 -36.5 132.501c0 134.667 70 232 210 292z" />
    <glyph glyph-name="quoteright" unicode="&#x2019;" horiz-adv-x="362" 
d="M86 911l-1.99902 19.001c45.333 66.667 64.333 143.667 57 231c-57.333 14.667 -86 51 -86 109c0 32.667 10.667 60.167 32 82.5s47.666 33.5 78.999 33.5c38.667 0 70.167 -16.667 94.5 -50s36.5 -77.333 36.5 -132c0 -134.667 -70.333 -232.334 -211 -293.001z" />
    <glyph glyph-name="quotesinglbase" unicode="&#x201a;" horiz-adv-x="362" 
d="M76 -266l-1.99902 18.002c45.333 67.333 64.333 144.666 57 231.999c-57.333 14 -86 50 -86 108c0 33.333 10.667 61.166 32 83.499s47.666 33.5 78.999 33.5c38.667 0 70.167 -16.833 94.5 -50.5s36.5 -77.5 36.5 -131.5c0 -135.333 -70.333 -233 -211 -293z" />
    <glyph glyph-name="quotedblleft" unicode="&#x201c;" horiz-adv-x="662" 
d="M584 1386l1.99902 -18c-45.333 -67.333 -64.666 -144.333 -57.999 -231c57.333 -14.667 86 -51 86 -109c0 -32.667 -10.5 -60.334 -31.5 -83.001s-47.167 -34 -78.5 -34c-38.667 0 -70.167 16.833 -94.5 50.5s-36.5 77.834 -36.5 132.501c0 134.667 70.333 232 211 292z
M261.999 1386l1.99902 -18c-45.333 -67.333 -64.333 -144.333 -57 -231c57.333 -14.667 86 -51 86 -109c0 -32.667 -10.667 -60.334 -32 -83.001s-47.666 -34 -78.999 -34c-38.667 0 -70.167 16.833 -94.5 50.5s-36.5 77.834 -36.5 132.501c0 134.667 70.333 232 211 292z
" />
    <glyph glyph-name="quotedblright" unicode="&#x201d;" horiz-adv-x="662" 
d="M399 911l-1.99902 19.001c45.333 66.667 64.666 143.667 57.999 231c-57.333 14.667 -86 51 -86 109c0 32.667 10.5 60.167 31.5 82.5s47.167 33.5 78.5 33.5c38.667 0 70.167 -16.667 94.5 -50s36.5 -77.333 36.5 -132c0 -134.667 -70.333 -232.334 -211 -293.001z
M78.001 911.001l-1.99902 19.001c45.333 66.667 64.333 143.667 57 231c-57.333 14.667 -86 51 -86 109c0 32.667 10.667 60.167 32 82.5s47.666 33.5 78.999 33.5c38.667 0 70.167 -16.667 94.5 -50s36.5 -77.333 36.5 -132c0 -134.667 -70.333 -232.334 -211 -293.001z
" />
    <glyph glyph-name="quotedblbase" unicode="&#x201e;" horiz-adv-x="662" 
d="M399 -266l-1.99902 18.002c45.333 67.333 64.666 144.666 57.999 231.999c-57.333 14 -86 50 -86 108c0 33.333 10.5 61.166 31.5 83.499s47.167 33.5 78.5 33.5c38.667 0 70.167 -16.833 94.5 -50.5s36.5 -77.5 36.5 -131.5c0 -135.333 -70.333 -233 -211 -293z
M78.001 -265.998l-1.99902 18.002c45.333 67.333 64.333 144.666 57 231.999c-57.333 14 -86 50 -86 108c0 33.333 10.667 61.166 32 83.499s47.666 33.5 78.999 33.5c38.667 0 70.167 -16.833 94.5 -50.5s36.5 -77.5 36.5 -131.5c0 -135.333 -70.333 -233 -211 -293z" />
    <glyph glyph-name="dagger" unicode="&#x2020;" 
d="M332 784c-96 -31.333 -161 -47.001 -195 -47.001c-24 0 -44.333 7.66699 -61 23s-25 33.666 -25 54.999c0 49.333 30.667 74 92 74c47.333 0 110.333 -13.667 189 -41c-35.333 143.333 -53 263.333 -53 360c0 118.667 27.667 178 83 178c58 0 87 -59.333 87 -178
c0 -91.333 -18.667 -211.333 -56 -360c86 27.333 149.667 41 191 41c61.333 0 92 -24.667 92 -74c0 -21.333 -8.66699 -39.666 -26 -54.999s-38 -23 -62 -23c-36 0 -101 15.667 -195 47c0 -92 11 -225.333 33 -400s33 -330.667 33 -468
c0 -149.333 -6.66699 -256.666 -20 -321.999s-39 -98 -77 -98c-37.333 0 -62.333 32.333 -75 97s-19 172.334 -19 323.001c0 166.667 10.5 329.167 31.5 487.5s31.833 285.166 32.5 380.499z" />
    <glyph glyph-name="daggerdbl" unicode="&#x2021;" 
d="M332 37c-82 -27.333 -145.668 -40.998 -191.001 -40.998c-60 0 -90 25.333 -90 76c0 20.667 8.33301 38.334 25 53.001s37 22 61 22c40 0 105 -15.667 195 -47c0 77.333 -4.66699 153.666 -14 228.999l-13 111l14 132c8.66699 98.667 13 168.667 13 210
c-96 -31.333 -161 -47 -195 -47c-24 0 -44.333 7.66699 -61 23s-25 33.666 -25 54.999c0 49.333 30.667 74 92 74c42 0 105 -13.667 189 -41c-35.333 143.333 -53 264 -53 362c0 118.667 27.667 178 83 178c58 0 87 -59.333 87 -178
c0 -92.667 -18.667 -213.334 -56 -362.001c84.667 27.333 148.334 41 191.001 41c61.333 0 92 -24.667 92 -74c0 -21.333 -8.66699 -39.666 -26 -54.999s-38 -23 -62 -23c-36 0 -101 15.667 -195 47c0 -41.333 4.33301 -111.333 13 -210l14 -132l-14 -131
c-8.66699 -98.667 -13 -168.334 -13 -209.001c90 31.333 155 47 195 47c24 0 44.667 -7.5 62 -22.5s26 -32.5 26 -52.5c0 -50.667 -31.333 -76 -94 -76c-32 0 -73.667 7.33301 -125 22l-64 19c37.333 -148.667 56 -269.667 56 -363c0 -118.667 -29 -178 -87 -178
c-55.333 0 -83 59.333 -83 178c0 98.667 17.667 219.667 53 363z" />
    <glyph glyph-name="bullet" unicode="&#x2022;" horiz-adv-x="717" 
d="M106 719c0 68.667 25 127.832 75 177.499s109.667 74.5 179 74.5s128.666 -24.667 177.999 -74s74 -108.666 74 -177.999s-24.667 -129 -74 -179s-108.666 -75 -177.999 -75c-68.667 0 -128.167 25 -178.5 75s-75.5 109.667 -75.5 179z" />
    <glyph glyph-name="ellipsis" unicode="&#x2026;" horiz-adv-x="2048" 
d="M1595 94c0 30.667 11.167 56.834 33.5 78.501s48.833 32.5 79.5 32.5s56.834 -10.833 78.501 -32.5s32.5 -47.834 32.5 -78.501s-10.833 -57 -32.5 -79s-47.834 -33 -78.501 -33s-57.167 11 -79.5 33s-33.5 48.333 -33.5 79zM913 94c0 30.667 11.167 56.834 33.5 78.501
s48.833 32.5 79.5 32.5s56.834 -10.833 78.501 -32.5s32.5 -47.834 32.5 -78.501s-10.833 -57 -32.5 -79s-47.834 -33 -78.501 -33s-57.167 11 -79.5 33s-33.5 48.333 -33.5 79zM231 94c0 30.667 11.167 56.834 33.5 78.501s48.833 32.5 79.5 32.5
s56.834 -10.833 78.501 -32.5s32.5 -47.834 32.5 -78.501s-10.833 -57 -32.5 -79s-47.834 -33 -78.501 -33s-57.167 11 -79.5 33s-33.5 48.333 -33.5 79z" />
    <glyph glyph-name="perthousand" unicode="&#x2030;" horiz-adv-x="1450" 
d="M86 -61l700 1447h127l-698 -1447h-129zM223 657c-125.333 0 -188 121 -188 363c0 241.333 62.667 362 188 362c126 0 189 -120 189 -360c0 -243.333 -63 -365 -189 -365zM223 768c37.333 0 56 81.332 56 243.999c0 104 -4 173.667 -12 209s-22.667 53 -44 53
s-35.833 -20.667 -43.5 -62s-11.5 -108.666 -11.5 -201.999c0 -161.333 18.333 -242 55 -242zM1227 -14.001c-126 0 -189 120.667 -189 362c0 242 63 363 189 363c125.333 0 188 -120.333 188 -361c0 -242.667 -62.667 -364 -188 -364zM1227 95.999
c36.667 0 55 81.332 55 243.999c0 104 -4 173.667 -12 209s-22.333 53 -43 53c-22 0 -36.833 -20.667 -44.5 -62s-11.5 -108.666 -11.5 -201.999c0 -161.333 18.667 -242 56 -242zM784 -14.002c-125.333 0 -188 120.667 -188 362c0 242 62.667 363 188 363
c126 0 189 -120.333 189 -361c0 -242.667 -63 -364 -189 -364zM784 95.998c37.333 0 56 81.332 56 243.999c0 104 -4 173.667 -12 209s-22.667 53 -44 53s-35.833 -20.667 -43.5 -62s-11.5 -108.666 -11.5 -201.999c0 -161.333 18.333 -242 55 -242z" />
    <glyph glyph-name="guilsinglleft" unicode="&#x2039;" horiz-adv-x="299" 
d="M143 453l156 -478h-141l-160 478l160 477h141z" />
    <glyph glyph-name="guilsinglright" unicode="&#x203a;" horiz-adv-x="299" 
d="M156 453l-156 477h141l160 -477l-160 -478h-141z" />
    <glyph glyph-name="uni2044" unicode="&#x2044;" horiz-adv-x="362" 
d="M-238 -61l703 1447h125l-699 -1447h-129z" />
    <glyph glyph-name="uni2044" unicode="&#x2215;" horiz-adv-x="362" 
d="M-238 -61l703 1447h125l-699 -1447h-129z" />
    <glyph glyph-name="Euro" unicode="&#x20ac;" horiz-adv-x="748" 
d="M709 33c-36.667 -25.333 -71.6641 -41.333 -104.997 -48s-76.333 -10 -129 -10c-112.667 0 -203.834 45.833 -273.501 137.5s-112.834 225.5 -129.501 401.5h-86l20 119h60v92h-80l20 119h68c18.667 174.667 63 308 133 400s161.333 138 274 138
c86 0 158.333 -18.333 217 -55l-24 -166c-46.667 41.333 -106.667 62 -180 62c-138.667 0 -218.667 -126.333 -240 -379h375l-21 -119h-362v-92h346l-21 -119h-319c24 -251.333 107.333 -377 250 -377c37.333 0 70.166 4.66699 98.499 14s64.5 31.333 108.5 66v-184z" />
    <glyph glyph-name="trademark" unicode="&#x2122;" horiz-adv-x="2048" 
d="M489 651v697h-264v118h666v-118h-266v-697h-136zM983 651v815h199l198 -651h4l203 651h197v-815h-125v684h-4l-213 -684h-119l-213 684h-4v-684h-123z" />
    <glyph glyph-name="uni2126" unicode="&#x2126;" horiz-adv-x="1573" 
d="M496 160c-72 44.667 -127 88 -165 130c-58 64 -102.667 139.167 -134 225.5s-47 181.833 -47 286.5c0 130.667 26.5 250.834 79.5 360.501s130 193.834 231 252.501s216.833 88 347.5 88c224 0 396 -84.667 516 -254c87.333 -124 131 -273.333 131 -448
c0 -112 -18 -211.167 -54 -297.5s-83 -160.5 -141 -222.5c-35.333 -38.667 -85 -79 -149 -121l364 6v-166h-575v177c53.333 26.667 94.666 52.667 123.999 78c48 40.667 88.667 89 122 145s58.5 115.667 75.5 179s25.5 129.333 25.5 198c0 92 -16.5 184.5 -49.5 277.5
s-83 163.833 -150 212.5s-148.167 73 -243.5 73c-127.333 0 -226 -40 -296 -120c-97.333 -112.667 -146 -259.334 -146 -440.001c0 -144.667 30.333 -268.834 91 -372.501s144.334 -179.5 251.001 -227.5v-180h-577v168z" />
    <glyph glyph-name="partialdiff" unicode="&#x2202;" horiz-adv-x="1012" 
d="M422 1138l-135.001 59.999c46.667 104.667 102.667 179.667 168 225s129.333 68 192 68c50.667 0 96.5 -13.167 137.5 -39.5s71.833 -56.5 92.5 -90.5c31.333 -52.667 54.5 -115 69.5 -187s22.5 -154.667 22.5 -248c0 -192 -28.833 -362.833 -86.5 -512.5
s-135.5 -260.167 -233.5 -331.5s-194.333 -107 -289 -107c-91.333 0 -165.5 30.333 -222.5 91s-85.5 146 -85.5 256c0 150.667 51 279.667 153 387c131.333 138 347.666 209.667 648.999 215c-2.66699 112 -10.667 197.333 -24 256s-36 103.834 -68 135.501
s-69.667 47.5 -113 47.5c-41.333 0 -81.666 -16.5 -120.999 -49.5s-74.666 -91.5 -105.999 -175.5zM849.999 795.999c-162.667 -9.33301 -281.833 -32.001 -357.5 -68.001s-138 -94.833 -187 -176.5s-73.5 -164.5 -73.5 -248.5c0 -55.333 17 -101 51 -137
s73.667 -54 119 -54c50 0 103.333 18.333 160 55c78 50.667 141.5 128.834 190.5 234.501s81.5 237.167 97.5 394.5z" />
    <glyph glyph-name="uni2206" unicode="&#x2206;" horiz-adv-x="1253" 
d="M668 1409l577 -1409h-1233zM594 1059l-447 -959h844z" />
    <glyph glyph-name="product" unicode="&#x220f;" horiz-adv-x="1686" 
d="M161 1491h1362v-1922h-191v1748h-978v-1748h-193v1922z" />
    <glyph glyph-name="summation" unicode="&#x2211;" horiz-adv-x="1460" 
d="M139 1491h1237v-164h-988l607 -775l-649 -822h1040v-161h-1264v187l620 788l-603 772v175z" />
    <glyph glyph-name="radical" unicode="&#x221a;" horiz-adv-x="1124" 
d="M1055 1868l-307 -1946l-498 1028l-197 -96l-33 68l299 147l404 -825l260 1634z" />
    <glyph glyph-name="infinity" unicode="&#x221e;" horiz-adv-x="1460" 
d="M689 812c70 88 124.667 146.002 164 174.002c53.333 38.667 109.666 58 168.999 58c70 0 135.5 -25.333 196.5 -76s91.5 -132.334 91.5 -245.001c0 -78.667 -11.333 -140.5 -34 -185.5s-58 -81.167 -106 -108.5s-97.333 -41 -148 -41c-59.333 0 -115.666 19 -168.999 57
c-39.333 28.667 -94 87 -164 175c-90.667 -114 -187 -171 -289 -171c-67.333 0 -125.166 25.5 -173.499 76.5s-72.5 114.5 -72.5 190.5c0 75.333 24.167 138.666 72.5 189.999s106.166 77 173.499 77c102 0 198.333 -57 289 -171zM758 717.002
c58 -90 111.001 -151.667 159.001 -185c30.667 -22 65 -33 103 -33c50.667 0 93.167 18.667 127.5 56s51.5 90 51.5 158c0 70.667 -17.5 124.667 -52.5 162s-78.5 56 -130.5 56c-32.667 0 -63.334 -9.33301 -92.001 -28c-38.667 -26 -94 -88 -166 -186zM620.001 716.002
c-53.333 66.667 -95.999 109.499 -127.999 128.499s-62.667 28.5 -92 28.5c-38.667 0 -70.834 -13.667 -96.501 -41s-38.5 -65 -38.5 -113c0 -47.333 13.333 -85.166 40 -113.499s59 -42.5 97 -42.5c67.333 0 140 51 218 153z" />
    <glyph glyph-name="integral" unicode="&#x222b;" horiz-adv-x="561" 
d="M602 1760c0 -26 -9.83203 -47.335 -29.499 -64.002s-44.834 -25 -75.501 -25c-24.667 0 -44.667 8.33301 -60 25s-30 25 -44 25c-12 0 -21.167 -4.83301 -27.5 -14.5s-9.5 -24.167 -9.5 -43.5c0 -22.667 6.5 -108 19.5 -256s19.5 -331.667 19.5 -551
c0 -336.667 -10 -573.167 -30 -709.5s-46.333 -230.5 -79 -282.5c-17.333 -27.333 -39.833 -48 -67.5 -62s-56.167 -21 -85.5 -21c-32.667 0 -61.334 11.667 -86.001 35s-37 51.666 -37 84.999c0 25.333 8.5 47 25.5 65s38.5 27 64.5 27c22.667 0 44.5 -11 65.5 -33
s35.833 -33 44.5 -33c16.667 0 29.834 14.833 39.501 44.5s14.5 80.834 14.5 153.501c0 24.667 -2 90.334 -6 197.001s-6 294 -6 562c0 320.667 5.66699 533.5 17 638.5s25 176.833 41 215.5c19.333 46.667 42.333 81.334 69 104.001s54.667 34 84 34
c38 0 70.667 -10.833 98 -32.5s41 -49.5 41 -83.5z" />
    <glyph glyph-name="approxequal" unicode="&#x2248;" horiz-adv-x="1124" 
d="M1022 874l51 -0.000976562c-14 -103.333 -45.833 -182.666 -95.5 -237.999s-111.834 -83 -186.501 -83c-64.667 0 -166 39 -304 117c-92.667 52 -163 78 -211 78c-99.333 0 -158.666 -62.333 -177.999 -187h-47c13.333 102.667 44.5 182 93.5 238s109.5 84 181.5 84
c31.333 0 67 -6.5 107 -19.5s114.667 -48.833 224 -107.5c78.667 -41.333 143 -62 193 -62c96 0 153.333 60 172 180zM1022 486.999l51.001 -0.000976562c-14 -103.333 -45.833 -182.666 -95.5 -237.999s-111.834 -83 -186.501 -83c-64 0 -153.5 32.333 -268.5 97
s-197.167 97 -246.5 97c-99.333 0 -158.666 -62 -177.999 -186h-47c13.333 102 44.5 180.833 93.5 236.5s109.5 83.5 181.5 83.5c31.333 0 68.666 -7.16699 111.999 -21.5s116.333 -48.833 219 -103.5c78.667 -41.333 143 -62 193 -62c96 0 153.333 60 172 180z" />
    <glyph glyph-name="notequal" unicode="&#x2260;" horiz-adv-x="1124" 
d="M1106 279h-621l-184 -330l-100 57l151 273h-321v112h385l157 285h-542v112h606l186 336l101 -57l-156 -279h338v-112h-399l-160 -285h559v-112z" />
    <glyph glyph-name="lessequal" unicode="&#x2264;" horiz-adv-x="1124" 
d="M1077 240l-1018 471v127l1018 471v-127l-887 -408l887 -407v-127zM1077 0h-1018v112h1018v-112z" />
    <glyph glyph-name="greaterequal" unicode="&#x2265;" horiz-adv-x="1124" 
d="M1077 711l-1018 -471v127l887 407l-887 408v127l1018 -471v-127zM1077 0h-1018v112h1018v-112z" />
    <glyph glyph-name="lozenge" unicode="&#x25ca;" horiz-adv-x="1012" 
d="M962 763l-397 -763h-122l-397 763l397 763h122zM839 763l-335 652l-335 -652l335 -652z" />
    <glyph glyph-name="uniF001" unicode="&#xf001;" horiz-adv-x="748" 
d="M113 0v767.999h-90v139h90v133c0 230.667 106.333 346 319 346v-133c-56.667 0 -97.5 -16.167 -122.5 -48.5s-37.5 -91.166 -37.5 -176.499v-121h131v-139h-131v-768h-159zM475 1217c0 25.333 9 47 27 65s39.667 27 65 27c26 0 47.833 -9 65.5 -27s26.5 -39.667 26.5 -65
c0 -26 -8.83301 -48 -26.5 -66s-39.5 -27 -65.5 -27c-25.333 0 -47 9 -65 27s-27 40 -27 66zM487 -0.000976562v907h160v-907h-160z" />
    <glyph glyph-name="uniF001" unicode="&#xfb01;" horiz-adv-x="748" 
d="M113 0v767.999h-90v139h90v133c0 230.667 106.333 346 319 346v-133c-56.667 0 -97.5 -16.167 -122.5 -48.5s-37.5 -91.166 -37.5 -176.499v-121h131v-139h-131v-768h-159zM475 1217c0 25.333 9 47 27 65s39.667 27 65 27c26 0 47.833 -9 65.5 -27s26.5 -39.667 26.5 -65
c0 -26 -8.83301 -48 -26.5 -66s-39.5 -27 -65.5 -27c-25.333 0 -47 9 -65 27s-27 40 -27 66zM487 -0.000976562v907h160v-907h-160z" />
    <glyph glyph-name="uniF002" unicode="&#xf002;" horiz-adv-x="748" 
d="M113 0v768.001h-90v139h90v129c0 233.333 106.333 350 319 350v-133c-58 0 -99.167 -16.333 -123.5 -49s-36.5 -91.334 -36.5 -176.001v-121h131v-139h-131v-768h-159zM487 0.000976562v1368h160v-1368h-160z" />
    <glyph glyph-name="uniF002" unicode="&#xfb02;" horiz-adv-x="748" 
d="M113 0v768.001h-90v139h90v129c0 233.333 106.333 350 319 350v-133c-58 0 -99.167 -16.333 -123.5 -49s-36.5 -91.334 -36.5 -176.001v-121h131v-139h-131v-768h-159zM487 0.000976562v1368h160v-1368h-160z" />
    <glyph glyph-name=".null" horiz-adv-x="0" 
 />
    <glyph glyph-name="nonmarkingreturn" horiz-adv-x="682" 
 />
    <glyph glyph-name="apple" horiz-adv-x="1618" 
 />
    <glyph glyph-name="commaaccent" horiz-adv-x="682" 
d="M264 -506l-2 14c20 30 33.167 58.333 39.5 85s9.5 64.667 9.5 114c-48.667 10.667 -73 40.667 -73 90c0 28.667 9.5 52.667 28.5 72s40.833 29 65.5 29c30.667 0 57 -13.167 79 -39.5s33 -65.166 33 -116.499c0 -114.667 -60 -197.334 -180 -248.001z" />
    </font>
</defs>
</svg>
