<?xml version="1.0" standalone="no"?>
<!DOCTYPE svg PUBLIC "-//W3C//DTD SVG 1.1//EN" "http://www.w3.org/Graphics/SVG/1.1/DTD/svg11.dtd" >
<svg>
<metadata>
Created by FontForge 20090914 at Mon Nov 19 20:18:03 2012
 By www-data
io grafix 1998
</metadata>
<defs>
<font id="Cafeta" horiz-adv-x="1024" >
  <font-face 
    font-family="cafeta"
    font-weight="400"
    font-stretch="condensed"
    units-per-em="2048"
    panose-1="2 11 6 8 2 2 2 5 2 4"
    ascent="1638"
    descent="-410"
    x-height="1067"
    cap-height="1446"
    bbox="-276 -483 2048 1849"
    underline-thickness="133"
    underline-position="-102"
    unicode-range="U+0020-U+F002"
  />
<missing-glyph 
d="M128 0v1849h768v-1849h-768zM256 128h512v1593h-512v-1593z" />
    <glyph glyph-name=".notdef" 
d="M128 0v1849h768v-1849h-768zM256 128h512v1593h-512v-1593z" />
    <glyph glyph-name="space" unicode=" " horiz-adv-x="416" 
 />
    <glyph glyph-name="exclam" unicode="!" horiz-adv-x="440" 
d="M152 418l-48 1028h230l-47 -1028h-135zM113 0v227h213v-227h-213z" />
    <glyph glyph-name="quotedbl" unicode="&#x22;" horiz-adv-x="643" 
d="M395 1436h164v-557h-164v557zM86 1436h164v-557h-164v557z" />
    <glyph glyph-name="numbersign" unicode="#" horiz-adv-x="1575" 
d="M709 852l-91 -254h256l91 254h-256zM735 1460h191l-154 -436h250l156 436h190l-154 -436h291l-59 -172h-293l-90 -252h309l-61 -172h-307l-156 -434h-191l156 434h-252l-158 -434h-190l156 434h-299l61 172h297l90 252h-315l61 172h316z" />
    <glyph glyph-name="dollar" unicode="$" horiz-adv-x="831" 
d="M350 932v338c-50.667 -32 -76 -85.333 -76 -160c0 -64 25.333 -123.333 76 -178zM471 172c62.667 20.667 94 86.333 94 197c0 78.667 -31.333 146 -94 202v-399zM350 -31.001c-141.333 26 -235.333 97.667 -282 215l149 135c26.667 -68 71 -116.333 133 -145v479
c-180 132 -270 279 -270 441c0 89.333 23 169 69 239c50 75.333 117 122 201 140v176h121v-174c99.333 -14 182 -68.667 248 -164l-131 -133c-30 52 -69 85 -117 99v-439c98 -72 169 -141 213 -207c54.667 -81.333 82 -175 82 -281c0 -97.333 -25 -181 -75 -251
c-54 -76.667 -127.333 -120.667 -220 -132v-172h-121v174z" />
    <glyph glyph-name="percent" unicode="%" horiz-adv-x="1061" 
d="M881 195v329c0 52 -22 78 -66 78c-42 0 -63 -25.333 -63 -76v-331c0 -60.667 21 -91 63 -91c44 0 66 30.333 66 91zM1036 231c0 -174.667 -73.667 -262 -221 -262s-221 89 -221 267v260c0 74 19.5 132.667 58.5 176s95.167 65 168.5 65c70 0 124.333 -23.667 163 -71
c34.667 -44 52 -102 52 -174v-261zM109 0l653 1446h176l-653 -1446h-176zM307 932v332c0 50 -21 75 -63 75c-44 0 -66 -25 -66 -75v-332c0 -58.667 22 -88 66 -88c42 0 63 29.333 63 88zM465 969c0 -174.667 -73.667 -262 -221 -262s-221 88.667 -221 266v260
c0 74 19.167 132.833 57.5 176.5s94.166 65.5 167.499 65.5c70.667 0 125.334 -24 164.001 -72c35.333 -44 53 -102 53 -174v-260z" />
    <glyph glyph-name="ampersand" unicode="&#x26;" horiz-adv-x="903" 
d="M365 889c74.667 110.667 112 207.666 112 290.999c0 95.333 -28 143 -84 143c-32 0 -56.333 -23 -73 -69c-11.333 -33.333 -17 -69.666 -17 -108.999c0 -82 20.667 -167.333 62 -256zM315 521.999c-40.667 -68 -61.001 -130.668 -61.001 -188.001
c0 -39.333 10 -71.666 30 -96.999c22 -28 52.333 -42 91 -42c44.667 0 79.334 19 104.001 57c-47.333 56 -102 146 -164 270zM609.999 87.998c-67.333 -80.667 -151.332 -120.999 -251.999 -120.999c-96 0 -172 34.333 -228 103c-52.667 64 -79 145 -79 243
c0 126.667 57.333 262 172 406c-66.667 154 -100 292 -100 414c0 92.667 23 171 69 235c51.333 71.333 121.666 107 210.999 107c84 0 148.333 -30.667 193 -92c40.667 -54.667 61 -125.334 61 -212.001c0 -78 -22 -159.667 -66 -245c-26 -50 -72.667 -121.667 -140 -215
c40 -87.333 89.667 -178.333 149 -273c32 60 58 142 78 246l186 -49c-14 -120 -57.667 -242.333 -131 -367c30 -42 67 -70 111 -84v-217c-89.333 6.66699 -167.333 47 -234 121z" />
    <glyph glyph-name="quotesingle" unicode="'" horiz-adv-x="334" 
d="M86 1436h164v-557h-164v557z" />
    <glyph glyph-name="parenleft" unicode="(" horiz-adv-x="563" 
d="M537 -131l-142 -85.999c-195.333 287.333 -293 582.333 -293 885c0 284.667 78.667 553.667 236 807h192c-148.667 -244 -223 -509.667 -223 -797c0 -290.667 76.667 -560.334 230 -809.001z" />
    <glyph glyph-name="parenright" unicode=")" horiz-adv-x="563" 
d="M27 -131c154 252.667 231 522.332 231 808.999c0 284.667 -75 550.334 -225 797.001h194c156 -250 234 -519 234 -807c0 -302.667 -97.667 -597.667 -293 -885z" />
    <glyph glyph-name="asterisk" unicode="*" horiz-adv-x="788" 
d="M393 1055l-127 -248l-129 96l197 197l-273 45l50 151l245 -127l-37 277h150l-37 -277l246 127l49 -151l-272 -45l196 -197l-129 -96z" />
    <glyph glyph-name="plus" unicode="+" horiz-adv-x="1706" 
d="M768 1221h170v-527h514v-166h-514v-528h-170v528h-514v166h514v527z" />
    <glyph glyph-name="comma" unicode="," horiz-adv-x="440" 
d="M115 0v227h213v-227l-115 -256h-98l73 256h-73z" />
    <glyph glyph-name="hyphen" unicode="-" horiz-adv-x="635" 
d="M80 457v151h475v-151h-475z" />
    <glyph glyph-name="hyphen" unicode="&#x2010;" horiz-adv-x="635" 
d="M80 457v151h475v-151h-475z" />
    <glyph glyph-name="period" unicode="." horiz-adv-x="440" 
d="M115 0v227h213v-227h-213z" />
    <glyph glyph-name="slash" unicode="/" horiz-adv-x="500" 
d="M-154 -190l586 1665h162l-586 -1665h-162z" />
    <glyph glyph-name="zero" unicode="0" horiz-adv-x="831" 
d="M301 309c0 -90 39.667 -135 119 -135c74.667 0 112 45 112 135v846c0 34.667 -10.667 62.5 -32 83.5s-49.333 31.5 -84 31.5c-33.333 0 -60.833 -10.5 -82.5 -31.5s-32.5 -48.167 -32.5 -81.5v-848zM84 1112c0 110.667 28.334 198.334 85.001 263.001
c59.333 68 143.666 102 252.999 102c106 0 188.333 -36 247 -108c54 -66.667 81 -154.334 81 -263.001v-741c0 -118 -25.667 -211.333 -77 -280c-57.333 -77.333 -143 -116 -257 -116c-221.333 0 -332 134 -332 402v741z" />
    <glyph glyph-name="one" unicode="1" horiz-adv-x="530" 
d="M-10 1122l-0.000976562 146.001c112.667 39.333 195.334 98.666 248.001 177.999h149v-1446h-221v1122h-176z" />
    <glyph glyph-name="two" unicode="2" horiz-adv-x="809" 
d="M61 0l0.000976562 209c303.333 418 455 717 455 897c0 116 -33.333 174 -100 174c-42 0 -72.333 -17 -91 -51c-14.667 -28 -23.334 -77.667 -26.001 -149l-2 -54h-217v27c0 122.667 25 220.667 75 294c58.667 85.333 146.334 128 263.001 128c98 0 174.333 -34 229 -102
c50.667 -62.667 76 -144.334 76 -245.001c0 -133.333 -50 -294.666 -150 -483.999c-48.667 -90.667 -139.334 -235.667 -272.001 -435h404v-209h-644z" />
    <glyph glyph-name="three" unicode="3" horiz-adv-x="762" 
d="M57 418l210.997 0.00292969v-60c0 -121.333 35 -182 105 -182c79.333 0 119 69 119 207c0 87.333 -9.33301 149.666 -28 186.999c-27.333 52.667 -79.666 79 -156.999 79h-28v203c4 0 9.66699 0.333008 17 1s13 1 17 1c62.667 0 106.334 22.667 131.001 68
c18 33.333 27 85 27 155c0 126 -31.333 189 -94 189c-70 0 -105 -52.667 -105 -158c0 -22 0.666992 -40.333 2 -55h-211v12c0 115.333 23 208.666 69 279.999c54.667 85.333 136.334 128 245.001 128c194 0 291 -136.667 291 -410
c0 -158.667 -41.667 -262.334 -125 -311.001c62 -30.667 104.333 -78.667 127 -144c16 -46.667 24 -112.667 24 -198c0 -292.667 -103 -439 -309 -439c-113.333 0 -198.333 41.667 -255 125c-48.667 71.333 -73 166.333 -73 285v37z" />
    <glyph glyph-name="four" unicode="4" horiz-adv-x="817" 
d="M422 543v528l-180 -528h180zM51 352v191l371 903h209v-903h135v-191h-135v-352h-209v352h-371z" />
    <glyph glyph-name="five" unicode="5" horiz-adv-x="786" 
d="M84 403h199.001v-73c0 -109.333 38.667 -164 116 -164c68.667 0 103 47.667 103 143v369c0 79.333 -31.333 119 -94 119c-58.667 0 -99.667 -39 -123 -117l-183 8l25 758h545l8 -209h-377l-18 -340c64 62.667 130.667 94 200 94c146.667 0 220 -101.667 220 -305v-367
c0 -104.667 -27 -188 -81 -250c-56.667 -66.667 -136.334 -100 -239.001 -100c-200.667 0 -301 130.333 -301 391v43z" />
    <glyph glyph-name="six" unicode="6" horiz-adv-x="831" 
d="M309 608l-0.000976562 -298.999c0 -38.667 10 -70.334 30 -95.001c22 -26.667 51.667 -40 89 -40c74 0 111 45 111 135v281c0 74.667 -32.333 112 -97 112c-51.333 0 -95.666 -31.333 -132.999 -94zM757.999 365.001c0 -118 -26 -211.333 -78 -280
c-58 -77.333 -144 -116 -258 -116c-221.333 0 -332 134 -332 402v741c0 110.667 28.667 198.334 86 263.001c60 68 144.667 102 254 102c105.333 0 187.333 -36.333 246 -109c54.667 -66.667 82 -154 82 -262v-45h-219v94c0 34 -10.667 61.667 -32 83s-49 32 -83 32
c-33.333 0 -60.833 -10.5 -82.5 -31.5s-32.5 -48.167 -32.5 -81.5v-356c58.667 61.333 127 92 205 92c82 0 144 -27 186 -81c38.667 -48.667 58 -115.334 58 -200.001v-247z" />
    <glyph glyph-name="seven" unicode="7" horiz-adv-x="649" 
d="M12 1237v209h606v-158l-270 -1288h-215l266 1237h-387z" />
    <glyph glyph-name="eight" unicode="8" horiz-adv-x="762" 
d="M385 879c64 0 96 69.332 96 207.999c0 64.667 -3.33301 109.334 -10 134.001c-14 52.667 -44 79 -90 79c-45.333 0 -75 -25.667 -89 -77c-7.33301 -26 -11 -70.333 -11 -133c0 -64 3.66699 -109 11 -135c14.667 -50.667 45.667 -76 93 -76zM387 173.999
c71.333 0 107 78 107 234c0 69.333 -3.66699 119 -11 149c-15.333 61.333 -47.333 92 -96 92c-52 0 -86.667 -25 -104 -75c-10 -28.667 -15 -76 -15 -142c0 -76 4 -129.667 12 -161c17.333 -64.667 53 -97 107 -97zM203 769.999c-80.667 57.333 -121 166.666 -121 327.999
c0 251.333 100.333 377 301 377c198 0 297 -125 297 -375c0 -161.333 -39.667 -272 -119 -332c94 -49.333 141 -175.666 141 -378.999c0 -280 -106.333 -420 -319 -420c-216 0 -324 146.333 -324 439c0 179.333 48 300 144 362z" />
    <glyph glyph-name="nine" unicode="9" horiz-adv-x="831" 
d="M520 838l-0.000976562 299c0 88.667 -39.667 133 -119 133c-73.333 0 -110 -49.333 -110 -148v-202c0 -113.333 36.667 -170 110 -170c52.667 0 92.334 29.333 119.001 88zM71.999 340l0.000976562 45h219v-96c0 -76.667 38.333 -115 115 -115
c33.333 0 60.666 10.833 81.999 32.5s32 49.167 32 82.5v356c-52 -54.667 -110 -82 -174 -82c-188.667 0 -283 149 -283 447c0 311.333 115 467 345 467c220.667 0 331 -134 331 -402v-741c0 -111.333 -28.667 -199.333 -86 -264c-59.333 -67.333 -144 -101 -254 -101
c-105.333 0 -187.333 36.333 -246 109c-54 66.667 -81 154 -81 262z" />
    <glyph glyph-name="colon" unicode=":" horiz-adv-x="440" 
d="M115 0v227h213v-227h-213zM115 408v227h213v-227h-213z" />
    <glyph glyph-name="semicolon" unicode=";" horiz-adv-x="440" 
d="M115 408v227h213v-227h-213zM115 0v227h213v-227l-115 -256h-98l73 256h-73z" />
    <glyph glyph-name="less" unicode="&#x3c;" horiz-adv-x="1706" 
d="M1442 1176v-185l-934 -381l934 -381v-182l-1178 483v160z" />
    <glyph glyph-name="equal" unicode="=" horiz-adv-x="1706" 
d="M254 487h1198v-165h-1198v165zM254 901h1198v-168h-1198v168z" />
    <glyph glyph-name="greater" unicode="&#x3e;" horiz-adv-x="1706" 
d="M264 1176l1178 -486v-160l-1178 -483v182l934 381l-934 381v185z" />
    <glyph glyph-name="question" unicode="?" horiz-adv-x="631" 
d="M203 426c0 6.66699 -0.332031 16.499 -0.999023 29.499s-1 22.833 -1 29.5c0 138 21 263 63 375c3.33301 9.33301 30 64.666 80 165.999c38 76.667 57 129.334 57 158.001c0 64 -28 96 -84 96c-48 0 -93.667 -51.333 -137 -154l-174 72
c53.333 184.667 155.666 277 306.999 277c88 0 158.167 -24.667 210.5 -74s78.5 -117.666 78.5 -204.999c0 -68 -23.667 -146 -71 -234c-72 -134.667 -110.333 -207.667 -115 -219c-27.333 -70 -41 -151 -41 -243v-37c0.666992 -16.667 1 -29 1 -37h-173z
M182.001 -0.000976562v238h215v-238h-215z" />
    <glyph glyph-name="at" unicode="@" horiz-adv-x="2048" 
d="M1174 283c-70.667 -112 -172.001 -168.001 -304.001 -168.001c-208.667 0 -313 112 -313 336c0 144.667 41.667 271.334 125 380.001c90 118 205.333 177 346 177c114.667 0 197.334 -47.333 248.001 -142l55 107h154l-148 -586
c-0.666992 -2.66699 -1.33398 -6.66699 -2.00098 -12c-4 -20 -6 -32.333 -6 -37c0 -56 32 -84 96 -84c70.667 0 141.667 38.333 213 115c98.667 106 148 237 148 393c0 181.333 -69 324 -207 428c-125.333 94 -281.666 141 -468.999 141
c-182.667 0 -339.667 -41.667 -471 -125c-251.333 -159.333 -377 -388 -377 -686c0 -218 74.667 -389 224 -513c140 -115.333 321.333 -173 544 -173c226.667 0 431.667 63.667 615 191l67 -99c-199.333 -151.333 -424 -227 -674 -227c-256 0 -466.667 63.333 -632 190
c-205.333 157.333 -308 368.333 -308 633c0 224 68.333 419.333 205 586c199.333 243.333 470.333 365 813 365c230.667 0 420.667 -57.667 570 -173c176 -136 264 -314.667 264 -536c0 -225.333 -83.333 -405 -250 -539c-92.667 -74.667 -198.667 -112 -318 -112
c-138.667 0 -208 55.333 -208 166v4zM1233 706.999c-19.333 117.333 -80.667 176 -184 176c-97.333 0 -175.333 -51 -234 -153c-49.333 -86 -74 -181.333 -74 -286c0 -136 58 -204 174 -204c64.667 0 121.667 24.333 171 73c45.333 44.667 76 100 92 166z" />
    <glyph glyph-name="A" unicode="A" horiz-adv-x="791" 
d="M12 0l238 1446h291l237 -1446h-229l-45 313h-225l-48 -313h-219zM307 518h170l-76 604h-14z" />
    <glyph glyph-name="B" unicode="B" horiz-adv-x="868" 
d="M336 844h90c86 0 129 66 129 198c0 130 -49 195 -147 195h-72v-393zM336 209l96.001 -0.000976562c92.667 0 139 69 139 207c0 70.667 -9.66699 122.334 -29 155.001c-24.667 42.667 -69.334 64 -134.001 64h-72v-426zM115.001 -0.000976562l0.000976562 1446h295
c119.333 0 211.166 -32.833 275.499 -98.5s96.5 -158.5 96.5 -278.5c0 -142.667 -51.667 -252.667 -155 -330c116 -66.667 174 -184 174 -352c0 -258 -119 -387 -357 -387h-329z" />
    <glyph glyph-name="C" unicode="C" horiz-adv-x="850" 
d="M88 371v741c0 112.667 30 201 90 265c62 66.667 148.667 100 260 100c108 0 192 -35.333 252 -106c56 -66.667 84 -155 84 -265v-139h-229v159c0 100 -38.333 150 -115 150s-115 -50 -115 -150v-807c0 -100.667 38.333 -151 115 -151s115 50.333 115 151v197h229v-151
c0 -120 -27 -214.333 -81 -283c-59.333 -75.333 -147 -113 -263 -113c-228 0 -342 134 -342 402z" />
    <glyph glyph-name="D" unicode="D" horiz-adv-x="881" 
d="M336 213h113c77.333 0 116 50.667 116 152v696c0 114.667 -59.333 172 -178 172h-51v-1020zM115 0v1446h317c240.667 0 361 -132.333 361 -397v-646c0 -132.667 -25 -231 -75 -295c-56 -72 -148 -108 -276 -108h-327z" />
    <glyph glyph-name="E" unicode="E" horiz-adv-x="754" 
d="M115 0v1446h581v-209h-358v-379h258v-209h-258v-432h358v-217h-581z" />
    <glyph glyph-name="F" unicode="F" horiz-adv-x="684" 
d="M115 0v1446h581v-209h-358v-379h258v-209h-258v-649h-223z" />
    <glyph glyph-name="G" unicode="G" horiz-adv-x="852" 
d="M88 371v741c0 112.667 30 201 90 265c62 66.667 148.667 100 260 100c214.667 0 322 -123.667 322 -371v-133h-215v153c0 100 -38.333 150 -115 150s-115 -50 -115 -150v-807c0 -100.667 38.333 -151 115 -151s115 50.333 115 151v226h-135v184h350v-729l-150 100
c-48 -87.333 -119.667 -131 -215 -131c-204.667 0 -307 134 -307 402z" />
    <glyph glyph-name="H" unicode="H" horiz-adv-x="897" 
d="M115 1446h221v-590h223v590h223v-1446h-223v647h-223v-647h-221v1446z" />
    <glyph glyph-name="I" unicode="I" horiz-adv-x="451" 
d="M115 0v1446h227v-1446h-227z" />
    <glyph glyph-name="J" unicode="J" horiz-adv-x="473" 
d="M-12 0v223l16.5 -2c11 -1.33301 20.5 -2 28.5 -2c78 0 117 40.333 117 121v1106h223v-1063c0 -255.333 -86.667 -383 -260 -383h-125z" />
    <glyph glyph-name="K" unicode="K" horiz-adv-x="840" 
d="M115 0l0.000976562 1446h223v-610c11.333 41.333 21.666 72.666 30.999 93.999l221 516h221l-248 -494l277 -952h-232l-188 727l-82 -164v-563h-223z" />
    <glyph glyph-name="L" unicode="L" horiz-adv-x="692" 
d="M680 0l16 215.999c-109.333 -0.666992 -169.5 -1.66699 -180.5 -3s-20.5 -2 -28.5 -2c-78 0 -117 40.333 -117 121v1106h-223v-1063c0 -130 21.333 -226.333 64 -289c44.667 -65.333 110 -96.666 196 -93.999z" />
    <glyph glyph-name="M" unicode="M" horiz-adv-x="1149" 
d="M115 0l0.000976562 1446h297l145 -801c12 -66 18 -138.333 18 -217c0 62.667 7 134.334 21 215.001l139 803h301v-1446h-209v913c0 53.333 5.66699 137.333 17 252c0 -2 -4.33301 -28.667 -13 -80c-6.66699 -41.333 -14 -83 -22 -125l-182 -960h-111l-174 961
c-6.66699 48 -18.334 116 -35.001 204c10 -106 15 -190 15 -252v-913h-207z" />
    <glyph glyph-name="N" unicode="N" horiz-adv-x="938" 
d="M115 0l0.000976562 1446h200l283 -864c11.333 -34 25.666 -85.333 42.999 -154c-16.667 95.333 -25 160.333 -25 195v823h209v-1446h-209l-272 799c0 0.666992 -0.333008 1.66699 -1 3l-4 12c-19.333 57.333 -33.333 104.666 -42 141.999
c16.667 -105.333 25 -172 25 -200v-756h-207z" />
    <glyph glyph-name="O" unicode="O" horiz-adv-x="862" 
d="M545 319v807c0 100 -38.333 150 -115 150s-115 -50 -115 -150v-807c0 -100.667 38.333 -151 115 -151s115 50.333 115 151zM88 1112c0 112.667 30 201 90 265c62 66.667 148.667 100 260 100c108 0 192 -35.333 252 -106c56 -66.667 84 -155 84 -265v-741
c0 -120 -27 -214.333 -81 -283c-59.333 -75.333 -147 -113 -263 -113c-228 0 -342 134 -342 402v741z" />
    <glyph glyph-name="P" unicode="P" horiz-adv-x="829" 
d="M336 795l88 -0.000976562c60.667 0 100.667 24.667 120 74c11.333 28.667 17 80.334 17 155.001c0 71.333 -7 121 -21 149c-20.667 42.667 -62 64 -124 64h-80v-442zM113 -0.000976562v1446h327c130 0 222.667 -38.333 278 -115c46.667 -65.333 70 -166.333 70 -303
c0 -116.667 -20.333 -214 -61 -292c-52 -98.667 -131.333 -148 -238 -148h-153v-588h-223z" />
    <glyph glyph-name="Q" unicode="Q" horiz-adv-x="860" 
d="M513 319v807c0 100 -38.333 150 -115 150s-115 -50 -115 -150v-807c0 -100.667 38.333 -151 115 -151s115 50.333 115 151zM712 167c15.333 -29.333 42.334 -44 81.001 -44h11v-221h-25c-100.667 0 -171.667 38.667 -213 116c-56 -32.667 -116.667 -49 -182 -49
c-112.667 0 -197.334 40.333 -254.001 121c-49.333 69.333 -74 163 -74 281v741c0 112.667 30 201 90 265c62 66.667 148.667 100 260 100c108 0 192 -35.333 252 -106c56 -66.667 84 -155 84 -265v-741c0 -84.667 -10 -150.667 -30 -198z" />
    <glyph glyph-name="R" unicode="R" horiz-adv-x="854" 
d="M336 1237l0.000976562 -420.001h88c59.333 0 99 23.333 119 70c12 28.667 18 78.334 18 149.001c0 67.333 -7.66699 115 -23 143c-20.667 38.667 -61.334 58 -122.001 58h-80zM336.001 607.999v-608h-223v1446h327c130 0 222.667 -38.333 278 -115
c46.667 -65.333 70 -166.333 70 -303c0 -172 -47 -290.667 -141 -356l164 -672h-231l-138 608h-106z" />
    <glyph glyph-name="S" unicode="S" horiz-adv-x="803" 
d="M47 367l212.999 32.001c8 -143.333 57.333 -215 148 -215c41.333 0 74.5 13 99.5 39s37.5 59.667 37.5 101c0 75.333 -60 172.666 -180 291.999l-21 21c-92 92 -154.667 162 -188 210c-58.667 85.333 -88 172.333 -88 261c0 100 32.833 185.333 98.5 256
s148.167 106 247.5 106c100 0 180 -35.333 240 -106c54.667 -64.667 86 -148.667 94 -252l-218 -31c-7.33301 120.667 -48 181 -122 181c-79.333 0 -119 -44.667 -119 -134c0 -84 70 -193.667 210 -329l13 -13c86 -83.333 145 -151 177 -203
c48.667 -77.333 73 -162.333 73 -255c0 -103.333 -32 -189.333 -96 -258s-147.333 -103 -250 -103c-116 0 -206.667 38.333 -272 115c-59.333 70.667 -91.666 165.667 -96.999 285z" />
    <glyph glyph-name="T" unicode="T" horiz-adv-x="662" 
d="M-12 1237v209h686v-209h-232v-1237h-223v1237h-231z" />
    <glyph glyph-name="U" unicode="U" horiz-adv-x="885" 
d="M98 1446h228.001v-1120c0 -92 39.333 -138 118 -138c75.333 0 113 46 113 138v1120h227v-1081c0 -120 -26.333 -214.333 -79 -283c-58.667 -75.333 -146.334 -113 -263.001 -113c-229.333 0 -344 134 -344 402v1075z" />
    <glyph glyph-name="V" unicode="V" horiz-adv-x="786" 
d="M20 1446h218l133 -856c16 -102.667 24 -203 24 -301v-26c4 136 12.333 245 25 327l129 856h219l-256 -1446h-233z" />
    <glyph glyph-name="W" unicode="W" horiz-adv-x="1126" 
d="M12 1446l213 0.000976562l99 -857c9.33301 -80.667 14 -156.334 14 -227.001v-28c0 9.33301 1.33301 35.666 4 78.999c6 112 10.667 180.333 14 205l111 828h190l119 -856c10 -72 15 -157.333 15 -256c0 2.66699 0.666992 16.667 2 42c6.66699 123.333 12 204 16 242
l92 828h211l-225 -1446h-187l-122 839c-10 68.667 -15 154.334 -15 257.001c-1.33301 -64 -7.33301 -158.667 -18 -284l-119 -812h-186z" />
    <glyph glyph-name="X" unicode="X" horiz-adv-x="764" 
d="M-4 0l264 735l-260 711h231l136 -426h10l143 426h228l-252 -692l274 -754h-233l-146 471h-8l-158 -471h-229z" />
    <glyph glyph-name="Y" unicode="Y" horiz-adv-x="702" 
d="M-25 1446h226l145 -578h14l138 578h227l-260 -846v-600h-223v573z" />
    <glyph glyph-name="Z" unicode="Z" horiz-adv-x="774" 
d="M63 0v223l400 1000h-367v223h609v-209l-404 -1014h404v-223h-642z" />
    <glyph glyph-name="bracketleft" unicode="[" horiz-adv-x="563" 
d="M141 -186v1661h355v-185h-154v-1290h154v-186h-355z" />
    <glyph glyph-name="backslash" unicode="\" horiz-adv-x="500" 
d="M653 -190h-164l-585 1665h164z" />
    <glyph glyph-name="bracketright" unicode="]" horiz-adv-x="563" 
d="M422 -186h-352v186h153v1290h-153v185h352v-1661z" />
    <glyph glyph-name="asciicircum" unicode="^" horiz-adv-x="2048" 
d="M915 1460h218l495 -561h-207l-397 397l-399 -397h-207z" />
    <glyph glyph-name="underscore" unicode="_" 
d="M0 -311h1024v-172h-1024v172z" />
    <glyph glyph-name="grave" unicode="`" 
d="M467 1167l-188 222h251l99 -222h-162z" />
    <glyph glyph-name="a" unicode="a" horiz-adv-x="729" 
d="M452 472h-175.999l3 -188c1.33301 -83.333 30 -125 86 -125c59.333 0 88.666 41.667 87.999 125zM658.001 765v-479c0 -91.333 -27 -166 -81 -224c-56 -60 -129.333 -90 -220 -90s-160.5 27.167 -209.5 81.5s-73.5 145.5 -73.5 273.5c0 226.667 126 335 378 325l1 107
c0.666992 99.333 -28 149 -86 149c-32.667 0 -67 -6.66699 -103 -20l-80 156l160 48c209.333 4 314 -105 314 -327z" />
    <glyph glyph-name="b" unicode="b" horiz-adv-x="741" 
d="M297 203c30 -32.667 61.333 -49 94 -49c46.667 0 70 32 70 96v551c0 73.333 -27.333 110 -82 110c-28.667 0 -56 -14.333 -82 -43v-665zM96 0v1446h201v-465c54.667 66.667 113.334 100 176.001 100c128.667 0 193 -89.333 193 -268v-592
c0 -156.667 -60.333 -235 -181 -235c-74.667 0 -137.334 32 -188.001 96v-82h-201z" />
    <glyph glyph-name="c" unicode="c" horiz-adv-x="729" 
d="M76 301v470.999c0 94.667 26 171.334 78 230.001c54 61.333 127.667 92 221 92c92.667 0 164 -29.667 214 -89c46.667 -55.333 70 -130.333 70 -225v-84h-204v86c0 83.333 -28.667 125 -86 125c-58.667 0 -88 -41.667 -88 -125v-475c0 -99.333 28.667 -149 86 -149
c40 0 66 16 78 48c6.66699 17.333 10 51 10 101v82h204v-88c0 -220 -99 -330 -297 -330c-93.333 0 -165.333 32.333 -216 97c-46.667 59.333 -70 137 -70 233z" />
    <glyph glyph-name="d" unicode="d" horiz-adv-x="741" 
d="M465 203c-30 -32.667 -61.333 -49 -94 -49c-46.667 0 -70 32 -70 96v551c0 73.333 27.333 110 82 110c28.667 0 56 -14.333 82 -43v-665zM666 0v1446h-201v-465c-54.667 66.667 -113.334 100 -176.001 100c-128.667 0 -193 -89.333 -193 -268v-592
c0 -156.667 60.333 -235 181 -235c74.667 0 137.334 32 188.001 96v-82h201z" />
    <glyph glyph-name="e" unicode="e" horiz-adv-x="729" 
d="M250 596h175.999l-3 188c-1.33301 83.333 -30 125 -86 125c-59.333 0 -88.666 -41.667 -87.999 -125zM43.999 303v479c0 91.333 27.5 166.5 82.5 225.5s127.833 88.5 218.5 88.5s160.5 -27.167 209.5 -81.5s73.5 -145.5 73.5 -273.5c0 -226.667 -126 -335 -378 -325
l-1 -107c-0.666992 -99.333 28 -149 86 -149c32.667 0 67 6.66699 103 20l80 -156l-160 -48c-209.333 -4 -314 105 -314 327z" />
    <glyph glyph-name="f" unicode="f" horiz-adv-x="477" 
d="M123 0l0.000976562 901h-113v166h113v125c0 169.333 77 254 231 254c39.333 0 77.666 -5.33301 114.999 -16v-174l-53 10c-62.667 0 -94 -30 -94 -90v-109h127v-166h-127v-901h-199z" />
    <glyph glyph-name="g" unicode="g" horiz-adv-x="707" 
d="M418 553v248c0 72 -29.333 108 -88 108c-57.333 0 -86 -36 -86 -108v-248c0 -72.667 28.667 -109 86 -109c58.667 0 88 36.333 88 109zM301 -25c-50.667 -23.333 -76 -51.333 -76 -84c0 -28 18 -50 54 -66c28 -12 58 -18 90 -18c39.333 0 75 5.33301 107 16
c46 16 69 39.667 69 71c0 52.667 -81.333 79.667 -244 81zM191 313c-86.667 54 -129.999 138.004 -129.999 252.004v213c0 94.667 21.333 169.667 64 225c47.333 60.667 117 91 209 91c88.667 0 165.667 -39.667 231 -119c24 -44 36 -74.667 36 -92
c0 -4.66699 -1 -8.33398 -3 -11.001c1.33301 -24 2 -47.667 2 -71v-238c0 -192.667 -85.333 -288.334 -256 -287.001c-4.66699 0 -20.667 1.33301 -48 4c-2 0 -3.66699 0.333008 -5 1c-31.333 -23.333 -47 -46 -47 -68c0 -30.667 39 -48.334 117 -53.001
c48.667 -2.66699 86 -6 112 -10c168 -24.667 252 -104.667 252 -240c0 -168 -128.333 -252 -385 -252c-222.667 0 -334 56.667 -334 170c0 35.333 15 68 45 98c25.333 25.333 69.666 50.666 132.999 75.999c-82 20.667 -123 61.667 -123 123c0 62 43.333 124.667 130 188z
" />
    <glyph glyph-name="h" unicode="h" horiz-adv-x="756" 
d="M96 0v1446h201v-496c75.333 87.333 151 131 227 131c93.333 0 140 -62.667 140 -188v-893h-199v805c0 56 -17.667 84 -53 84c-34 0 -72.333 -26.667 -115 -80v-809h-201z" />
    <glyph glyph-name="i" unicode="i" horiz-adv-x="393" 
d="M96 1247v199h201v-199h-201zM96 0v1067h201v-1067h-201z" />
    <glyph glyph-name="j" unicode="j" horiz-adv-x="403" 
d="M104 1247v199h199v-199h-199zM303 1067v-1149c0 -169.333 -77 -254 -231 -254c-40 0 -77.667 5.66699 -113 17v172c18 -6 37.667 -9 59 -9c23.333 0 43.5 7.16699 60.5 21.5s25.5 33.166 25.5 56.499v1145h199z" />
    <glyph glyph-name="k" unicode="k" horiz-adv-x="711" 
d="M96 0v1446h201v-770l182 391h213l-198 -358l211 -709h-201l-139 528l-68 -125v-403h-201z" />
    <glyph glyph-name="l" unicode="l" horiz-adv-x="393" 
d="M24 1403v-1149c0 -169.333 77 -254 231 -254c40 0 77.667 5.66699 113 17v172c-18 -6 -37.667 -9 -59 -9c-23.333 0 -43.5 7.16699 -60.5 21.5s-25.5 33.166 -25.5 56.499v1145h-199z" />
    <glyph glyph-name="m" unicode="m" horiz-adv-x="1122" 
d="M96 0l-0.000976562 1067h201v-111c68.667 83.333 143 125 223 125c76 0 123.333 -41.667 142 -125c66.667 82 140.334 123 221.001 123c98 0 147 -60 147 -180v-899h-201v805c0 56 -17.667 84 -53 84c-34.667 0 -72.667 -26.667 -114 -80v-809h-185v805
c0 56 -19 84 -57 84c-37.333 0 -78.333 -26.667 -123 -80v-809h-201z" />
    <glyph glyph-name="n" unicode="n" horiz-adv-x="756" 
d="M96 0v1067h201v-117c75.333 87.333 151 131 227 131c93.333 0 140 -62.667 140 -188v-893h-199v805c0 56 -17.667 84 -53 84c-34 0 -72.333 -26.667 -115 -80v-809h-201z" />
    <glyph glyph-name="o" unicode="o" horiz-adv-x="727" 
d="M281 250c0 -61.333 27 -92 81 -92c58 0 87 30.667 87 92v581c0 52 -29 78 -87 78c-54 0 -81 -26 -81 -78v-581zM76 823c0 86 28.001 153.334 84.001 202.001c53.333 46 123.666 69 210.999 69c82 0 149.167 -25.667 201.5 -77s78.5 -118 78.5 -200v-551
c0 -91.333 -25.5 -163 -76.5 -215s-121.833 -78 -212.5 -78c-88.667 0 -158.667 27.667 -210 83c-50.667 53.333 -76 124.666 -76 213.999v553z" />
    <glyph glyph-name="p" unicode="p" horiz-adv-x="741" 
d="M297 864l0.000976562 -665c27.333 -30 54.666 -45 81.999 -45c54.667 0 82 37.333 82 112v551c0 62.667 -23.333 94 -70 94c-34 0 -65.333 -15.667 -94 -47zM96.001 -336v1403h201v-84c50.667 65.333 113.334 98 188.001 98c120.667 0 181 -79 181 -237v-590
c0 -178.667 -64.333 -268 -193 -268c-62.667 0 -121.334 33.333 -176.001 100v-422h-201z" />
    <glyph glyph-name="q" unicode="q" horiz-adv-x="741" 
d="M281 266c0 -74.667 26.333 -112 79 -112c27.333 0 55.333 15 84 45v665c-28.667 31.333 -60 47 -94 47c-46 0 -69 -31.333 -69 -94v-551zM76 254l0.000976562 590c0 158 59.333 237 178 237c76 0 139.333 -32.667 190 -98v84h199v-1403h-199v422
c-54.667 -66.667 -113.334 -100 -176.001 -100c-128 0 -192 89.333 -192 268z" />
    <glyph glyph-name="r" unicode="r" horiz-adv-x="539" 
d="M96 0l0.000976562 1067h201v-145c50.667 104.667 121 157 211 157h20v-223c-18.667 9.33301 -40.334 14 -65.001 14c-110.667 0 -166 -57.333 -166 -172v-698h-201z" />
    <glyph glyph-name="s" unicode="s" horiz-adv-x="686" 
d="M29 289l192.001 43.001c16 -116 59.667 -174 131 -174c61.333 0 92 31.333 92 94c0 56.667 -69 136.667 -207 240c-124 92.667 -186 196.334 -186 311.001c0 87.333 26.833 157.666 80.5 210.999s124.5 80 212.5 80c84 0 151.333 -25.333 202 -76
c48.667 -49.333 76 -116.333 82 -201l-188 -45c-14.667 90 -50 135 -106 135c-57.333 0 -86 -31.333 -86 -94c0 -46 47 -106.333 141 -181l59 -48c63.333 -52.667 108.666 -99 135.999 -139c38 -55.333 57 -116.333 57 -183c0 -88.667 -27.167 -159.334 -81.5 -212.001
s-126.166 -79 -215.499 -79c-90.667 0 -164.334 31 -221.001 93c-50.667 56 -82 131 -94 225z" />
    <glyph glyph-name="t" unicode="t" horiz-adv-x="545" 
d="M150 225l-0.00195312 676h-123l29 171l94 -5v307h198v-307h148v-166h-148v-657c0 -61.333 29.333 -92 88 -92c12.667 0 32.334 3.33301 59.001 10l1 -174c-35.333 -11.333 -73.666 -17 -114.999 -17c-154 0 -231 84.667 -231 254z" />
    <glyph glyph-name="u" unicode="u" horiz-adv-x="756" 
d="M657 1067v-1067h-198v117c-75.333 -88.667 -152 -133 -230 -133c-92.667 0 -139 63.333 -139 190v893h199v-819c0 -48 17.667 -72 53 -72s74.333 26.667 117 80v811h198z" />
    <glyph glyph-name="v" unicode="v" horiz-adv-x="614" 
d="M0 1067h184l123 -657h10l101 657h196l-206 -1067h-183z" />
    <glyph glyph-name="w" unicode="w" horiz-adv-x="940" 
d="M0 1067l190.001 0.000976562l80 -511c8 -52.667 15 -139.667 21 -261c1.33301 70 10 156.667 26 260l80 512h152l88 -512c15.333 -90.667 25 -177.334 29 -260.001v43c0 92 4 164.333 12 217l78 512h184l-182 -1067h-174l-92 520c-8.66699 50 -15 131 -19 243
c-2.66699 -54.667 -9.33398 -136 -20.001 -244l-78 -519h-176z" />
    <glyph glyph-name="x" unicode="x" horiz-adv-x="621" 
d="M-4 0l203 557l-189 510h199l96 -287h10l95 287h204l-196 -506l203 -561h-195l-113 328h-8l-115 -328h-194z" />
    <glyph glyph-name="y" unicode="y" horiz-adv-x="653" 
d="M16 1067l187.001 0.000976562l123 -684h8l100 684h199l-225 -1141c-18 -90 -47.667 -155.333 -89 -196c-46 -44 -113.333 -66 -202 -66c-34.667 0 -61.334 1 -80.001 3v190h37c58 0 99 13.667 123 41c22 25.333 35 67.666 39 126.999z" />
    <glyph glyph-name="z" unicode="z" horiz-adv-x="635" 
d="M53 0v178l326 703h-301v186h508v-176l-312 -701h312v-190h-533z" />
    <glyph glyph-name="braceleft" unicode="{" 
d="M874 1477l-0.00195312 -179c-5.33301 0 -13.166 0.333008 -23.499 1s-18.166 1 -23.499 1c-77.333 0 -128.666 -16.667 -153.999 -50c-21.333 -28.667 -32 -83.667 -32 -165v-241c0 -94 -11.667 -162 -35 -204c-29.333 -53.333 -85.333 -90 -168 -110
c82.667 -19.333 138.667 -55.666 168 -108.999c23.333 -42.667 35 -110.667 35 -204v-240c0 -81.333 11 -136.666 33 -165.999c26 -34 77.667 -51 155 -51c5.33301 0 12.833 0.333008 22.5 1s17.167 1 22.5 1v-176h-63c-126 0 -216.667 16.333 -272 49
c-46 27.333 -76.333 71.666 -91 132.999c-8 34.667 -12 90 -12 166v248c0 90.667 -15.667 155.667 -47 195c-34.667 44.667 -96 67 -184 67c-4.66699 0 -11.834 -0.333008 -21.501 -1s-16.834 -1 -21.501 -1v179c4.66699 0 11.834 -0.5 21.501 -1.5s16.834 -1.5 21.501 -1.5
c87.333 0 148.666 22 183.999 66c31.333 39.333 47 104.333 47 195v247c0 78 4 134 12 168c14 61.333 44.333 105.666 91 132.999c56 33.333 152.667 50 290 50h45z" />
    <glyph glyph-name="bar" unicode="|" 
d="M424 1565h178v-2048h-178v2048z" />
    <glyph glyph-name="braceright" unicode="}" 
d="M152 1477l44.998 0.000976562c136 0 232 -16.667 288 -50c46 -27.333 76.333 -71.666 91 -132.999c8 -34.667 12 -90.667 12 -168v-247c0 -91.333 15.667 -156.333 47 -195c34.667 -44 96 -66 184 -66c4.66699 0 11.834 0.5 21.501 1.5s16.834 1.5 21.501 1.5v-179
c-4.66699 0 -11.834 0.333008 -21.501 1s-16.834 1 -21.501 1c-88 0 -149.333 -22.333 -184 -67c-31.333 -39.333 -47 -104.333 -47 -195v-248c0 -76.667 -4 -132.334 -12 -167.001c-14.667 -60 -45 -104 -91 -132c-54.667 -32.667 -150.667 -49 -288 -49h-45v176
c5.33301 0 12.833 -0.333008 22.5 -1s17.167 -1 22.5 -1c77.333 0 128.666 17 153.999 51c21.333 28.667 32 84 32 166v240c0 92.667 12 160.667 36 204c30 52.667 86.333 89 169 109c-83.333 20 -139.666 56.333 -168.999 109c-24 43.333 -36 111.666 -36 204.999v241
c0 81.333 -10.333 136 -31 164c-25.333 34 -76.333 51 -153 51c-5.33301 0 -13.166 -0.333008 -23.499 -1s-18.166 -1 -23.499 -1v179z" />
    <glyph glyph-name="asciitilde" unicode="~" horiz-adv-x="1706" 
d="M1530 784l-0.00195312 -184c-136.667 -94 -263.667 -141 -381 -141c-59.333 0 -126 12.667 -200 38l-67 23c-141.333 49.333 -247.666 74 -318.999 74c-105.333 0 -233.666 -53.333 -384.999 -160v187c140.667 95.333 269.667 143 387 143c78 0 176 -20 294 -60
c0.666992 0 14.667 -5 42 -15c108 -38.667 191.333 -58 250 -58c110.667 0 237 51 379 153z" />
    <glyph glyph-name="nonbreakingspace" unicode="&#xa0;" horiz-adv-x="831" 
 />
    <glyph glyph-name="exclamdown" unicode="&#xa1;" horiz-adv-x="440" 
d="M152 1028h135l47 -1028h-230zM113 1446h213v-227h-213v227z" />
    <glyph glyph-name="cent" unicode="&#xa2;" horiz-adv-x="831" 
d="M125 492v478.999c0 164 76.333 265.667 229 305v244h123v-240c83.333 -20 143.333 -55.333 180 -106c34.667 -48 52 -115.667 52 -203v-84h-205v86c0 83.333 -28.667 125 -86 125c-58.667 0 -88 -41.667 -88 -125v-477c0 -46.667 3.66699 -79.667 11 -99
c12 -32.667 37 -49 75 -49c40.667 0 66.667 15.667 78 47c6.66699 17.333 10 51 10 101v84h205v-88c0 -187.333 -77.333 -295.333 -232 -324v-244h-123v242c-152.667 40.667 -229 149.334 -229 326.001z" />
    <glyph glyph-name="sterling" unicode="&#xa3;" horiz-adv-x="831" 
d="M104 0v193.001c56 10 100.667 36.667 134 80c32.667 41.333 49 91 49 149c0 37.333 -9 92.666 -27 165.999h-139v184h86c-57.333 142 -86 256 -86 342c0 98 27.333 181.333 82 250c59.333 74 137 111 233 111c222.667 0 334 -149 334 -447v-29l-221 1
c-2.66699 76.667 -8 130.667 -16 162c-16.667 70.667 -49.667 106 -99 106c-60 0 -90 -45 -90 -135c0 -66 24 -186.333 72 -361h246v-184h-205v-7c5.33301 -52.667 8 -90.667 8 -114c0 -94.667 -27.333 -180.667 -82 -258h391v-209h-670z" />
    <glyph glyph-name="currency" unicode="&#xa4;" horiz-adv-x="1241" 
d="M623 1176c-80 0 -148.499 -28.5 -205.499 -85.5s-85.5 -125.5 -85.5 -205.5c0 -81.333 28.167 -149.833 84.5 -205.5s125.166 -83.5 206.499 -83.5c80.667 0 149.167 28 205.5 84s84.5 124.333 84.5 205c0 80 -28.333 148.5 -85 205.5s-125 85.5 -205 85.5zM168.001 1430
l203.001 -203c73.333 54.667 156.666 82 249.999 82c95.333 0 179 -27.333 251 -82l203 203l94 -93l-204 -204c52.667 -72.667 79 -155.334 79 -248.001c0 -94 -26.333 -176.667 -79 -248l204 -205l-94 -92l-203 205c-74 -54.667 -157 -82 -249 -82
c-96 0 -180 27.333 -252 82l-203 -205l-92 92l203 205c-53.333 70.667 -80 153.334 -80 248.001c0 93.333 26.667 176 80 248l-203 204z" />
    <glyph glyph-name="yen" unicode="&#xa5;" horiz-adv-x="702" 
d="M-12 1446h213l141 -590h14l129 590h220l-158 -533h160v-90h-187l-39 -133h226v-90h-252v-600h-213v600h-248v90h221l-39 133h-182v90h153z" />
    <glyph glyph-name="brokenbar" unicode="&#xa6;" 
d="M424 408h178v-758h-178v758zM424 1432h178v-758h-178v758z" />
    <glyph glyph-name="section" unicode="&#xa7;" horiz-adv-x="885" 
d="M242 819c0 -45.333 47.002 -115 141.002 -209l15 -15c77.333 -77.333 133.666 -116 168.999 -116c48 0 72 26 72 78c0 35.333 -31.333 87.333 -94 156c-112.667 124 -189.334 186 -230.001 186c-48.667 0 -73 -26.667 -73 -80zM129.002 31l131.002 104.001
c65.333 -76.667 120 -115 164 -115c68 0 102 33.667 102 101c0 45.333 -36.667 106.666 -110 183.999l-191 201c-108 113.333 -162 211 -162 293c0 61.333 19 112.666 57 153.999c37.333 39.333 86.666 64.333 147.999 75c-62.667 76.667 -94 145.667 -94 207
c0 72.667 26 131.334 78 176.001c48.667 42.667 110 64 184 64c121.333 0 221 -52 299 -156l-129 -98c-60.667 66.667 -111.667 100 -153 100c-63.333 0 -95 -32.667 -95 -98c0 -34 39.667 -90.667 119 -170l172 -172c112 -112 168 -214.667 168 -308
c0 -121.333 -68.333 -196.333 -205 -225c66 -68.667 99 -145 99 -229c0 -82 -24.833 -145.833 -74.5 -191.5s-115.834 -68.5 -198.501 -68.5c-124.667 0 -227.667 57.333 -309 172z" />
    <glyph glyph-name="dieresis" unicode="&#xa8;" 
d="M555 1178v200h184v-200h-184zM285 1178v200h182v-200h-182z" />
    <glyph glyph-name="copyright" unicode="&#xa9;" horiz-adv-x="1706" 
d="M1206 903h-165.999c-14 102.667 -77.333 154 -190 154c-76.667 0 -133.334 -37.333 -170.001 -112c-27.333 -57.333 -41 -128.666 -41 -213.999c0 -211.333 73.667 -317 221 -317c110.667 0 173.667 56 189 168h165c-4.66699 -94.667 -43 -169.334 -115 -224.001
c-65.333 -50 -147 -75 -245 -75c-128 0 -227.333 42.333 -298 127c-66 79.333 -99 184.333 -99 315c0 131.333 33.333 238.333 100 321c72.667 89.333 173 134 301 134c91.333 0 169 -23 233 -69c70 -50.667 108.333 -120 115 -208zM854.001 1362
c-176.667 0 -324.666 -60.666 -443.999 -181.999c-124.667 -126.667 -187 -276.334 -187 -449.001c0 -171.333 62.333 -319.333 187 -444s272.667 -187 444 -187c125.333 0 242.166 36 350.499 108s186.5 166 234.5 282c30.667 74.667 46 155 46 241
c0 176.667 -61 326 -183 448s-271.333 183 -448 183zM852.002 1470c206.667 0 381.834 -72.168 525.501 -216.501s215.5 -318.5 215.5 -522.5c0 -207.333 -71 -380.666 -213 -519.999c-150 -147.333 -326 -221 -528 -221c-147.333 0 -283.833 42.5 -409.5 127.5
s-216.834 195.833 -273.501 332.5c-37.333 89.333 -56 183 -56 281c0 200 73.667 374.667 221 524c141.333 143.333 314 215 518 215z" />
    <glyph glyph-name="ordfeminine" unicode="&#xaa;" horiz-adv-x="547" 
d="M330 887l0.000976562 194c-94.667 -58 -142 -121.333 -142 -190c0 -49.333 16 -74 48 -74c37.333 0 68.666 23.333 93.999 70zM334.001 784c-50 -62.667 -106 -94 -168 -94c-87.333 0 -131 55.333 -131 166c0 80 31.333 149 94 207
c39.333 36.667 106.333 78.334 201 125.001v80c0 46 -17 69 -51 69c-45.333 0 -68 -21 -68 -63v-41h-152v20c0 63.333 21.333 114.666 64 153.999s96 59 160 59c133.333 0 200 -77.667 200 -233v-320c0 -101.333 4.33301 -172.333 13 -213l-148 1
c-7.33301 16 -12 43.667 -14 83z" />
    <glyph glyph-name="guillemotleft" unicode="&#xab;" horiz-adv-x="739" 
d="M76 530l145 318h172l-139 -318l139 -315h-172zM350 530l142 318h172l-140 -318l140 -315h-172z" />
    <glyph glyph-name="logicalnot" unicode="&#xac;" horiz-adv-x="1706" 
d="M254 862h1198v-502h-166v336h-1032v166z" />
    <glyph glyph-name="sfthyphen" unicode="&#xad;" horiz-adv-x="635" 
d="M80 457v151h475v-151h-475z" />
    <glyph glyph-name="registered" unicode="&#xae;" horiz-adv-x="1706" 
d="M729 1047v-261h117c128 0 192 42.333 192 127c0 89.333 -66.667 134 -200 134h-109zM551 1159h319c234 0 351 -75 351 -225c0 -126.667 -61.667 -203 -185 -229l185 -375h-199l-164 346h-129v-346h-178v829zM854 1362c-174.667 0 -321.333 -60.001 -440 -180.001
c-127.333 -128.667 -191 -279 -191 -451c0 -171.333 61 -318.666 183 -441.999c124.667 -126 270.667 -189 438 -189c177.333 0 329.333 61.667 456 185c123.333 120 185 265.333 185 436c0 181.333 -60 332.333 -180 453c-124.667 125.333 -275 188 -451 188zM852.001 1470
c208.667 0 385.334 -73.6641 530.001 -220.997c140.667 -143.333 211 -316 211 -518c0 -208.667 -72.333 -383.334 -217 -524.001c-148.667 -144.667 -323.334 -217 -524.001 -217c-202.667 0 -377.334 74.333 -524.001 223c-143.333 145.333 -215 318 -215 518
c0 147.333 42.333 284.666 127 411.999s195 218.666 331 273.999c86.667 35.333 180.334 53 281.001 53z" />
    <glyph glyph-name="macron" unicode="&#xaf;" 
d="M313 1212v131h398v-131h-398z" />
    <glyph glyph-name="macron" unicode="&#x2c9;" 
d="M313 1212v131h398v-131h-398z" />
    <glyph glyph-name="degree" unicode="&#xb0;" horiz-adv-x="674" 
d="M338 1350c-52 0 -95.999 -18.001 -131.999 -54.001s-54 -79.667 -54 -131s18.167 -95.166 54.5 -131.499s80.166 -54.5 131.499 -54.5s94.833 18 130.5 54s53.5 80 53.5 132s-17.833 95.833 -53.5 131.5s-79.167 53.5 -130.5 53.5zM338.001 1460
c82 0 151.667 -28.999 209 -86.999s86 -128 86 -210s-29 -151.667 -87 -209s-128 -86 -210 -86c-82.667 0 -152.167 28.5 -208.5 85.5s-84.5 126.833 -84.5 209.5c0 83.333 28.333 153.666 85 210.999s126.667 86 210 86z" />
    <glyph glyph-name="plusminus" unicode="&#xb1;" horiz-adv-x="1706" 
d="M254 182h1198v-168h-1198v168zM768 1206h170v-334h514v-165h-514v-334h-170v334h-514v165h514v334z" />
    <glyph glyph-name="twosuperior" unicode="&#xb2;" horiz-adv-x="535" 
d="M41 578l-0.000976562 123.998c199.333 250.667 299 430.334 299 539.001c0 70 -22 105 -66 105c-51.333 0 -77 -40.333 -77 -121v-31h-144v14c0 169.333 74.333 254 223 254c62.667 0 111.834 -18.667 147.501 -56s53.5 -87.666 53.5 -150.999
c0 -81.333 -33.333 -179 -100 -293c-32.667 -57.333 -92 -144 -178 -260h266v-124h-424z" />
    <glyph glyph-name="threesuperior" unicode="&#xb3;" horiz-adv-x="504" 
d="M37 827l139 -0.000976562v-34c0 -72.667 23.333 -109 70 -109c52 0 78 41 78 123c0 54 -6.66699 92.333 -20 115c-18 30 -51.667 45 -101 45h-19v123h23c69.333 0 104 45 104 135c0 74.667 -21 112 -63 112c-45.333 0 -68 -31.333 -68 -94v-35h-139v9
c0 162 69 243 207 243c128 0 192 -82 192 -246c0 -94.667 -27.333 -156.667 -82 -186c67.333 -29.333 101 -97.666 101 -204.999c0 -174.667 -68.333 -262 -205 -262c-144.667 0 -217 82 -217 246v20z" />
    <glyph glyph-name="acute" unicode="&#xb4;" 
d="M559 1167h-162l97 222h254z" />
    <glyph glyph-name="mu" unicode="&#xb5;" horiz-adv-x="1208" 
d="M205 1081l229 0.000976562l-125 -635c-8 -40.667 -12 -75.334 -12 -104.001c0 -131.333 60.667 -197 182 -197c94.667 0 168 42 220 126c34 56 62.333 141 85 255l109 555h225l-145 -739c-12.667 -64.667 -19 -109 -19 -133c0 -44 22.667 -66 68 -66
c14.667 0 26 0.666992 34 2l-32 -159c-40 -11.333 -90 -17 -150 -17c-99.333 0 -149 41.667 -149 125v15c-58 -94.667 -142.667 -142 -254 -142c-104.667 0 -183 36.333 -235 109l-99 -506h-229z" />
    <glyph glyph-name="mu" unicode="&#x3bc;" horiz-adv-x="1208" 
d="M205 1081l229 0.000976562l-125 -635c-8 -40.667 -12 -75.334 -12 -104.001c0 -131.333 60.667 -197 182 -197c94.667 0 168 42 220 126c34 56 62.333 141 85 255l109 555h225l-145 -739c-12.667 -64.667 -19 -109 -19 -133c0 -44 22.667 -66 68 -66
c14.667 0 26 0.666992 34 2l-32 -159c-40 -11.333 -90 -17 -150 -17c-99.333 0 -149 41.667 -149 125v15c-58 -94.667 -142.667 -142 -254 -142c-104.667 0 -183 36.333 -235 109l-99 -506h-229z" />
    <glyph glyph-name="paragraph" unicode="&#xb6;" 
d="M969 1479l-0.000976562 -99h-117v-1380h-129v1380h-168v-1380h-131v784c-107.333 4 -194.666 35.333 -261.999 94c-71.333 63.333 -107 147.333 -107 252c0 110.667 38.333 197.667 115 261c71.333 58.667 163.333 88 276 88h523z" />
    <glyph glyph-name="ch270" unicode="&#xb7;" horiz-adv-x="440" 
d="M92 741c0 35.333 12.334 65.665 37.001 90.998s54.667 38 90 38s65.666 -12.667 90.999 -38s38 -55.666 38 -90.999c0 -36 -12.5 -66.5 -37.5 -91.5s-55.5 -37.5 -91.5 -37.5c-34.667 0 -64.5 12.833 -89.5 38.5s-37.5 55.834 -37.5 90.501z" />
    <glyph glyph-name="ch270" unicode="&#x2219;" horiz-adv-x="440" 
d="M92 741c0 35.333 12.334 65.665 37.001 90.998s54.667 38 90 38s65.666 -12.667 90.999 -38s38 -55.666 38 -90.999c0 -36 -12.5 -66.5 -37.5 -91.5s-55.5 -37.5 -91.5 -37.5c-34.667 0 -64.5 12.833 -89.5 38.5s-37.5 55.834 -37.5 90.501z" />
    <glyph glyph-name="cedilla" unicode="&#xb8;" 
d="M299 -240c46.667 -10.667 90.333 -16 131 -16c54.667 0 82 17 82 51c0 40 -37 60 -111 60h-10l62 145h69l-35 -78h17c134 0 201 -42.333 201 -127c0 -87.333 -80 -131 -240 -131c-54.667 0 -110 6.33301 -166 19v77z" />
    <glyph glyph-name="onesuperior" unicode="&#xb9;" horiz-adv-x="350" 
d="M-6 1251v86.001c73.333 23.333 128 59.666 164 108.999h98v-868h-147v673h-115z" />
    <glyph glyph-name="ordmasculine" unicode="&#xba;" horiz-adv-x="545" 
d="M211 874c0 -42 20.333 -63 61 -63c42.667 0 64 21 64 63v408c0 36.667 -21.333 55 -64 55c-40.667 0 -61 -18.333 -61 -55v-408zM57 1276c0 61.333 22.001 109.332 66.001 143.999c40.667 30.667 92.667 46 156 46c59.333 0 109.166 -17.667 149.499 -53
s60.5 -82.333 60.5 -141v-385c0 -66 -19.5 -116.667 -58.5 -152s-91.833 -53 -158.5 -53c-65.333 0 -117.5 18.333 -156.5 55s-58.5 87.334 -58.5 152.001v387z" />
    <glyph glyph-name="guillemotright" unicode="&#xbb;" horiz-adv-x="739" 
d="M664 530l-146 -315h-174l139 315l-139 318h174zM389 530l-141 -315h-172l139 315l-139 318h172z" />
    <glyph glyph-name="onequarter" unicode="&#xbc;" horiz-adv-x="1126" 
d="M877 303v297l-115 -297h115zM643 197v106l234 506h131v-506h86v-106h-86v-197h-131v197h-234zM57 0l654 1446h176l-654 -1446h-176zM-6 1264v82c70.667 21.333 122.667 54 156 98h94v-809h-140v629h-110z" />
    <glyph glyph-name="onehalf" unicode="&#xbd;" horiz-adv-x="1120" 
d="M649 0v117c191.333 233.333 287 400.333 287 501c0 66 -21.333 99 -64 99c-25.333 0 -43.333 -8.33301 -54 -25c-10 -14 -16.333 -43 -19 -87l-2 -30h-135v15c0 156.667 70.667 235 212 235c58.667 0 105.167 -17.333 139.5 -52s51.5 -81.334 51.5 -140.001
c0 -75.333 -31.667 -166.666 -95 -273.999c-30 -50 -86.333 -130.667 -169 -242h254v-117h-406zM57 0l654 1446h176l-654 -1446h-176zM-6 1264v82c70.667 21.333 122.667 54 156 98h94v-809h-140v629h-110z" />
    <glyph glyph-name="threequarters" unicode="&#xbe;" horiz-adv-x="1272" 
d="M1022 303v297l-115 -297h115zM788 197v106l234 506h131v-506h86v-106h-86v-197h-131v197h-234zM203 0l653 1446h176l-653 -1446h-176zM37 868h133v-32c0 -68.667 22 -103 66 -103c48.667 0 73 39 73 117c0 50 -6.33301 85.667 -19 107c-17.333 28 -49 42 -95 42h-19v113
c2.66699 0 6.16699 0.333008 10.5 1s7.83301 1 10.5 1c66.667 0 100 41.667 100 125c0 69.333 -19.667 104 -59 104c-44 0 -66 -29.333 -66 -88v-30h-131v6c0 152.667 65.667 229 197 229c121.333 0 182 -76.333 182 -229c0 -90.667 -26 -148.667 -78 -174
c64 -28 96 -92.333 96 -193c0 -164 -65.333 -246 -196 -246c-136.667 0 -205 76.667 -205 230v20z" />
    <glyph glyph-name="questiondown" unicode="&#xbf;" horiz-adv-x="631" 
d="M428 1018c0 -6.66699 0.332031 -16.6641 0.999023 -29.9971s1 -23.333 1 -30c0 -139.333 -21 -264 -63 -374c-3.33301 -8 -30.333 -63 -81 -165c-38 -76.667 -57 -129.667 -57 -159c0 -65.333 28 -98 84 -98c49.333 0 95.333 51 138 153l174 -69
c-53.333 -184.667 -156.666 -277 -309.999 -277c-88 0 -157.667 24.667 -209 74s-77 117.666 -77 204.999c0 68.667 23.333 147 70 235c73.333 137.333 111.333 209.666 114 216.999c28.667 73.333 43 156.666 43 249.999c0 29.333 -0.666992 52 -2 68h174zM448.999 1444
v-238h-216v238h216z" />
    <glyph glyph-name="Agrave" unicode="&#xc0;" horiz-adv-x="791" 
d="M12 0l238 1446h291l237 -1446h-229l-45 313h-225l-48 -313h-219zM307 518h170l-76 604h-14zM350 1519l-188 222h251l99 -222h-162z" />
    <glyph glyph-name="Aacute" unicode="&#xc1;" horiz-adv-x="791" 
d="M12 0l238 1446h291l237 -1446h-229l-45 313h-225l-48 -313h-219zM307 518h170l-76 604h-14zM442 1519h-162l97 222h254z" />
    <glyph glyph-name="Acircumflex" unicode="&#xc2;" horiz-adv-x="791" 
d="M12 0l238 1446h291l237 -1446h-229l-45 313h-225l-48 -313h-219zM307 518h170l-76 604h-14zM305 1519h-162l154 222h196l154 -222h-162l-90 109z" />
    <glyph glyph-name="Atilde" unicode="&#xc3;" horiz-adv-x="791" 
d="M12 0l238 1446h291l237 -1446h-229l-45 313h-225l-48 -313h-219zM307 518h170l-76 604h-14zM649 1732v-16c0 -124 -52.667 -186 -158 -186c-27.333 0 -63 10.167 -107 30.5s-72.333 30.5 -85 30.5c-34 0 -51 -18.333 -51 -55v-8h-107v16c0 122.667 52.667 184 158 184
c27.333 0 63 -10.167 107 -30.5s72.333 -30.5 85 -30.5c34 0 51 19 51 57v8h107z" />
    <glyph glyph-name="Adieresis" unicode="&#xc4;" horiz-adv-x="791" 
d="M12 0l238 1446h291l237 -1446h-229l-45 313h-225l-48 -313h-219zM307 518h170l-76 604h-14zM438 1530v200h184v-200h-184zM168 1530v200h182v-200h-182z" />
    <glyph glyph-name="Aring" unicode="&#xc5;" horiz-adv-x="791" 
d="M328 1671c0 -18 6.66699 -33.667 20 -47s29 -20 47 -20c45.333 0 68 22.333 68 67c0 45.333 -22.667 68 -68 68c-18.667 0 -34.5 -6.66699 -47.5 -20s-19.5 -29.333 -19.5 -48zM217 1671c0 49.333 17.333 91.333 52 126s76.667 52 126 52s91.333 -17.333 126 -52
s52 -76.667 52 -126c0 -50 -17.167 -92.167 -51.5 -126.5s-76.5 -51.5 -126.5 -51.5s-92.167 17.167 -126.5 51.5s-51.5 76.5 -51.5 126.5zM12 0l238 1446h291l237 -1446h-229l-45 313h-225l-48 -313h-219zM307 518h170l-76 604h-14z" />
    <glyph glyph-name="AE" unicode="&#xc6;" horiz-adv-x="1143" 
d="M324 547h176v608h-15zM-61 0l448 1446h694v-209h-364v-379h266v-209h-266v-432h364v-217h-579v346h-232l-94 -346h-237z" />
    <glyph glyph-name="Ccedilla" unicode="&#xc7;" horiz-adv-x="850" 
d="M88 371v741c0 112.667 30 201 90 265c62 66.667 148.667 100 260 100c108 0 192 -35.333 252 -106c56 -66.667 84 -155 84 -265v-139h-229v159c0 100 -38.333 150 -115 150s-115 -50 -115 -150v-807c0 -100.667 38.333 -151 115 -151s115 50.333 115 151v197h229v-151
c0 -120 -27 -214.333 -81 -283c-59.333 -75.333 -147 -113 -263 -113c-228 0 -342 134 -342 402zM213 -240c46.667 -10.667 90.333 -16 131 -16c54.667 0 82 17 82 51c0 40 -37 60 -111 60h-10l62 145h69l-35 -78h17c134 0 201 -42.333 201 -127
c0 -87.333 -80 -131 -240 -131c-54.667 0 -110 6.33301 -166 19v77z" />
    <glyph glyph-name="Egrave" unicode="&#xc8;" horiz-adv-x="754" 
d="M115 0v1446h581v-209h-358v-379h258v-209h-258v-432h358v-217h-581zM365 1519l-188 222h251l99 -222h-162z" />
    <glyph glyph-name="Eacute" unicode="&#xc9;" horiz-adv-x="754" 
d="M115 0v1446h581v-209h-358v-379h258v-209h-258v-432h358v-217h-581zM457 1519h-162l97 222h254z" />
    <glyph glyph-name="Ecircumflex" unicode="&#xca;" horiz-adv-x="754" 
d="M115 0v1446h581v-209h-358v-379h258v-209h-258v-432h358v-217h-581zM320 1519h-162l154 222h196l154 -222h-162l-90 109z" />
    <glyph glyph-name="Edieresis" unicode="&#xcb;" horiz-adv-x="754" 
d="M115 0v1446h581v-209h-358v-379h258v-209h-258v-432h358v-217h-581zM453 1530v200h184v-200h-184zM183 1530v200h182v-200h-182z" />
    <glyph glyph-name="Igrave" unicode="&#xcc;" horiz-adv-x="451" 
d="M115 0v1446h227v-1446h-227zM180 1519l-188 222h251l99 -222h-162z" />
    <glyph glyph-name="Iacute" unicode="&#xcd;" horiz-adv-x="451" 
d="M115 0v1446h227v-1446h-227zM272 1519h-162l97 222h254z" />
    <glyph glyph-name="Icircumflex" unicode="&#xce;" horiz-adv-x="451" 
d="M115 0v1446h227v-1446h-227zM135 1519h-162l154 222h196l154 -222h-162l-90 109z" />
    <glyph glyph-name="Idieresis" unicode="&#xcf;" horiz-adv-x="451" 
d="M115 0v1446h227v-1446h-227zM268 1530v200h184v-200h-184zM-2 1530v200h182v-200h-182z" />
    <glyph glyph-name="Eth" unicode="&#xd0;" horiz-adv-x="889" 
d="M346 213h113c77.333 0 116 50.667 116 152v696c0 114.667 -59.333 172 -178 172h-51v-397h115v-166h-115v-457zM123 0v670h-113v166h113v610h319c240.667 0 361 -132.333 361 -397v-646c0 -132.667 -25 -231 -75 -295c-56.667 -72 -149 -108 -277 -108h-328z" />
    <glyph glyph-name="Ntilde" unicode="&#xd1;" horiz-adv-x="938" 
d="M115 0l0.000976562 1446h200l283 -864c11.333 -34 25.666 -85.333 42.999 -154c-16.667 95.333 -25 160.333 -25 195v823h209v-1446h-209l-272 799c0 0.666992 -0.333008 1.66699 -1 3l-4 12c-19.333 57.333 -33.333 104.666 -42 141.999
c16.667 -105.333 25 -172 25 -200v-756h-207zM737.001 1732v-16c0 -124 -52.667 -186 -158 -186c-27.333 0 -63 10.167 -107 30.5s-72.333 30.5 -85 30.5c-34 0 -51 -18.333 -51 -55v-8h-107v16c0 122.667 52.667 184 158 184c27.333 0 63 -10.167 107 -30.5
s72.333 -30.5 85 -30.5c34 0 51 19 51 57v8h107z" />
    <glyph glyph-name="Ograve" unicode="&#xd2;" horiz-adv-x="862" 
d="M545 319v807c0 100 -38.333 150 -115 150s-115 -50 -115 -150v-807c0 -100.667 38.333 -151 115 -151s115 50.333 115 151zM88 1112c0 112.667 30 201 90 265c62 66.667 148.667 100 260 100c108 0 192 -35.333 252 -106c56 -66.667 84 -155 84 -265v-741
c0 -120 -27 -214.333 -81 -283c-59.333 -75.333 -147 -113 -263 -113c-228 0 -342 134 -342 402v741zM387 1519l-188 222h251l99 -222h-162z" />
    <glyph glyph-name="Oacute" unicode="&#xd3;" horiz-adv-x="862" 
d="M545 319v807c0 100 -38.333 150 -115 150s-115 -50 -115 -150v-807c0 -100.667 38.333 -151 115 -151s115 50.333 115 151zM88 1112c0 112.667 30 201 90 265c62 66.667 148.667 100 260 100c108 0 192 -35.333 252 -106c56 -66.667 84 -155 84 -265v-741
c0 -120 -27 -214.333 -81 -283c-59.333 -75.333 -147 -113 -263 -113c-228 0 -342 134 -342 402v741zM479 1519h-162l97 222h254z" />
    <glyph glyph-name="Ocircumflex" unicode="&#xd4;" horiz-adv-x="862" 
d="M545 319v807c0 100 -38.333 150 -115 150s-115 -50 -115 -150v-807c0 -100.667 38.333 -151 115 -151s115 50.333 115 151zM88 1112c0 112.667 30 201 90 265c62 66.667 148.667 100 260 100c108 0 192 -35.333 252 -106c56 -66.667 84 -155 84 -265v-741
c0 -120 -27 -214.333 -81 -283c-59.333 -75.333 -147 -113 -263 -113c-228 0 -342 134 -342 402v741zM342 1519h-162l154 222h196l154 -222h-162l-90 109z" />
    <glyph glyph-name="Otilde" unicode="&#xd5;" horiz-adv-x="862" 
d="M545 319v807c0 100 -38.333 150 -115 150s-115 -50 -115 -150v-807c0 -100.667 38.333 -151 115 -151s115 50.333 115 151zM88 1112c0 112.667 30 201 90 265c62 66.667 148.667 100 260 100c108 0 192 -35.333 252 -106c56 -66.667 84 -155 84 -265v-741
c0 -120 -27 -214.333 -81 -283c-59.333 -75.333 -147 -113 -263 -113c-228 0 -342 134 -342 402v741zM686 1732v-16c0 -124 -52.667 -186 -158 -186c-27.333 0 -63 10.167 -107 30.5s-72.333 30.5 -85 30.5c-34 0 -51 -18.333 -51 -55v-8h-107v16
c0 122.667 52.667 184 158 184c27.333 0 63 -10.167 107 -30.5s72.333 -30.5 85 -30.5c34 0 51 19 51 57v8h107z" />
    <glyph glyph-name="Odieresis" unicode="&#xd6;" horiz-adv-x="862" 
d="M545 319v807c0 100 -38.333 150 -115 150s-115 -50 -115 -150v-807c0 -100.667 38.333 -151 115 -151s115 50.333 115 151zM88 1112c0 112.667 30 201 90 265c62 66.667 148.667 100 260 100c108 0 192 -35.333 252 -106c56 -66.667 84 -155 84 -265v-741
c0 -120 -27 -214.333 -81 -283c-59.333 -75.333 -147 -113 -263 -113c-228 0 -342 134 -342 402v741zM475 1530v200h184v-200h-184zM205 1530v200h182v-200h-182z" />
    <glyph glyph-name="multiply" unicode="&#xd7;" horiz-adv-x="1706" 
d="M403 1188l459 -459l461 459l117 -117l-459 -461l459 -458l-117 -119l-461 461l-459 -461l-116 119l458 458l-458 461z" />
    <glyph glyph-name="Oslash" unicode="&#xd8;" horiz-adv-x="862" 
d="M555 297v582l-238 -652c28 -46 67 -69 117 -69c80.667 0 121 46.333 121 139zM307 1171l-0.000976562 -602.001l236 652c-21.333 44.667 -59 67 -113 67c-35.333 0 -64.666 -10.667 -87.999 -32s-35 -49.666 -35 -84.999zM60.999 -31.001l66 172
c-26 57.333 -39 134 -39 230v741c0 112.667 30.333 201.667 91 267s147 98 259 98c66 0 127 -16.667 183 -50l16 48h162l-64 -175c26 -60 39 -124.667 39 -194v-741c0 -120 -27 -214.333 -81 -283c-59.333 -75.333 -147 -113 -263 -113c-73.333 0 -138 17 -194 51l-15 -51
h-160z" />
    <glyph glyph-name="Ugrave" unicode="&#xd9;" horiz-adv-x="885" 
d="M98 1446h228.001v-1120c0 -92 39.333 -138 118 -138c75.333 0 113 46 113 138v1120h227v-1081c0 -120 -26.333 -214.333 -79 -283c-58.667 -75.333 -146.334 -113 -263.001 -113c-229.333 0 -344 134 -344 402v1075zM397.001 1519l-188 222h251l99 -222h-162z" />
    <glyph glyph-name="Uacute" unicode="&#xda;" horiz-adv-x="885" 
d="M98 1446h228.001v-1120c0 -92 39.333 -138 118 -138c75.333 0 113 46 113 138v1120h227v-1081c0 -120 -26.333 -214.333 -79 -283c-58.667 -75.333 -146.334 -113 -263.001 -113c-229.333 0 -344 134 -344 402v1075zM489.001 1519h-162l97 222h254z" />
    <glyph glyph-name="Ucircumflex" unicode="&#xdb;" horiz-adv-x="885" 
d="M98 1446h228.001v-1120c0 -92 39.333 -138 118 -138c75.333 0 113 46 113 138v1120h227v-1081c0 -120 -26.333 -214.333 -79 -283c-58.667 -75.333 -146.334 -113 -263.001 -113c-229.333 0 -344 134 -344 402v1075zM352.001 1519h-162l154 222h196l154 -222h-162
l-90 109z" />
    <glyph glyph-name="Udieresis" unicode="&#xdc;" horiz-adv-x="885" 
d="M98 1446h228.001v-1120c0 -92 39.333 -138 118 -138c75.333 0 113 46 113 138v1120h227v-1081c0 -120 -26.333 -214.333 -79 -283c-58.667 -75.333 -146.334 -113 -263.001 -113c-229.333 0 -344 134 -344 402v1075zM485.001 1530v200h184v-200h-184zM215.001 1530v200
h182v-200h-182z" />
    <glyph glyph-name="Yacute" unicode="&#xdd;" horiz-adv-x="702" 
d="M-25 1446h226l145 -578h14l138 578h227l-260 -846v-600h-223v573zM399 1519h-162l97 222h254z" />
    <glyph glyph-name="Thorn" unicode="&#xde;" horiz-adv-x="834" 
d="M336 506l88 -0.000976562c60.667 0 100.667 24.667 120 74c11.333 28.667 17 80.334 17 155.001c0 71.333 -7 121 -21 149c-20.667 42.667 -62 64 -124 64h-80v-442zM113 -0.000976562v1446h223v-289h104c130 0 222.667 -38.333 278 -115
c46.667 -65.333 70 -166.333 70 -303c0 -116 -20.667 -213.333 -62 -292c-52 -100 -131 -150 -237 -150h-153v-297h-223z" />
    <glyph glyph-name="germandbls" unicode="&#xdf;" horiz-adv-x="823" 
d="M-16 883l0.000976562 184h131c0 11.333 -0.666992 29 -2 53v8c0 108 22.333 187.333 67 238c47.333 53.333 124 80 230 80c86.667 0 154.667 -21.667 204 -65c52 -46 78 -111.667 78 -197c0 -99.333 -41.667 -167.666 -125 -204.999
c73.333 -16 123.666 -48.333 150.999 -97c21.333 -38.667 32 -99.334 32 -182.001v-366c0 -232 -80 -348 -240 -348c-49.333 0 -99.333 14.333 -150 43l1 155c29.333 -17.333 53 -26 71 -26c79.333 0 119 48.333 119 145v436c0 50 -8.66699 85.667 -26 107
c-19.333 24.667 -53 37 -101 37h-64v184h60c24.667 0 44.5 10 59.5 30s22.5 42.667 22.5 68c0 72.667 -32 109 -96 109c-62 0 -93 -35 -93 -105v-1169h-198v883h-131z" />
    <glyph glyph-name="agrave" unicode="&#xe0;" horiz-adv-x="729" 
d="M452 472h-175.999l3 -188c1.33301 -83.333 30 -125 86 -125c59.333 0 88.666 41.667 87.999 125zM658.001 765v-479c0 -91.333 -27 -166 -81 -224c-56 -60 -129.333 -90 -220 -90s-160.5 27.167 -209.5 81.5s-73.5 145.5 -73.5 273.5c0 226.667 126 335 378 325l1 107
c0.666992 99.333 -28 149 -86 149c-32.667 0 -67 -6.66699 -103 -20l-80 156l160 48c209.333 4 314 -105 314 -327zM336.001 1167l-188 222h251l99 -222h-162z" />
    <glyph glyph-name="aacute" unicode="&#xe1;" horiz-adv-x="729" 
d="M452 472h-175.999l3 -188c1.33301 -83.333 30 -125 86 -125c59.333 0 88.666 41.667 87.999 125zM658.001 765v-479c0 -91.333 -27 -166 -81 -224c-56 -60 -129.333 -90 -220 -90s-160.5 27.167 -209.5 81.5s-73.5 145.5 -73.5 273.5c0 226.667 126 335 378 325l1 107
c0.666992 99.333 -28 149 -86 149c-32.667 0 -67 -6.66699 -103 -20l-80 156l160 48c209.333 4 314 -105 314 -327zM428.001 1167h-162l97 222h254z" />
    <glyph glyph-name="acircumflex" unicode="&#xe2;" horiz-adv-x="729" 
d="M452 472h-175.999l3 -188c1.33301 -83.333 30 -125 86 -125c59.333 0 88.666 41.667 87.999 125zM658.001 765v-479c0 -91.333 -27 -166 -81 -224c-56 -60 -129.333 -90 -220 -90s-160.5 27.167 -209.5 81.5s-73.5 145.5 -73.5 273.5c0 226.667 126 335 378 325l1 107
c0.666992 99.333 -28 149 -86 149c-32.667 0 -67 -6.66699 -103 -20l-80 156l160 48c209.333 4 314 -105 314 -327zM291.001 1167h-162l154 222h196l154 -222h-162l-90 109z" />
    <glyph glyph-name="atilde" unicode="&#xe3;" horiz-adv-x="729" 
d="M452 472h-175.999l3 -188c1.33301 -83.333 30 -125 86 -125c59.333 0 88.666 41.667 87.999 125zM658.001 765v-479c0 -91.333 -27 -166 -81 -224c-56 -60 -129.333 -90 -220 -90s-160.5 27.167 -209.5 81.5s-73.5 145.5 -73.5 273.5c0 226.667 126 335 378 325l1 107
c0.666992 99.333 -28 149 -86 149c-32.667 0 -67 -6.66699 -103 -20l-80 156l160 48c209.333 4 314 -105 314 -327zM635.001 1380v-16c0 -124 -52.667 -186 -158 -186c-27.333 0 -63 10.167 -107 30.5s-72.333 30.5 -85 30.5c-34 0 -51 -18.333 -51 -55v-8h-107v16
c0 122.667 52.667 184 158 184c27.333 0 63 -10.167 107 -30.5s72.333 -30.5 85 -30.5c34 0 51 19 51 57v8h107z" />
    <glyph glyph-name="adieresis" unicode="&#xe4;" horiz-adv-x="729" 
d="M452 472h-175.999l3 -188c1.33301 -83.333 30 -125 86 -125c59.333 0 88.666 41.667 87.999 125zM658.001 765v-479c0 -91.333 -27 -166 -81 -224c-56 -60 -129.333 -90 -220 -90s-160.5 27.167 -209.5 81.5s-73.5 145.5 -73.5 273.5c0 226.667 126 335 378 325l1 107
c0.666992 99.333 -28 149 -86 149c-32.667 0 -67 -6.66699 -103 -20l-80 156l160 48c209.333 4 314 -105 314 -327zM424.001 1178v200h184v-200h-184zM154.001 1178v200h182v-200h-182z" />
    <glyph glyph-name="aring" unicode="&#xe5;" horiz-adv-x="729" 
d="M319 1317c0 -18.667 6.66699 -34.333 20 -47s29.333 -19 48 -19c45.333 0 68 22 68 66c0 44.667 -22.667 67 -68 67s-68 -22.333 -68 -67zM209 1319c0 49.333 17.333 91.333 52 126s76.667 52 126 52s91.333 -17.333 126 -52s52 -76.667 52 -126
c0 -50 -17.167 -92.167 -51.5 -126.5s-76.5 -51.5 -126.5 -51.5s-92.167 17.167 -126.5 51.5s-51.5 76.5 -51.5 126.5zM453 392.001h-174v-108c0 -83.333 28.667 -125 86 -125c58.667 0 88 41.667 88 125v108zM658 765.001v-479c0 -91.333 -27 -166 -81 -224
c-56 -60 -129.333 -90 -220 -90s-160.5 27.167 -209.5 81.5s-73.5 145.5 -73.5 273.5c0 226.667 126 335 378 325l1 107c0.666992 99.333 -28 149 -86 149c-32.667 0 -67 -6.66699 -103 -20l-80 156l160 48c209.333 4 314 -105 314 -327z" />
    <glyph glyph-name="ae" unicode="&#xe6;" horiz-adv-x="1096" 
d="M429 392h-176v-108c0 -83.333 29.333 -125 88 -125s88 41.667 88 125v108zM632 800l0.000976562 -277.001c63.333 42.667 107.666 79.334 132.999 110.001c36.667 45.333 55 98.333 55 159c0 70.667 -19.667 106 -59 106c-54 0 -97 -32.667 -129 -98zM517.001 33.999
c-55.333 -41.333 -116.001 -62 -182.001 -62c-94 0 -165.667 29.333 -215 88c-46.667 55.333 -70 130.666 -70 225.999v272h379v201c0 99.333 -29.333 149 -88 149c-40.667 0 -66.667 -15.667 -78 -47c-6.66699 -17.333 -10 -51.333 -10 -102v-74h-203v80
c0 220 95.667 330 287 330c108.667 0 196 -54 262 -162c87.333 98 171.333 147 252 147c116 0 174 -78.333 174 -235c0 -113.333 -40.333 -210.666 -121 -291.999c-53.333 -54 -144 -115 -272 -183v-115c0 -64 23 -96 69 -96c62.667 0 94 49 94 147h201v-4
c0 -94.667 -26 -172.667 -78 -234c-55.333 -64 -129.666 -96 -222.999 -96c-66 0 -125.333 20.667 -178 62z" />
    <glyph glyph-name="ccedilla" unicode="&#xe7;" horiz-adv-x="729" 
d="M76 301v470.999c0 94.667 26 171.334 78 230.001c54 61.333 127.667 92 221 92c92.667 0 164 -29.667 214 -89c46.667 -55.333 70 -130.333 70 -225v-84h-204v86c0 83.333 -28.667 125 -86 125c-58.667 0 -88 -41.667 -88 -125v-475c0 -99.333 28.667 -149 86 -149
c40 0 66 16 78 48c6.66699 17.333 10 51 10 101v82h204v-88c0 -220 -99 -330 -297 -330c-93.333 0 -165.333 32.333 -216 97c-46.667 59.333 -70 137 -70 233zM152 -240.001c46.667 -10.667 90.333 -16 131 -16c54.667 0 82 17 82 51c0 40 -37 60 -111 60h-10l62 145h69
l-35 -78h17c134 0 201 -42.333 201 -127c0 -87.333 -80 -131 -240 -131c-54.667 0 -110 6.33301 -166 19v77z" />
    <glyph glyph-name="egrave" unicode="&#xe8;" horiz-adv-x="729" 
d="M250 596h175.999l-3 188c-1.33301 83.333 -30 125 -86 125c-59.333 0 -88.666 -41.667 -87.999 -125zM43.999 303v479c0 91.333 27.5 166.5 82.5 225.5s127.833 88.5 218.5 88.5s160.5 -27.167 209.5 -81.5s73.5 -145.5 73.5 -273.5c0 -226.667 -126 -335 -378 -325
l-1 -107c-0.666992 -99.333 28 -149 86 -149c32.667 0 67 6.66699 103 20l80 -156l-160 -48c-209.333 -4 -314 105 -314 327zM331.999 1167l-188 222h251l99 -222h-162z" />
    <glyph glyph-name="eacute" unicode="&#xe9;" horiz-adv-x="729" 
d="M250 596h175.999l-3 188c-1.33301 83.333 -30 125 -86 125c-59.333 0 -88.666 -41.667 -87.999 -125zM43.999 303v479c0 91.333 27.5 166.5 82.5 225.5s127.833 88.5 218.5 88.5s160.5 -27.167 209.5 -81.5s73.5 -145.5 73.5 -273.5c0 -226.667 -126 -335 -378 -325
l-1 -107c-0.666992 -99.333 28 -149 86 -149c32.667 0 67 6.66699 103 20l80 -156l-160 -48c-209.333 -4 -314 105 -314 327zM423.999 1167h-162l97 222h254z" />
    <glyph glyph-name="ecircumflex" unicode="&#xea;" horiz-adv-x="729" 
d="M250 596h175.999l-3 188c-1.33301 83.333 -30 125 -86 125c-59.333 0 -88.666 -41.667 -87.999 -125zM43.999 303v479c0 91.333 27.5 166.5 82.5 225.5s127.833 88.5 218.5 88.5s160.5 -27.167 209.5 -81.5s73.5 -145.5 73.5 -273.5c0 -226.667 -126 -335 -378 -325
l-1 -107c-0.666992 -99.333 28 -149 86 -149c32.667 0 67 6.66699 103 20l80 -156l-160 -48c-209.333 -4 -314 105 -314 327zM286.999 1167h-162l154 222h196l154 -222h-162l-90 109z" />
    <glyph glyph-name="edieresis" unicode="&#xeb;" horiz-adv-x="729" 
d="M250 596h175.999l-3 188c-1.33301 83.333 -30 125 -86 125c-59.333 0 -88.666 -41.667 -87.999 -125zM43.999 303v479c0 91.333 27.5 166.5 82.5 225.5s127.833 88.5 218.5 88.5s160.5 -27.167 209.5 -81.5s73.5 -145.5 73.5 -273.5c0 -226.667 -126 -335 -378 -325
l-1 -107c-0.666992 -99.333 28 -149 86 -149c32.667 0 67 6.66699 103 20l80 -156l-160 -48c-209.333 -4 -314 105 -314 327zM419.999 1178v200h184v-200h-184zM149.999 1178v200h182v-200h-182z" />
    <glyph glyph-name="igrave" unicode="&#xec;" horiz-adv-x="393" 
d="M96 0v1067h201v-1067h-201zM152 1167l-188 222h251l99 -222h-162z" />
    <glyph glyph-name="iacute" unicode="&#xed;" horiz-adv-x="393" 
d="M96 0v1067h201v-1067h-201zM244 1167h-162l97 222h254z" />
    <glyph glyph-name="icircumflex" unicode="&#xee;" horiz-adv-x="393" 
d="M96 0v1067h201v-1067h-201zM107 1167h-162l154 222h196l154 -222h-162l-90 109z" />
    <glyph glyph-name="idieresis" unicode="&#xef;" horiz-adv-x="393" 
d="M96 0v1067h201v-1067h-201zM240 1178v200h184v-200h-184zM-30 1178v200h182v-200h-182z" />
    <glyph glyph-name="eth" unicode="&#xf0;" horiz-adv-x="727" 
d="M76 774c0 86 28.001 153.668 84.001 203.001c53.333 46.667 123.666 70 210.999 70c4 0 15.667 -1 35 -3c-23.333 52.667 -56.333 102 -99 148l-164 -129l-53 78l154 121l-109 112l92 101c42.667 -33.333 87.667 -73.666 135 -120.999l152 121l57 -76l-143 -113
c148.667 -166.667 223 -354.334 223 -563.001v-457c0 -91.333 -25.5 -163 -76.5 -215s-121.833 -78 -212.5 -78c-88.667 0 -158.667 27.667 -210 83c-50.667 53.333 -76 124.666 -76 213.999v504zM281.001 250.001c0 -61.333 27 -92 81 -92c58 0 87 30.667 87 92v553
c0 52 -29 78 -87 78c-54 0 -81 -26 -81 -78v-553z" />
    <glyph glyph-name="ntilde" unicode="&#xf1;" horiz-adv-x="756" 
d="M96 0v1067h201v-117c75.333 87.333 151 131 227 131c93.333 0 140 -62.667 140 -188v-893h-199v805c0 56 -17.667 84 -53 84c-34 0 -72.333 -26.667 -115 -80v-809h-201zM645 1380v-16c0 -124 -52.667 -186 -158 -186c-27.333 0 -63 10.167 -107 30.5
s-72.333 30.5 -85 30.5c-34 0 -51 -18.333 -51 -55v-8h-107v16c0 122.667 52.667 184 158 184c27.333 0 63 -10.167 107 -30.5s72.333 -30.5 85 -30.5c34 0 51 19 51 57v8h107z" />
    <glyph glyph-name="ograve" unicode="&#xf2;" horiz-adv-x="727" 
d="M281 250c0 -61.333 27 -92 81 -92c58 0 87 30.667 87 92v581c0 52 -29 78 -87 78c-54 0 -81 -26 -81 -78v-581zM76 823c0 86 28.001 153.334 84.001 202.001c53.333 46 123.666 69 210.999 69c82 0 149.167 -25.667 201.5 -77s78.5 -118 78.5 -200v-551
c0 -91.333 -25.5 -163 -76.5 -215s-121.833 -78 -212.5 -78c-88.667 0 -158.667 27.667 -210 83c-50.667 53.333 -76 124.666 -76 213.999v553zM320.001 1167l-188 222h251l99 -222h-162z" />
    <glyph glyph-name="oacute" unicode="&#xf3;" horiz-adv-x="727" 
d="M281 250c0 -61.333 27 -92 81 -92c58 0 87 30.667 87 92v581c0 52 -29 78 -87 78c-54 0 -81 -26 -81 -78v-581zM76 823c0 86 28.001 153.334 84.001 202.001c53.333 46 123.666 69 210.999 69c82 0 149.167 -25.667 201.5 -77s78.5 -118 78.5 -200v-551
c0 -91.333 -25.5 -163 -76.5 -215s-121.833 -78 -212.5 -78c-88.667 0 -158.667 27.667 -210 83c-50.667 53.333 -76 124.666 -76 213.999v553zM412.001 1167h-162l97 222h254z" />
    <glyph glyph-name="ocircumflex" unicode="&#xf4;" horiz-adv-x="727" 
d="M281 250c0 -61.333 27 -92 81 -92c58 0 87 30.667 87 92v581c0 52 -29 78 -87 78c-54 0 -81 -26 -81 -78v-581zM76 823c0 86 28.001 153.334 84.001 202.001c53.333 46 123.666 69 210.999 69c82 0 149.167 -25.667 201.5 -77s78.5 -118 78.5 -200v-551
c0 -91.333 -25.5 -163 -76.5 -215s-121.833 -78 -212.5 -78c-88.667 0 -158.667 27.667 -210 83c-50.667 53.333 -76 124.666 -76 213.999v553zM275.001 1167h-162l154 222h196l154 -222h-162l-90 109z" />
    <glyph glyph-name="otilde" unicode="&#xf5;" horiz-adv-x="727" 
d="M281 250c0 -61.333 27 -92 81 -92c58 0 87 30.667 87 92v581c0 52 -29 78 -87 78c-54 0 -81 -26 -81 -78v-581zM76 823c0 86 28.001 153.334 84.001 202.001c53.333 46 123.666 69 210.999 69c82 0 149.167 -25.667 201.5 -77s78.5 -118 78.5 -200v-551
c0 -91.333 -25.5 -163 -76.5 -215s-121.833 -78 -212.5 -78c-88.667 0 -158.667 27.667 -210 83c-50.667 53.333 -76 124.666 -76 213.999v553zM619.001 1380v-16c0 -124 -52.667 -186 -158 -186c-27.333 0 -63 10.167 -107 30.5s-72.333 30.5 -85 30.5
c-34 0 -51 -18.333 -51 -55v-8h-107v16c0 122.667 52.667 184 158 184c27.333 0 63 -10.167 107 -30.5s72.333 -30.5 85 -30.5c34 0 51 19 51 57v8h107z" />
    <glyph glyph-name="odieresis" unicode="&#xf6;" horiz-adv-x="727" 
d="M281 250c0 -61.333 27 -92 81 -92c58 0 87 30.667 87 92v581c0 52 -29 78 -87 78c-54 0 -81 -26 -81 -78v-581zM76 823c0 86 28.001 153.334 84.001 202.001c53.333 46 123.666 69 210.999 69c82 0 149.167 -25.667 201.5 -77s78.5 -118 78.5 -200v-551
c0 -91.333 -25.5 -163 -76.5 -215s-121.833 -78 -212.5 -78c-88.667 0 -158.667 27.667 -210 83c-50.667 53.333 -76 124.666 -76 213.999v553zM408.001 1178v200h184v-200h-184zM138.001 1178v200h182v-200h-182z" />
    <glyph glyph-name="divide" unicode="&#xf7;" horiz-adv-x="1706" 
d="M854 367c38 0 70.333 -13.501 97 -40.501s40 -59.5 40 -97.5s-13.333 -70 -40 -96s-59 -39 -97 -39c-38.667 0 -71.167 12.833 -97.5 38.5s-39.5 57.834 -39.5 96.501c0 38 13.333 70.5 40 97.5s59 40.5 97 40.5zM254 693.999h1198v-166h-1198v166zM854 1128
c38 0 70.333 -13.668 97 -41.001s40 -60 40 -98s-13.333 -70 -40 -96s-59 -39 -97 -39c-38.667 0 -71.167 12.833 -97.5 38.5s-39.5 57.834 -39.5 96.501c0 38 13.333 70.667 40 98s59 41 97 41z" />
    <glyph glyph-name="oslash" unicode="&#xf8;" horiz-adv-x="727" 
d="M651 246c0 -85.333 -27.166 -152.167 -81.499 -200.5s-124.833 -72.5 -211.5 -72.5c-55.333 0 -105 13 -149 39l-27 -59h-139l68 158c-23.333 31.333 -35 77.666 -35 138.999v573c0 86 28 153.333 84 202c53.333 46 123.666 69 210.999 69
c56.667 0 105.667 -12.333 147 -37l19 39h139l-60 -140c23.333 -31.333 35 -77.666 35 -138.999v-571zM453.001 601.999l-169.999 -401c9.33301 -34 36.666 -51 81.999 -51c24 0 44.667 7.33301 62 22s26 33.667 26 57v373zM274.002 464.999l172 401c-10 36 -37 54 -81 54
c-24 0 -45.167 -7.66699 -63.5 -23s-27.5 -35 -27.5 -59v-373z" />
    <glyph glyph-name="ugrave" unicode="&#xf9;" horiz-adv-x="756" 
d="M657 1067v-1067h-198v117c-75.333 -88.667 -152 -133 -230 -133c-92.667 0 -139 63.333 -139 190v893h199v-819c0 -48 17.667 -72 53 -72s74.333 26.667 117 80v811h198zM334 1167l-188 222h251l99 -222h-162z" />
    <glyph glyph-name="uacute" unicode="&#xfa;" horiz-adv-x="756" 
d="M657 1067v-1067h-198v117c-75.333 -88.667 -152 -133 -230 -133c-92.667 0 -139 63.333 -139 190v893h199v-819c0 -48 17.667 -72 53 -72s74.333 26.667 117 80v811h198zM426 1167h-162l97 222h254z" />
    <glyph glyph-name="ucircumflex" unicode="&#xfb;" horiz-adv-x="756" 
d="M657 1067v-1067h-198v117c-75.333 -88.667 -152 -133 -230 -133c-92.667 0 -139 63.333 -139 190v893h199v-819c0 -48 17.667 -72 53 -72s74.333 26.667 117 80v811h198zM289 1167h-162l154 222h196l154 -222h-162l-90 109z" />
    <glyph glyph-name="udieresis" unicode="&#xfc;" horiz-adv-x="756" 
d="M657 1067v-1067h-198v117c-75.333 -88.667 -152 -133 -230 -133c-92.667 0 -139 63.333 -139 190v893h199v-819c0 -48 17.667 -72 53 -72s74.333 26.667 117 80v811h198zM422 1178v200h184v-200h-184zM152 1178v200h182v-200h-182z" />
    <glyph glyph-name="yacute" unicode="&#xfd;" horiz-adv-x="653" 
d="M16 1067l187.001 0.000976562l123 -684h8l100 684h199l-225 -1141c-18 -90 -47.667 -155.333 -89 -196c-46 -44 -113.333 -66 -202 -66c-34.667 0 -61.334 1 -80.001 3v190h37c58 0 99 13.667 123 41c22 25.333 35 67.666 39 126.999zM375.001 1167h-162l97 222h254z" />
    <glyph glyph-name="thorn" unicode="&#xfe;" horiz-adv-x="739" 
d="M297 864v-665c30 -30 57.333 -45 82 -45c54.667 0 82 37.333 82 112v551c0 62.667 -23.333 94 -70 94c-34 0 -65.333 -15.667 -94 -47zM96 -336v1782h201v-463c50.667 65.333 113.334 98 188.001 98c120.667 0 181 -79 181 -237v-590c0 -178.667 -64.333 -268 -193 -268
c-62.667 0 -121.334 33.333 -176.001 100v-422h-201z" />
    <glyph glyph-name="ydieresis" unicode="&#xff;" horiz-adv-x="653" 
d="M16 1067l187.001 0.000976562l123 -684h8l100 684h199l-225 -1141c-18 -90 -47.667 -155.333 -89 -196c-46 -44 -113.333 -66 -202 -66c-34.667 0 -61.334 1 -80.001 3v190h37c58 0 99 13.667 123 41c22 25.333 35 67.666 39 126.999zM371.001 1178v200h184v-200h-184z
M101.001 1178v200h182v-200h-182z" />
    <glyph glyph-name="Cacute" unicode="&#x106;" horiz-adv-x="850" 
d="M88 371v741c0 112.667 30 201 90 265c62 66.667 148.667 100 260 100c108 0 192 -35.333 252 -106c56 -66.667 84 -155 84 -265v-139h-229v159c0 100 -38.333 150 -115 150s-115 -50 -115 -150v-807c0 -100.667 38.333 -151 115 -151s115 50.333 115 151v197h229v-151
c0 -120 -27 -214.333 -81 -283c-59.333 -75.333 -147 -113 -263 -113c-228 0 -342 134 -342 402zM473 1519h-162l97 222h254z" />
    <glyph glyph-name="cacute" unicode="&#x107;" horiz-adv-x="729" 
d="M76 301v470.999c0 94.667 26 171.334 78 230.001c54 61.333 127.667 92 221 92c92.667 0 164 -29.667 214 -89c46.667 -55.333 70 -130.333 70 -225v-84h-204v86c0 83.333 -28.667 125 -86 125c-58.667 0 -88 -41.667 -88 -125v-475c0 -99.333 28.667 -149 86 -149
c40 0 66 16 78 48c6.66699 17.333 10 51 10 101v82h204v-88c0 -220 -99 -330 -297 -330c-93.333 0 -165.333 32.333 -216 97c-46.667 59.333 -70 137 -70 233zM424 1167h-162l97 222h254z" />
    <glyph glyph-name="Ccaron" unicode="&#x10c;" horiz-adv-x="850" 
d="M88 371v741c0 112.667 30 201 90 265c62 66.667 148.667 100 260 100c108 0 192 -35.333 252 -106c56 -66.667 84 -155 84 -265v-139h-229v159c0 100 -38.333 150 -115 150s-115 -50 -115 -150v-807c0 -100.667 38.333 -151 115 -151s115 50.333 115 151v197h229v-151
c0 -120 -27 -214.333 -81 -283c-59.333 -75.333 -147 -113 -263 -113c-228 0 -342 134 -342 402zM516 1741h162l-154 -222h-196l-154 222h162l90 -109z" />
    <glyph glyph-name="ccaron" unicode="&#x10d;" horiz-adv-x="729" 
d="M76 301v470.999c0 94.667 26 171.334 78 230.001c54 61.333 127.667 92 221 92c92.667 0 164 -29.667 214 -89c46.667 -55.333 70 -130.333 70 -225v-84h-204v86c0 83.333 -28.667 125 -86 125c-58.667 0 -88 -41.667 -88 -125v-475c0 -99.333 28.667 -149 86 -149
c40 0 66 16 78 48c6.66699 17.333 10 51 10 101v82h204v-88c0 -220 -99 -330 -297 -330c-93.333 0 -165.333 32.333 -216 97c-46.667 59.333 -70 137 -70 233zM467 1389h162l-154 -222h-196l-154 222h162l90 -109z" />
    <glyph glyph-name="dcroat" unicode="&#x111;" horiz-adv-x="750" 
d="M444 203v665c-28.667 30 -56.667 45 -84 45c-52.667 0 -79 -37.333 -79 -112v-551c0 -62.667 23 -94 69 -94c34 0 65.333 15.667 94 47zM444 84c-50.667 -65.333 -114.001 -98 -190.001 -98c-118.667 0 -178 78.333 -178 235v592c0 178.667 64 268 192 268
c62.667 0 121.334 -33.333 176.001 -100v236h-184v94h184v135h199v-135h98v-94h-98v-1217h-199v84z" />
    <glyph glyph-name="Gbreve" unicode="&#x11e;" horiz-adv-x="852" 
d="M88 371v741c0 112.667 30 201 90 265c62 66.667 148.667 100 260 100c214.667 0 322 -123.667 322 -371v-133h-215v153c0 100 -38.333 150 -115 150s-115 -50 -115 -150v-807c0 -100.667 38.333 -151 115 -151s115 50.333 115 151v226h-135v184h350v-729l-150 100
c-48 -87.333 -119.667 -131 -215 -131c-204.667 0 -307 134 -307 402zM342 1741c0 -66 28 -99 84 -99s84 33 84 99h131v-13c0 -142 -71.667 -213 -215 -213s-215 71 -215 213v13h131z" />
    <glyph glyph-name="gbreve" unicode="&#x11f;" horiz-adv-x="707" 
d="M418 553v248c0 72 -29.333 108 -88 108c-57.333 0 -86 -36 -86 -108v-248c0 -72.667 28.667 -109 86 -109c58.667 0 88 36.333 88 109zM301 -25c-50.667 -23.333 -76 -51.333 -76 -84c0 -28 18 -50 54 -66c28 -12 58 -18 90 -18c39.333 0 75 5.33301 107 16
c46 16 69 39.667 69 71c0 52.667 -81.333 79.667 -244 81zM191 313c-86.667 54 -129.999 138.004 -129.999 252.004v213c0 94.667 21.333 169.667 64 225c47.333 60.667 117 91 209 91c88.667 0 165.667 -39.667 231 -119c24 -44 36 -74.667 36 -92
c0 -4.66699 -1 -8.33398 -3 -11.001c1.33301 -24 2 -47.667 2 -71v-238c0 -192.667 -85.333 -288.334 -256 -287.001c-4.66699 0 -20.667 1.33301 -48 4c-2 0 -3.66699 0.333008 -5 1c-31.333 -23.333 -47 -46 -47 -68c0 -30.667 39 -48.334 117 -53.001
c48.667 -2.66699 86 -6 112 -10c168 -24.667 252 -104.667 252 -240c0 -168 -128.333 -252 -385 -252c-222.667 0 -334 56.667 -334 170c0 35.333 15 68 45 98c25.333 25.333 69.666 50.666 132.999 75.999c-82 20.667 -123 61.667 -123 123c0 62 43.333 124.667 130 188z
M270.001 1389c0 -66 28 -99 84 -99s84 33 84 99h131v-13c0 -142 -71.667 -213 -215 -213s-215 71 -215 213v13h131z" />
    <glyph glyph-name="Idotaccent" unicode="&#x130;" horiz-adv-x="451" 
d="M115 0v1446h227v-1446h-227zM129 1526v208h192v-208h-192z" />
    <glyph glyph-name="dotlessi" unicode="&#x131;" horiz-adv-x="393" 
d="M96 0v1067h201v-1067h-201z" />
    <glyph glyph-name="Lslash" unicode="&#x141;" horiz-adv-x="702" 
d="M123 0v584l-113 -80v190l113 80v672h223v-549l172 121v-193l-172 -120v-496h346v-209h-569z" />
    <glyph glyph-name="lslash" unicode="&#x142;" horiz-adv-x="412" 
d="M106 0v616l-96 -67v117l96 67v713h199v-608l98 65v-117l-98 -67v-719h-199z" />
    <glyph glyph-name="OE" unicode="&#x152;" horiz-adv-x="1188" 
d="M584 1446h541.999v-209h-358v-379h260v-209h-260v-432h358v-217h-542c-58 -20.667 -109.333 -31 -154 -31c-228 0 -342 134 -342 402v741c0 112.667 30 201 90 265c62 66.667 148.667 100 260 100c44.667 0 93.334 -10.333 146.001 -31zM314.999 305
c0 -39.333 10 -71.333 30 -96c21.333 -27.333 51 -41 89 -41c74 0 111 45 111 135v858c0 76.667 -38.333 115 -115 115c-33.333 0 -60.833 -10.833 -82.5 -32.5s-32.5 -49.167 -32.5 -82.5v-856z" />
    <glyph glyph-name="oe" unicode="&#x153;" horiz-adv-x="1100" 
d="M651 674h176v108c0 84.667 -29.333 127 -88 127s-88 -42.333 -88 -127v-108zM281 250c0 -61.333 27 -92 81 -92c58 0 87 30.667 87 92v581c0 52 -29 78 -87 78c-54 0 -81 -26 -81 -78v-581zM76 823c0 86 28 153.333 84 202c53.333 46 123.666 69 210.999 69
c70.667 0 132.667 -21.333 186 -64c62.667 42.667 126.334 64 191.001 64c92 0 163 -29.667 213 -89c46 -56 69 -131 69 -225v-272h-379v-201c0 -99.333 29.333 -149 88 -149c40.667 0 66.667 15.667 78 47c6.66699 17.333 10 51.333 10 102v74h203v-80
c0 -220 -95.667 -330 -287 -330c-73.333 0 -135.333 21.333 -186 64c-52 -42.667 -117 -64 -195 -64c-88.667 0 -158.5 27.5 -209.5 82.5s-76.5 127.167 -76.5 216.5v553z" />
    <glyph glyph-name="Scedilla" unicode="&#x15e;" horiz-adv-x="803" 
d="M47 367l212.999 32.001c8 -143.333 57.333 -215 148 -215c41.333 0 74.5 13 99.5 39s37.5 59.667 37.5 101c0 75.333 -60 172.666 -180 291.999l-21 21c-92 92 -154.667 162 -188 210c-58.667 85.333 -88 172.333 -88 261c0 100 32.833 185.333 98.5 256
s148.167 106 247.5 106c100 0 180 -35.333 240 -106c54.667 -64.667 86 -148.667 94 -252l-218 -31c-7.33301 120.667 -48 181 -122 181c-79.333 0 -119 -44.667 -119 -134c0 -84 70 -193.667 210 -329l13 -13c86 -83.333 145 -151 177 -203
c48.667 -77.333 73 -162.333 73 -255c0 -103.333 -32 -189.333 -96 -258s-147.333 -103 -250 -103c-116 0 -206.667 38.333 -272 115c-59.333 70.667 -91.666 165.667 -96.999 285zM187.999 -239.999c46.667 -10.667 90.333 -16 131 -16c54.667 0 82 17 82 51
c0 40 -37 60 -111 60h-10l62 145h69l-35 -78h17c134 0 201 -42.333 201 -127c0 -87.333 -80 -131 -240 -131c-54.667 0 -110 6.33301 -166 19v77z" />
    <glyph glyph-name="scedilla" unicode="&#x15f;" horiz-adv-x="686" 
d="M29 289l192.001 43.001c16 -116 59.667 -174 131 -174c61.333 0 92 31.333 92 94c0 56.667 -69 136.667 -207 240c-124 92.667 -186 196.334 -186 311.001c0 87.333 26.833 157.666 80.5 210.999s124.5 80 212.5 80c84 0 151.333 -25.333 202 -76
c48.667 -49.333 76 -116.333 82 -201l-188 -45c-14.667 90 -50 135 -106 135c-57.333 0 -86 -31.333 -86 -94c0 -46 47 -106.333 141 -181l59 -48c63.333 -52.667 108.666 -99 135.999 -139c38 -55.333 57 -116.333 57 -183c0 -88.667 -27.167 -159.334 -81.5 -212.001
s-126.166 -79 -215.499 -79c-90.667 0 -164.334 31 -221.001 93c-50.667 56 -82 131 -94 225zM131.001 -239.999c46.667 -10.667 90.333 -16 131 -16c54.667 0 82 17 82 51c0 40 -37 60 -111 60h-10l62 145h69l-35 -78h17c134 0 201 -42.333 201 -127
c0 -87.333 -80 -131 -240 -131c-54.667 0 -110 6.33301 -166 19v77z" />
    <glyph glyph-name="Scaron" unicode="&#x160;" horiz-adv-x="803" 
d="M47 367l212.999 32.001c8 -143.333 57.333 -215 148 -215c41.333 0 74.5 13 99.5 39s37.5 59.667 37.5 101c0 75.333 -60 172.666 -180 291.999l-21 21c-92 92 -154.667 162 -188 210c-58.667 85.333 -88 172.333 -88 261c0 100 32.833 185.333 98.5 256
s148.167 106 247.5 106c100 0 180 -35.333 240 -106c54.667 -64.667 86 -148.667 94 -252l-218 -31c-7.33301 120.667 -48 181 -122 181c-79.333 0 -119 -44.667 -119 -134c0 -84 70 -193.667 210 -329l13 -13c86 -83.333 145 -151 177 -203
c48.667 -77.333 73 -162.333 73 -255c0 -103.333 -32 -189.333 -96 -258s-147.333 -103 -250 -103c-116 0 -206.667 38.333 -272 115c-59.333 70.667 -91.666 165.667 -96.999 285zM490.999 1741h162l-154 -222h-196l-154 222h162l90 -109z" />
    <glyph glyph-name="scaron" unicode="&#x161;" horiz-adv-x="686" 
d="M29 289l192.001 43.001c16 -116 59.667 -174 131 -174c61.333 0 92 31.333 92 94c0 56.667 -69 136.667 -207 240c-124 92.667 -186 196.334 -186 311.001c0 87.333 26.833 157.666 80.5 210.999s124.5 80 212.5 80c84 0 151.333 -25.333 202 -76
c48.667 -49.333 76 -116.333 82 -201l-188 -45c-14.667 90 -50 135 -106 135c-57.333 0 -86 -31.333 -86 -94c0 -46 47 -106.333 141 -181l59 -48c63.333 -52.667 108.666 -99 135.999 -139c38 -55.333 57 -116.333 57 -183c0 -88.667 -27.167 -159.334 -81.5 -212.001
s-126.166 -79 -215.499 -79c-90.667 0 -164.334 31 -221.001 93c-50.667 56 -82 131 -94 225zM434.001 1389h162l-154 -222h-196l-154 222h162l90 -109z" />
    <glyph glyph-name="Ydieresis" unicode="&#x178;" horiz-adv-x="702" 
d="M-25 1446h226l145 -578h14l138 578h227l-260 -846v-600h-223v573zM395 1530v200h184v-200h-184zM125 1530v200h182v-200h-182z" />
    <glyph glyph-name="Zcaron" unicode="&#x17d;" horiz-adv-x="774" 
d="M63 0v223l400 1000h-367v223h609v-209l-404 -1014h404v-223h-642zM477 1741h162l-154 -222h-196l-154 222h162l90 -109z" />
    <glyph glyph-name="zcaron" unicode="&#x17e;" horiz-adv-x="635" 
d="M53 0v178l326 703h-301v186h508v-176l-312 -701h312v-190h-533zM407 1389h162l-154 -222h-196l-154 222h162l90 -109z" />
    <glyph glyph-name="florin" unicode="&#x192;" horiz-adv-x="831" 
d="M0 -147c20.667 -6 39.668 -9 57.001 -9c58.667 0 93.667 34.333 105 103l141 835h-190v166h219l45 260c30.667 178 112.667 267 246 267c43.333 0 81.333 -5.66699 114 -17v-174c-26.667 6.66699 -46.334 10 -59.001 10c-59.333 0 -94.333 -34 -105 -102l-38 -244h202
v-166h-233l-144 -854c-30 -176 -112.333 -264 -247 -264c-40 0 -77.667 5.66699 -113 17v172z" />
    <glyph glyph-name="circumflex" unicode="&#x2c6;" 
d="M422 1167h-162l154 222h196l154 -222h-162l-90 109z" />
    <glyph glyph-name="caron" unicode="&#x2c7;" 
d="M602 1389h162l-154 -222h-196l-154 222h162l90 -109z" />
    <glyph glyph-name="breve" unicode="&#x2d8;" 
d="M428 1389c0 -66 28 -99 84 -99s84 33 84 99h131v-13c0 -142 -71.667 -213 -215 -213s-215 71 -215 213v13h131z" />
    <glyph glyph-name="dotaccent" unicode="&#x2d9;" 
d="M416 1174v208h192v-208h-192z" />
    <glyph glyph-name="ring" unicode="&#x2da;" 
d="M334 1346c0 49.333 17.333 91.333 52 126s76.667 52 126 52s91.333 -17.333 126 -52s52 -76.667 52 -126c0 -50 -17.167 -92.333 -51.5 -127s-76.5 -52 -126.5 -52c-50.667 0 -93 17.167 -127 51.5s-51 76.833 -51 127.5zM444 1343c0 -43.333 22.667 -65 68 -65
s68 21.667 68 65c0 45.333 -22.667 68 -68 68c-18.667 0 -34.667 -6.66699 -48 -20s-20 -29.333 -20 -48z" />
    <glyph glyph-name="ogonek" unicode="&#x2db;" 
d="M629 0c-45.333 -68 -68 -126 -68 -174c0 -44 14.333 -82.333 43 -115h-180c-15.333 32 -23 60 -23 84c0 66 37.667 134.333 113 205h115z" />
    <glyph glyph-name="tilde" unicode="&#x2dc;" 
d="M766 1380v-16c0 -124 -52.667 -186 -158 -186c-27.333 0 -63 10.167 -107 30.5s-72.333 30.5 -85 30.5c-34 0 -51 -18.333 -51 -55v-8h-107v16c0 122.667 52.667 184 158 184c27.333 0 63 -10.167 107 -30.5s72.333 -30.5 85 -30.5c34 0 51 19 51 57v8h107z" />
    <glyph glyph-name="hungarumlaut" unicode="&#x2dd;" 
d="M408 1167h-105l82 222h207zM668 1167h-117l96 222h209z" />
    <glyph glyph-name="Delta" unicode="&#x394;" horiz-adv-x="1395" 
d="M698 1196l-379 -983h756zM569 1473h256l574 -1473h-1403z" />
    <glyph glyph-name="Delta" unicode="&#x2206;" horiz-adv-x="1395" 
d="M698 1196l-379 -983h756zM569 1473h256l574 -1473h-1403z" />
    <glyph glyph-name="Omega" unicode="&#x3a9;" horiz-adv-x="1569" 
d="M1194 213l304.999 -0.00195312v-213h-602v229c216 126.667 324 325.334 324 596.001c0 136.667 -38.333 248.667 -115 336c-80 91.333 -187.333 137 -322 137c-138 0 -246.333 -47.333 -325 -142c-74 -88 -111 -202.333 -111 -343c0 -263.333 108 -458 324 -584v-229
h-602v213h305c-186 168 -279 366.667 -279 596c0 208 62.833 377 188.5 507s292.167 195 499.5 195c202.667 0 368.167 -63.833 496.5 -191.5s192.5 -292.5 192.5 -494.5c0 -128 -22.667 -240.667 -68 -338c-43.333 -93.333 -113.666 -184.666 -210.999 -273.999z" />
    <glyph glyph-name="Omega" unicode="&#x2126;" horiz-adv-x="1569" 
d="M1194 213l304.999 -0.00195312v-213h-602v229c216 126.667 324 325.334 324 596.001c0 136.667 -38.333 248.667 -115 336c-80 91.333 -187.333 137 -322 137c-138 0 -246.333 -47.333 -325 -142c-74 -88 -111 -202.333 -111 -343c0 -263.333 108 -458 324 -584v-229
h-602v213h305c-186 168 -279 366.667 -279 596c0 208 62.833 377 188.5 507s292.167 195 499.5 195c202.667 0 368.167 -63.833 496.5 -191.5s192.5 -292.5 192.5 -494.5c0 -128 -22.667 -240.667 -68 -338c-43.333 -93.333 -113.666 -184.666 -210.999 -273.999z" />
    <glyph glyph-name="pi" unicode="&#x3c0;" horiz-adv-x="1368" 
d="M360 889l-45 0.000976562c-69.333 0 -110.333 -43.667 -123 -131h-174c18 119.333 49 201.666 93 246.999c50 50.667 133 76 249 76h953l-39 -192h-193l-84 -437c-1.33301 -7.33301 -4 -21 -8 -41c-14.667 -74 -22 -123 -22 -147c0 -70.667 33.333 -106 100 -106
c21.333 0 55.333 3.33301 102 10l-34 -168c-38.667 -10.667 -84 -16 -136 -16c-177.333 0 -266 67.333 -266 202c0 21.333 17.333 136 52 344l1 6l70 353h-268l-174 -889h-226z" />
    <glyph glyph-name="endash" unicode="&#x2013;" 
d="M0 467v133h1024v-133h-1024z" />
    <glyph glyph-name="emdash" unicode="&#x2014;" horiz-adv-x="2048" 
d="M0 467v133h2048v-133h-2048z" />
    <glyph glyph-name="quoteleft" unicode="&#x2018;" horiz-adv-x="440" 
d="M328 1190v-227h-213v227l112 256h101l-76 -256h76z" />
    <glyph glyph-name="quoteright" unicode="&#x2019;" horiz-adv-x="440" 
d="M115 1219v227h213v-227l-115 -256h-98l73 256h-73z" />
    <glyph glyph-name="quotesinglbase" unicode="&#x201a;" horiz-adv-x="440" 
d="M115 0v227h213v-227l-115 -256h-98l73 256h-73z" />
    <glyph glyph-name="quotedblleft" unicode="&#x201c;" horiz-adv-x="739" 
d="M627 1190v-227h-215v227l114 256h101l-76 -256h76zM328 1190v-227h-213v227l112 256h101l-76 -256h76z" />
    <glyph glyph-name="quotedblright" unicode="&#x201d;" horiz-adv-x="739" 
d="M115 1219v227h213v-227l-115 -256h-98l73 256h-73zM412 1219v227h215v-227l-115 -256h-100l75 256h-75z" />
    <glyph glyph-name="quotedblbase" unicode="&#x201e;" horiz-adv-x="739" 
d="M412 0v227h215v-227l-115 -256h-100l75 256h-75zM115 0v227h213v-227l-115 -256h-98l73 256h-73z" />
    <glyph glyph-name="dagger" unicode="&#x2020;" horiz-adv-x="788" 
d="M506 1446l-74.001 -397l316 71v-223l-316 82c16.667 -120 41.334 -230.667 74.001 -332c-38 -150 -62.667 -416.333 -74 -799l-78 1c-10 352.667 -34.333 618.667 -73 798c36 113.333 60.333 224 73 332l-313 -82v223l313 -71l-73 397h225z" />
    <glyph glyph-name="daggerdbl" unicode="&#x2021;" horiz-adv-x="788" 
d="M281 653c34.667 103.333 60.333 212.001 77 326.001l-317 -82v223l315 -71l-75 397h225l-74 -397l316 71v-223l-318 82c20.667 -130.667 46 -239.334 76 -326.001c-30 -85.333 -55.333 -194.333 -76 -327l318 82v-224l-316 72l74 -397h-225l75 397l-315 -72v224l317 -82
c-17.333 118.667 -43 227.667 -77 327z" />
    <glyph glyph-name="bullet" unicode="&#x2022;" horiz-adv-x="1208" 
d="M307 762c0 82.667 28.832 152.499 86.499 209.499s127.834 85.5 210.501 85.5c82 0 151.667 -28.667 209 -86s86 -127 86 -209s-29 -152 -87 -210s-128 -87 -210 -87c-82.667 0 -152.5 28.833 -209.5 86.5s-85.5 127.834 -85.5 210.501z" />
    <glyph glyph-name="ellipsis" unicode="&#x2026;" horiz-adv-x="2048" 
d="M236 0v227h213v-227h-213zM918 0v227h213v-227h-213zM1602 0v227h213v-227h-213z" />
    <glyph glyph-name="perthousand" unicode="&#x2030;" horiz-adv-x="1556" 
d="M1391 195v329c0 52 -22 78 -66 78c-42 0 -63 -25.333 -63 -76v-331c0 -60.667 21 -91 63 -91c44 0 66 30.333 66 91zM1548 231c0 -174.667 -74.334 -262 -223.001 -262c-147.333 0 -221 89 -221 267v260c0 74 19.5 132.667 58.5 176s95.167 65 168.5 65
c70.667 0 125.334 -23.667 164.001 -71c35.333 -43.333 53 -101.333 53 -174v-261zM1036 231c0 -174.667 -73.667 -262 -221 -262s-221 89 -221 267v260c0 74 19.5 132.667 58.5 176s95.167 65 168.5 65c70 0 124.333 -23.667 163 -71c34.667 -44 52 -102 52 -174v-261z
M880.999 195v329c0 52 -22 78 -66 78c-42 0 -63 -25.333 -63 -76v-331c0 -60.667 21 -91 63 -91c44 0 66 30.333 66 91zM108.999 0l653 1446h176l-653 -1446h-176zM306.999 932v332c0 50 -21 75 -63 75c-44 0 -66 -25 -66 -75v-332c0 -58.667 22 -88 66 -88
c42 0 63 29.333 63 88zM464.999 969c0 -174.667 -73.667 -262 -221 -262s-221 88.667 -221 266v260c0 74 19.167 132.833 57.5 176.5s94.166 65.5 167.499 65.5c70.667 0 125.334 -24 164.001 -72c35.333 -44 53 -102 53 -174v-260z" />
    <glyph glyph-name="guilsinglleft" unicode="&#x2039;" horiz-adv-x="473" 
d="M76 530l147 318h172l-139 -318l139 -315h-172z" />
    <glyph glyph-name="guilsinglright" unicode="&#x203a;" horiz-adv-x="473" 
d="M395 530l-147 -315h-172l139 315l-139 318h172z" />
    <glyph glyph-name="fraction" unicode="&#x2044;" horiz-adv-x="276" 
d="M-276 0l653 1446h176l-653 -1446h-176z" />
    <glyph glyph-name="franc" unicode="&#x20a3;" horiz-adv-x="1223" 
d="M115 0v1446h581v-209h-358v-379h258v-209h-258v-649h-223zM780 0l0.000976562 1067h201v-145c50.667 104.667 121 157 211 157h20v-223c-18.667 9.33301 -40.334 14 -65.001 14c-110.667 0 -166 -57.333 -166 -172v-698h-201z" />
    <glyph glyph-name="trademark" unicode="&#x2122;" horiz-adv-x="1706" 
d="M809 918h170l141 360l133 -360h170v542h-114v-428l-160 428h-59l-166 -428v428h-115v-542zM225 918h467v94h-168v448h-129v-448h-170v-94z" />
    <glyph glyph-name="partialdiff" unicode="&#x2202;" horiz-adv-x="1075" 
d="M758 639c23.333 141.333 34.998 252.664 34.998 333.997c0 152.667 -40.333 229 -121 229c-38 0 -87.167 -19.5 -147.5 -58.5s-100.833 -58.5 -121.5 -58.5c-24 0 -45.333 8.33301 -64 25s-28 37 -28 61c0 54.667 34.667 97.334 104 128.001c54 24 112.333 36 175 36
c136 0 240 -66.333 312 -199c58 -106.667 87 -234 87 -382c0 -190.667 -39.333 -359.667 -118 -507c-97.333 -181.333 -233.333 -272 -408 -272c-111.333 0 -201.666 39 -270.999 117c-66.667 74.667 -100 168.334 -100 281.001c0 120.667 34.333 224.334 103 311.001
c74 94 170 141 288 141c130.667 0 222.334 -62 275.001 -186zM704.998 503.998c0 160.667 -52.667 241 -158 241c-86.667 0 -152 -60.333 -196 -181c-32 -87.333 -48 -183.333 -48 -288c0 -159.333 52.667 -239 158 -239c86 0 151.333 60 196 180c32 88 48 183.667 48 287z
" />
    <glyph glyph-name="product" unicode="&#x220f;" horiz-adv-x="1579" 
d="M154 1473h1267v-1866h-286v1622h-695v-1622h-286v1866z" />
    <glyph glyph-name="summation" unicode="&#x2211;" horiz-adv-x="1421" 
d="M61 1473h1280v-226h-921l647 -684l-661 -729h974v-227h-1347v160l712 786l-684 719v201z" />
    <glyph glyph-name="minus" unicode="&#x2212;" horiz-adv-x="1706" 
d="M254 696h1198v-170h-1198v170z" />
    <glyph glyph-name="radical" unicode="&#x221a;" horiz-adv-x="1323" 
d="M1128 1675h197v-110h-108l-594 -1606h-82l-316 872l-131 -49l-28 95l305 108l247 -688z" />
    <glyph glyph-name="infinity" unicode="&#x221e;" horiz-adv-x="1706" 
d="M928 559c60.667 -109.333 146.001 -164.002 256.001 -164.002c64.667 0 117.667 20.333 159 61s62 93.334 62 158.001c0 60.667 -17.667 112.334 -53 155.001c-38 44.667 -86.667 67 -146 67c-96.667 0 -189.334 -92.333 -278.001 -277zM780.001 661.998
c-62.667 110 -148 165 -256 165c-65.333 0 -118.5 -20.5 -159.5 -61.5s-61.5 -94.167 -61.5 -159.5c0 -60 17.667 -111 53 -153c37.333 -44 85.333 -66 144 -66c100 0 193.333 91.667 280 275zM862.001 470.998c-91.333 -173.333 -198.332 -260 -320.999 -260
c-100 0 -181.333 42.667 -244 128c-56 76.667 -84 167 -84 271c0 106 23.667 196 71 270c55.333 86.667 133.333 130 234 130c116 0 224.667 -86.667 326 -260c89.333 174.667 200.666 262 333.999 262c95.333 0 173.666 -44.333 234.999 -133
c54.667 -78.667 82 -167.667 82 -267c0 -106 -23.667 -196 -71 -270c-55.333 -86 -133.333 -129 -234 -129c-71.333 0 -136.666 27.667 -195.999 83c-39.333 36.667 -83.333 95 -132 175z" />
    <glyph glyph-name="integral" unicode="&#x222b;" horiz-adv-x="1120" 
d="M324 -258c70.667 0 111.333 230.666 122 691.999l3 123c6.66699 270.667 26 471 58 601c65.333 262.667 187.666 394 366.999 394c51.333 0 96 -13 134 -39c43.333 -29.333 65 -68.666 65 -117.999c0 -86 -43 -129 -129 -129c-62 0 -100.333 29.333 -115 88
c-2.66699 10 -4.66699 25 -6 45c-2 27.333 -10.667 41 -26 41c-67.333 0.666992 -107 -204.333 -119 -615l-8 -249c-5.33301 -154.667 -11.666 -268 -18.999 -340c-14 -139.333 -37.667 -250 -71 -332c-73.333 -183.333 -184.666 -275 -333.999 -275
c-52.667 0 -97.334 12.667 -134.001 38c-42 28.667 -63 68 -63 118c0 87.333 45 131 135 131c54.667 0 90.667 -25 108 -75l8 -58c4 -27.333 12 -41 24 -41z" />
    <glyph glyph-name="approxequal" unicode="&#x2248;" horiz-adv-x="1706" 
d="M1530 592l0.00195312 -186c-136.667 -93.333 -266.334 -140 -389.001 -140c-60.667 0 -155.334 22.167 -284.001 66.5s-226.667 66.5 -294 66.5c-106.667 0 -235 -52.333 -385 -157v184c144.667 96.667 273.667 145 387 145c71.333 0 172.5 -22.5 303.5 -67.5
s225.167 -67.5 282.5 -67.5c104.667 0 231 52 379 156zM1530 979l-0.00195312 -184c-137.333 -94.667 -267 -142 -389 -142c-59.333 0 -153.666 22.5 -282.999 67.5s-227.666 67.5 -294.999 67.5c-104 0 -232.333 -52.333 -385 -157v184c145.333 97.333 274.333 146 387 146
c70.667 0 170.167 -22.667 298.5 -68s221.5 -68 279.5 -68c115.333 0 244.333 51.333 387 154z" />
    <glyph glyph-name="approxequal" unicode="&#x22f2;" horiz-adv-x="1706" 
d="M1530 592l0.00195312 -186c-136.667 -93.333 -266.334 -140 -389.001 -140c-60.667 0 -155.334 22.167 -284.001 66.5s-226.667 66.5 -294 66.5c-106.667 0 -235 -52.333 -385 -157v184c144.667 96.667 273.667 145 387 145c71.333 0 172.5 -22.5 303.5 -67.5
s225.167 -67.5 282.5 -67.5c104.667 0 231 52 379 156zM1530 979l-0.00195312 -184c-137.333 -94.667 -267 -142 -389 -142c-59.333 0 -153.666 22.5 -282.999 67.5s-227.666 67.5 -294.999 67.5c-104 0 -232.333 -52.333 -385 -157v184c145.333 97.333 274.333 146 387 146
c70.667 0 170.167 -22.667 298.5 -68s221.5 -68 279.5 -68c115.333 0 244.333 51.333 387 154z" />
    <glyph glyph-name="notequal" unicode="&#x2260;" horiz-adv-x="1706" 
d="M1204 1212l123 -100l-170 -215h295v-162h-403l-197 -250h600v-161h-707l-249 -314l-123 99l170 215h-289v161h393l199 250h-592v162h700z" />
    <glyph glyph-name="lessequal" unicode="&#x2264;" horiz-adv-x="1706" 
d="M260 178h1186v-166h-1186v166zM1446 1223v-176l-889 -287l889 -287v-176l-1186 389v145z" />
    <glyph glyph-name="greaterequal" unicode="&#x2265;" horiz-adv-x="1706" 
d="M260 178h1188v-166h-1188v166zM260 1223l1186 -392v-145l-1186 -389v176l891 287l-891 287v176z" />
    <glyph glyph-name="lozenge" unicode="&#x25ca;" horiz-adv-x="1012" 
d="M506 1409l-385 -817l385 -825l385 825zM506 1653l500 -1061l-500 -1069l-500 1069z" />
    <glyph glyph-name="apple" unicode="&#xf000;" horiz-adv-x="1618" 
d="M836 1216c-1.33301 8 -2 20.333 -2 37c0 88 33.667 167 101 237c64 66 140.667 107.333 230 124c1.33301 -13.333 2 -34 2 -62c0 -78 -31.333 -153.333 -94 -226c-64.667 -74.667 -135.667 -112 -213 -112h-8c-2 0 -4.66699 0.333008 -8 1s-6 1 -8 1zM1505 403
c-60 -130.667 -110.668 -223.668 -152.001 -279.001c-78.667 -106 -164.334 -159 -257.001 -159c-30.667 0 -74 11 -130 33s-97.333 33 -124 33c-29.333 0 -72.666 -11 -129.999 -33s-100 -33 -128 -33c-86 0 -172 58.667 -258 176c-142 194 -213 392.667 -213 596
c0 140.667 39 256.667 117 348c82.667 97.333 193 146 331 146c38 0 87.833 -11.333 149.5 -34s104.834 -34 129.501 -34c21.333 0 62.833 11.667 124.5 35s111.5 35 149.5 35c144 0 263.667 -54.667 359 -164c-134 -85.333 -201 -194.666 -201 -327.999
c0 -155.333 77.667 -268 233 -338z" />
    <glyph glyph-name="fi" unicode="&#xf001;" horiz-adv-x="842" 
d="M539 1247v199h198v-199h-198zM539 0v1067h198v-1067h-198zM123 0l0.000976562 901h-113v166h113v125c0 169.333 77 254 231 254c39.333 0 77.666 -5.33301 114.999 -16v-174l-53 10c-62.667 0 -94 -30 -94 -90v-109h127v-166h-127v-901h-199z" />
    <glyph glyph-name="fl" unicode="&#xf002;" horiz-adv-x="842" 
d="M539 0v1446h198v-1446h-198zM123 0l0.000976562 901h-113v166h113v125c0 169.333 77 254 231 254c39.333 0 77.666 -5.33301 114.999 -16v-174l-53 10c-62.667 0 -94 -30 -94 -90v-109h127v-166h-127v-901h-199z" />
    <glyph glyph-name=".null" horiz-adv-x="0" 
 />
    <glyph glyph-name="nonmarkingreturn" horiz-adv-x="416" 
 />
    <glyph glyph-name="periodcentered" horiz-adv-x="440" 
d="M92 741c0 35.333 12.334 65.665 37.001 90.998s54.667 38 90 38s65.666 -12.667 90.999 -38s38 -55.666 38 -90.999c0 -36 -12.5 -66.5 -37.5 -91.5s-55.5 -37.5 -91.5 -37.5c-34.667 0 -64.5 12.833 -89.5 38.5s-37.5 55.834 -37.5 90.501z" />
    <glyph glyph-name="glyph256" horiz-adv-x="416" 
 />
    <glyph glyph-name="glyph257" horiz-adv-x="416" 
 />
    </font>
</defs>
</svg>
